{"glyphs":{"0":{"ha":811,"x_min":107,"x_max":704,"o":"m 174 857 q 208 916 174 857 q 406 975 242 975 q 637 857 569 975 q 704 479 704 739 q 637 101 704 219 q 406 -17 569 -17 q 174 101 242 -17 q 107 479 107 219 q 174 857 107 739 m 609 833 q 580 888 609 833 q 406 943 550 943 q 202 833 261 943 q 143 479 143 724 q 202 125 143 235 q 406 15 261 15 q 609 125 550 15 q 668 479 668 235 q 609 833 668 724 z "},"1":{"ha":525,"x_min":51,"x_max":349,"o":"m 349 0 l 314 0 l 314 858 q 318 922 314 892 l 58 835 l 51 857 l 314 958 l 349 958 l 349 0 z "},"2":{"ha":774,"x_min":86,"x_max":689,"o":"m 103 913 l 94 938 q 367 975 250 975 q 580 937 514 975 q 646 783 646 899 q 601 607 646 690 q 453 403 557 524 l 131 31 l 297 31 l 689 31 l 689 0 l 86 0 l 86 19 q 93 39 86 29 l 426 424 q 568 624 525 539 q 608 794 611 710 q 548 915 604 888 q 374 943 492 943 q 103 913 247 943 z "},"3":{"ha":767,"x_min":85,"x_max":656,"o":"m 108 926 l 99 951 q 343 975 233 975 q 567 927 504 975 q 629 754 629 879 q 478 513 629 543 l 478 507 q 656 267 651 481 q 593 52 658 121 q 369 -17 528 -17 q 85 7 256 -17 l 93 32 q 367 15 251 15 q 561 73 501 15 q 621 267 621 131 q 611 351 621 314 q 577 422 601 388 q 503 474 553 456 q 383 494 454 493 l 204 494 l 204 519 l 383 524 q 596 753 596 528 q 539 903 593 864 q 344 943 485 943 q 108 926 233 943 z "},"4":{"ha":826,"x_min":82,"x_max":750,"o":"m 750 278 l 636 274 l 636 0 l 601 0 l 601 272 l 146 272 q 82 307 103 272 q 82 381 61 342 l 392 958 l 428 958 l 114 371 q 113 324 100 346 q 154 303 126 303 l 601 303 l 601 615 l 611 778 l 636 778 l 636 303 l 750 303 l 750 278 z "},"5":{"ha":731,"x_min":90,"x_max":636,"o":"m 604 928 l 175 928 l 158 560 l 235 560 q 417 549 350 558 q 538 510 483 539 q 614 427 592 482 q 636 282 636 372 q 631 192 636 231 q 609 113 626 154 q 560 44 592 71 q 474 1 529 18 q 343 -17 419 -17 q 90 22 229 -17 l 99 47 q 340 14 235 14 q 476 33 422 14 q 556 90 529 51 q 593 172 583 128 q 603 282 603 217 q 593 381 603 340 q 558 450 583 422 q 503 493 532 478 q 417 517 474 508 q 306 527 360 525 q 163 529 253 529 l 143 529 q 129 535 135 529 q 125 549 124 540 l 144 958 l 608 958 l 604 928 z "},"6":{"ha":783,"x_min":113,"x_max":690,"o":"m 629 958 l 618 933 q 464 943 565 943 q 343 933 390 943 q 256 894 296 922 q 196 813 217 867 q 163 678 175 760 q 149 474 151 596 q 274 582 211 551 q 431 613 336 613 q 635 542 579 613 q 690 286 690 471 q 681 158 690 208 q 642 65 671 108 q 555 3 613 22 q 407 -17 497 -17 q 279 -1 331 -17 q 194 44 228 15 q 143 129 161 74 q 119 251 125 185 q 113 419 113 318 q 126 663 113 565 q 163 824 139 761 q 231 919 186 886 q 329 963 276 951 q 464 975 382 975 q 629 958 563 975 m 408 14 q 608 79 560 14 q 656 290 656 144 q 608 517 656 453 q 428 582 561 582 q 282 552 344 582 q 149 442 219 522 l 149 415 q 153 263 149 322 q 174 152 158 204 q 217 72 189 100 q 292 29 246 44 q 408 14 339 14 z "},"7":{"ha":701,"x_min":67,"x_max":635,"o":"m 67 958 l 590 958 q 634 946 625 958 q 632 901 643 933 l 318 0 l 283 0 l 588 875 q 597 902 590 885 q 606 928 603 919 l 69 928 l 67 958 z "},"8":{"ha":849,"x_min":118,"x_max":731,"o":"m 275 494 l 275 500 q 170 562 203 508 q 138 719 138 615 q 199 912 138 854 q 425 969 260 969 q 651 913 590 971 q 711 719 711 854 q 678 562 711 615 q 574 500 646 508 l 574 494 q 695 424 660 485 q 731 239 731 364 q 668 44 731 99 q 425 -11 606 -10 q 183 43 247 -12 q 118 239 118 99 q 153 424 118 364 q 275 494 189 485 m 425 938 q 224 890 275 938 q 172 719 172 843 q 221 550 172 588 q 426 513 269 513 q 631 550 585 513 q 676 719 676 588 q 626 891 676 844 q 425 938 576 938 m 426 482 q 289 474 338 482 q 207 438 240 465 q 163 366 174 411 q 153 239 153 321 q 209 70 153 118 q 425 22 265 22 q 641 69 586 22 q 696 239 696 117 q 685 367 696 321 q 642 440 675 414 q 561 474 608 467 q 426 482 514 482 z "},"9":{"ha":785,"x_min":93,"x_max":667,"o":"m 142 0 l 153 25 q 315 15 232 15 q 436 25 389 15 q 524 63 483 35 q 585 143 564 90 q 619 278 607 196 q 631 485 631 361 q 506 376 568 407 q 350 346 443 346 q 152 423 211 346 q 93 658 93 500 q 154 897 93 818 q 375 975 215 975 q 476 967 433 975 q 551 944 519 958 q 603 899 583 929 q 637 836 624 868 q 656 747 650 804 q 665 634 663 689 q 667 492 667 579 q 653 269 667 360 q 615 122 640 179 q 545 35 590 65 q 448 -6 500 4 q 315 -17 396 -17 q 142 0 214 -17 m 353 376 q 497 406 435 376 q 631 517 560 436 q 629 628 631 585 q 624 718 628 671 q 613 793 621 765 q 593 850 606 821 q 562 894 581 879 q 516 922 543 908 q 455 940 489 935 q 375 944 421 944 q 181 873 233 944 q 128 656 128 801 q 178 446 128 515 q 353 376 228 376 z "}," ":{"ha":319,"x_min":0,"x_max":0,"o":""},"!":{"ha":351,"x_min":153,"x_max":200,"o":"m 193 492 l 190 282 l 161 282 l 158 492 l 158 965 l 193 965 l 193 492 m 169 119 l 183 119 q 200 103 200 119 l 200 17 q 183 0 200 0 l 169 0 q 153 17 153 0 l 153 103 q 169 119 153 119 z "},"\"":{"ha":454,"x_min":122,"x_max":332,"o":"m 156 669 l 122 669 l 122 958 l 156 958 l 156 669 m 332 669 l 299 669 l 299 958 l 332 958 l 332 669 z "},"#":{"ha":926,"x_min":83,"x_max":843,"o":"m 686 653 l 632 347 l 785 347 l 779 317 l 628 317 l 572 0 l 538 0 l 593 317 l 279 317 l 224 0 l 189 0 l 244 317 l 83 317 l 89 347 l 249 347 l 303 653 l 142 653 l 147 683 l 308 683 l 356 958 l 390 958 l 343 683 l 657 683 l 704 958 l 739 958 l 692 683 l 843 683 l 838 653 l 686 653 m 651 653 l 338 653 l 283 347 l 597 347 l 651 653 z "},"$":{"ha":776,"x_min":96,"x_max":688,"o":"m 410 497 l 494 486 q 644 417 600 474 q 688 235 688 360 q 674 122 688 168 q 640 48 661 75 q 578 7 618 21 q 499 -11 539 -7 q 396 -15 460 -15 l 382 -15 l 372 -187 l 343 -187 l 353 -15 q 113 0 221 -12 l 117 26 q 354 17 242 17 l 378 468 l 282 482 q 139 551 182 493 q 96 728 96 610 q 112 863 96 813 q 169 938 128 914 q 256 969 210 963 q 385 974 301 975 l 406 974 l 413 1117 l 442 1117 l 435 972 q 644 957 560 967 l 640 931 q 432 942 471 940 l 410 497 m 403 942 l 385 942 q 303 940 331 942 q 241 933 276 939 q 190 913 206 926 q 158 876 174 900 q 136 817 142 853 q 131 728 131 781 q 165 574 131 622 q 282 515 200 526 l 381 501 l 403 942 m 383 17 l 397 17 q 517 25 474 18 q 593 55 560 32 q 640 121 626 78 q 653 235 653 164 q 617 394 653 347 q 494 453 582 442 l 407 465 l 383 17 z "},"%":{"ha":1226,"x_min":85,"x_max":1142,"o":"m 132 908 q 156 941 132 908 q 293 975 179 975 q 454 908 407 975 q 501 692 501 840 q 454 476 501 543 q 293 408 407 408 q 132 476 179 408 q 85 692 85 543 q 132 908 85 840 m 294 0 l 261 0 l 928 958 l 961 958 l 294 0 m 430 888 q 410 918 430 888 q 293 949 390 949 q 156 888 196 949 q 117 692 117 828 q 156 495 117 556 q 293 435 196 435 q 430 495 390 435 q 469 692 469 556 q 430 888 469 828 m 772 490 q 796 523 772 490 q 933 557 819 557 q 1094 490 1047 557 q 1142 274 1142 422 q 1094 58 1142 125 q 933 -10 1047 -10 q 772 58 819 -10 q 725 274 725 125 q 772 490 725 422 m 1070 470 q 1050 500 1070 470 q 933 531 1031 531 q 797 470 836 531 q 757 274 757 410 q 797 77 757 138 q 933 17 836 17 q 1070 77 1031 17 q 1110 274 1110 138 q 1070 470 1110 410 z "},"&":{"ha":1088,"x_min":111,"x_max":1008,"o":"m 1004 22 l 1008 0 q 890 -8 953 -8 q 738 132 738 -8 l 738 133 q 589 22 671 54 q 388 -11 507 -11 q 174 44 236 -11 q 111 242 111 99 q 154 422 111 358 q 301 494 197 486 l 301 500 q 176 563 214 507 q 139 724 139 618 q 153 835 139 790 q 193 906 168 879 q 265 947 218 933 q 363 965 313 961 q 496 969 414 969 q 717 958 618 969 l 711 933 q 494 938 671 938 q 240 898 306 938 q 175 722 175 858 q 228 554 175 597 q 419 511 281 511 l 738 511 l 746 728 l 771 728 l 771 511 l 967 511 l 963 482 l 771 482 l 771 133 q 882 22 771 22 l 1004 22 m 738 482 l 419 482 q 208 431 268 482 q 147 242 147 379 q 199 69 147 117 q 385 21 251 21 q 591 58 510 21 q 738 181 672 96 l 738 482 z "},"'":{"ha":278,"x_min":122,"x_max":156,"o":"m 156 669 l 122 669 l 122 958 l 156 958 l 156 669 z "},"(":{"ha":493,"x_min":96,"x_max":431,"o":"m 425 1097 l 431 1072 q 205 838 278 993 q 132 435 132 683 q 205 35 132 190 q 431 -204 278 -121 l 425 -229 q 176 12 256 -149 q 96 433 96 172 q 176 857 96 696 q 425 1097 256 1018 z "},")":{"ha":493,"x_min":63,"x_max":397,"o":"m 63 1072 l 68 1097 q 317 857 238 1018 q 397 433 397 696 q 317 12 397 172 q 68 -229 238 -149 l 63 -204 q 288 35 215 -121 q 361 435 361 190 q 288 838 361 683 q 63 1072 215 993 z "},"*":{"ha":629,"x_min":100,"x_max":531,"o":"m 325 746 l 456 567 l 431 549 l 314 722 l 199 550 l 172 568 l 303 746 l 299 958 l 332 958 l 325 746 m 281 761 l 279 749 l 274 738 l 100 792 l 111 822 l 281 761 m 531 789 l 354 738 l 349 749 l 349 761 l 519 819 l 531 789 z "},"+":{"ha":768,"x_min":94,"x_max":674,"o":"m 674 397 l 399 397 l 399 138 l 369 138 l 369 397 l 94 397 l 94 428 l 368 428 l 368 688 l 400 688 l 400 428 l 674 428 l 674 397 z "},",":{"ha":289,"x_min":124,"x_max":168,"o":"m 139 119 l 151 119 q 168 103 168 119 l 168 14 q 143 -162 165 -83 l 126 -156 q 132 0 132 -82 q 124 14 119 0 l 124 103 q 139 119 122 119 z "},"-":{"ha":671,"x_min":119,"x_max":551,"o":"m 551 333 l 119 333 l 119 364 l 551 364 l 551 333 z "},".":{"ha":286,"x_min":119,"x_max":167,"o":"m 136 119 l 150 119 q 167 103 167 119 l 167 17 q 150 0 167 0 l 136 0 q 119 17 119 0 l 119 103 q 136 119 119 119 z "},"/":{"ha":686,"x_min":53,"x_max":633,"o":"m 88 -82 l 53 -82 l 599 958 l 633 958 l 88 -82 z "},":":{"ha":286,"x_min":119,"x_max":167,"o":"m 136 597 l 150 597 q 167 581 167 597 l 167 494 q 150 478 167 478 l 136 478 q 119 494 119 478 l 119 581 q 136 597 119 597 m 136 119 l 150 119 q 167 103 167 119 l 167 17 q 150 0 167 0 l 136 0 q 119 17 119 0 l 119 103 q 136 119 119 119 z "},";":{"ha":289,"x_min":119,"x_max":168,"o":"m 136 597 l 150 597 q 167 581 167 597 l 167 494 q 150 478 167 478 l 136 478 q 119 494 119 478 l 119 581 q 136 597 119 597 m 139 119 l 151 119 q 168 103 168 119 l 168 14 q 143 -162 165 -83 l 126 -156 q 132 0 132 -82 q 124 14 119 0 l 124 103 q 139 119 122 119 z "},"<":{"ha":751,"x_min":90,"x_max":636,"o":"m 636 649 l 124 410 l 636 179 l 636 149 l 90 394 l 90 425 l 636 679 l 636 649 z "},"=":{"ha":818,"x_min":119,"x_max":699,"o":"m 699 535 l 119 535 l 119 565 l 699 565 l 699 535 m 699 240 l 119 240 l 119 271 l 699 271 l 699 240 z "},">":{"ha":751,"x_min":115,"x_max":661,"o":"m 661 425 l 661 394 l 115 149 l 115 179 l 628 410 l 115 649 l 115 679 l 661 425 z "},"?":{"ha":704,"x_min":69,"x_max":624,"o":"m 76 939 l 69 964 q 110 970 82 965 q 149 976 138 975 q 186 981 161 978 q 231 986 211 985 q 283 988 251 988 q 351 989 314 989 q 624 774 624 989 q 597 666 624 715 q 531 578 569 617 q 453 501 492 540 q 387 406 414 463 q 360 282 360 350 l 326 282 q 353 417 326 357 q 419 516 381 476 q 497 592 458 556 q 562 674 535 628 q 589 774 589 719 q 531 913 589 868 q 351 958 474 958 q 76 939 221 958 m 335 119 l 349 119 q 365 103 365 119 l 365 17 q 349 0 365 0 l 335 0 q 318 17 318 0 l 318 103 q 335 119 318 119 z "},"@":{"ha":963,"x_min":131,"x_max":844,"o":"m 468 788 l 663 788 q 844 625 844 788 l 844 179 l 821 179 l 814 292 q 672 210 764 249 q 493 172 581 172 q 366 210 411 172 q 321 318 321 249 l 321 393 q 363 494 321 458 q 479 529 404 529 l 814 529 l 814 625 q 661 757 814 758 l 469 757 q 352 754 393 757 q 272 737 311 751 q 215 701 232 722 q 184 631 199 679 q 167 524 169 583 q 164 368 164 465 q 165 242 164 292 q 174 146 167 192 q 190 74 182 100 q 219 25 199 47 q 261 -8 240 3 q 322 -25 282 -18 q 401 -33 363 -32 q 503 -35 439 -35 l 838 -35 l 838 -61 q 504 -65 671 -65 q 359 -63 414 -67 q 258 -42 304 -60 q 190 2 213 -24 q 153 82 168 28 q 134 199 138 136 q 131 367 131 261 q 134 528 131 468 q 151 641 138 589 q 185 717 165 693 q 246 760 204 742 q 337 782 288 778 q 468 788 386 786 m 814 506 l 479 500 q 354 393 354 496 l 354 319 q 492 203 354 206 q 660 236 568 201 q 814 321 753 271 l 814 506 z "},"A":{"ha":838,"x_min":26,"x_max":811,"o":"m 647 350 l 190 350 l 64 0 l 26 0 l 371 946 q 389 958 375 958 l 449 958 q 467 946 463 958 l 811 0 l 774 0 l 647 350 m 636 381 l 467 850 l 439 928 l 399 928 l 371 850 l 201 381 l 636 381 z "},"B":{"ha":850,"x_min":143,"x_max":749,"o":"m 558 500 l 558 494 q 705 422 661 485 q 749 239 749 358 q 684 41 749 93 q 454 -11 619 -11 q 143 0 256 -11 l 143 958 q 413 969 242 969 q 653 917 586 969 q 721 719 721 865 q 682 562 721 615 q 558 500 643 508 m 178 511 l 440 511 q 631 555 578 513 q 685 719 685 597 q 626 894 685 850 q 413 938 567 938 q 178 935 261 938 l 178 511 m 178 482 l 178 24 q 454 21 275 21 q 657 65 601 21 q 713 239 713 108 q 653 429 713 379 q 440 482 593 479 l 178 482 z "},"C":{"ha":779,"x_min":106,"x_max":721,"o":"m 713 33 l 721 8 q 460 -17 611 -17 q 184 94 263 -17 q 106 479 106 204 q 184 865 106 754 q 460 975 263 975 q 701 951 599 975 l 693 926 q 460 943 589 943 q 212 840 282 943 q 142 479 142 738 q 212 118 142 221 q 460 15 282 15 q 713 33 608 15 z "},"D":{"ha":915,"x_min":143,"x_max":810,"o":"m 143 0 l 143 958 q 461 971 308 971 q 732 860 654 971 q 810 479 810 750 q 732 98 810 208 q 461 -12 654 -12 q 143 0 311 -12 m 178 933 l 178 24 q 461 19 428 19 q 704 122 635 19 q 774 479 774 224 q 704 837 774 735 q 461 939 635 939 q 178 933 347 939 z "},"E":{"ha":765,"x_min":135,"x_max":685,"o":"m 682 31 l 685 6 q 276 0 549 0 q 175 40 215 0 q 135 142 135 81 l 135 817 q 175 918 135 878 q 276 958 215 958 q 685 953 549 958 l 682 928 l 283 928 q 201 896 233 928 q 169 814 169 864 l 169 528 l 625 528 l 625 499 l 169 499 l 169 144 q 201 63 169 94 q 283 31 233 31 l 682 31 z "},"F":{"ha":736,"x_min":139,"x_max":679,"o":"m 676 928 l 288 928 q 206 896 238 928 q 174 814 174 864 l 174 522 l 619 522 l 619 493 l 174 493 l 174 0 l 139 0 l 139 817 q 179 918 139 878 q 281 958 219 958 q 679 953 546 958 l 676 928 z "},"G":{"ha":864,"x_min":106,"x_max":751,"o":"m 751 556 l 751 0 l 728 0 l 719 124 q 422 -17 589 -17 q 179 100 253 -17 q 106 479 106 217 q 185 865 106 754 q 464 975 265 975 q 736 951 619 975 l 728 926 q 464 943 611 943 q 213 840 283 943 q 142 479 142 738 q 207 124 142 233 q 425 15 272 15 q 515 26 474 15 q 597 63 557 38 q 657 104 636 88 q 717 156 678 121 l 717 556 l 751 556 z "},"H":{"ha":913,"x_min":143,"x_max":769,"o":"m 769 958 l 769 0 l 735 0 l 735 499 l 178 499 l 178 0 l 143 0 l 143 958 l 178 958 l 178 529 l 735 529 l 735 958 l 769 958 z "},"I":{"ha":321,"x_min":143,"x_max":178,"o":"m 178 0 l 143 0 l 143 958 l 178 958 l 178 0 z "},"J":{"ha":450,"x_min":53,"x_max":311,"o":"m 311 958 l 311 160 q 142 -8 311 -10 q 53 0 103 -8 l 57 22 l 138 22 q 276 161 276 22 l 276 958 l 311 958 z "},"K":{"ha":781,"x_min":143,"x_max":735,"o":"m 332 485 l 174 485 q 176 365 176 442 l 176 0 l 143 0 l 143 958 l 176 958 l 176 631 q 174 515 176 599 l 332 515 l 669 958 l 711 958 l 390 535 q 360 501 375 514 l 360 499 q 390 467 385 474 l 735 0 l 693 0 l 332 485 z "},"L":{"ha":704,"x_min":139,"x_max":665,"o":"m 174 958 l 174 144 q 206 63 174 94 q 288 31 238 31 l 665 31 l 665 6 q 281 0 538 0 q 179 40 219 0 q 139 142 139 81 l 139 958 l 174 958 z "},"M":{"ha":1186,"x_min":122,"x_max":1064,"o":"m 943 958 l 1001 958 q 1022 938 1022 958 l 1064 0 l 1029 0 l 988 928 l 954 928 l 640 96 q 622 83 636 83 l 564 83 q 546 96 550 83 l 232 928 l 199 928 l 157 0 l 122 0 l 164 938 q 185 958 164 958 l 243 958 q 261 946 257 958 l 526 244 q 551 179 535 222 q 575 114 567 136 l 611 114 l 661 247 l 925 946 q 943 958 929 958 z "},"N":{"ha":956,"x_min":143,"x_max":813,"o":"m 813 958 l 813 21 q 792 0 813 0 l 733 0 q 708 15 717 0 l 264 833 q 238 880 256 849 q 213 928 221 911 l 178 928 l 178 832 l 178 0 l 143 0 l 143 938 q 164 958 143 958 l 218 958 q 243 943 236 958 l 678 143 l 739 31 l 778 31 l 778 156 l 778 958 l 813 958 z "},"O":{"ha":919,"x_min":106,"x_max":814,"o":"m 184 865 q 223 920 184 865 q 460 975 263 975 q 735 865 657 975 q 814 479 814 754 q 735 94 814 204 q 460 -17 657 -17 q 184 94 263 -17 q 106 479 106 204 q 184 865 106 754 m 708 840 q 673 892 708 840 q 460 943 638 943 q 212 840 282 943 q 142 479 142 738 q 212 118 142 221 q 460 15 282 15 q 708 118 638 15 q 778 479 778 221 q 708 840 778 738 z "},"P":{"ha":807,"x_min":143,"x_max":726,"o":"m 143 0 l 143 958 q 450 969 254 969 q 665 910 604 969 q 726 688 726 850 q 666 465 726 524 q 450 406 606 406 q 178 411 272 406 l 178 0 l 143 0 m 178 438 l 450 438 q 638 491 586 440 q 690 688 690 542 q 638 885 690 833 q 450 938 585 938 q 178 935 272 938 l 178 438 z "},"Q":{"ha":919,"x_min":106,"x_max":814,"o":"m 184 865 q 223 920 184 865 q 460 975 263 975 q 735 865 657 975 q 814 479 814 754 q 735 94 814 204 q 460 -17 657 -17 q 184 94 263 -17 q 106 479 106 204 q 184 865 106 754 m 708 840 q 673 892 708 840 q 460 943 638 943 q 212 840 282 943 q 142 479 142 738 q 212 118 142 221 q 460 15 282 15 q 708 118 638 15 q 778 479 778 221 q 708 840 778 738 m 397 -90 l 414 -71 q 725 -189 538 -158 l 715 -224 q 397 -90 526 -197 z "},"R":{"ha":843,"x_min":143,"x_max":761,"o":"m 761 0 l 722 0 l 619 303 q 463 431 575 431 q 178 436 272 431 l 178 0 l 143 0 l 143 958 q 450 969 254 969 q 666 913 606 969 q 726 700 726 857 q 685 515 726 572 q 550 444 644 458 l 550 439 q 656 307 617 418 l 761 0 m 178 463 l 450 463 q 638 515 585 465 q 690 700 690 564 q 638 888 690 839 q 450 938 585 938 q 178 935 272 938 l 178 463 z "},"S":{"ha":769,"x_min":92,"x_max":683,"o":"m 490 453 l 278 482 q 135 551 178 493 q 92 728 92 610 q 108 863 92 813 q 165 938 124 914 q 251 969 206 963 q 381 974 297 975 q 640 957 515 971 l 636 931 q 381 942 469 942 q 299 940 326 942 q 237 933 272 939 q 185 913 201 926 q 153 876 169 900 q 132 817 138 853 q 126 728 126 781 q 161 574 126 622 q 278 515 196 526 l 490 486 q 640 417 596 474 q 683 235 683 360 q 670 122 683 168 q 635 48 657 75 q 574 7 614 21 q 495 -11 535 -7 q 392 -15 456 -15 q 108 0 239 -15 l 113 26 q 393 17 257 15 q 513 25 469 18 q 589 55 556 32 q 635 121 622 78 q 649 235 649 164 q 613 394 649 347 q 490 453 578 442 z "},"T":{"ha":783,"x_min":38,"x_max":746,"o":"m 746 928 l 408 928 l 408 0 l 374 0 l 374 928 l 38 928 l 38 958 l 746 958 l 746 928 z "},"U":{"ha":926,"x_min":136,"x_max":790,"o":"m 790 958 l 790 354 q 716 68 790 153 q 464 -17 642 -17 q 210 68 285 -17 q 136 354 136 153 l 136 958 l 171 958 l 171 354 q 237 92 171 168 q 464 15 303 15 q 690 92 624 15 q 756 354 756 168 l 756 958 l 790 958 z "},"V":{"ha":822,"x_min":36,"x_max":786,"o":"m 786 958 l 458 13 q 440 0 453 0 l 382 0 q 364 13 369 0 l 36 958 l 74 958 l 357 133 q 392 31 374 88 l 431 31 q 465 135 453 100 l 749 958 l 786 958 z "},"W":{"ha":1292,"x_min":46,"x_max":1246,"o":"m 1246 958 l 992 14 q 972 0 988 0 l 914 0 q 894 15 899 0 l 690 821 l 663 928 l 629 928 l 601 821 l 397 15 q 378 0 393 0 l 319 0 q 300 14 304 0 l 46 958 l 82 958 l 304 126 l 329 31 l 368 31 l 392 125 l 600 943 q 619 958 604 958 l 672 958 q 692 943 688 958 l 900 126 q 912 79 904 111 q 924 31 919 47 l 963 31 l 988 125 l 1210 958 l 1246 958 z "},"X":{"ha":824,"x_min":53,"x_max":771,"o":"m 433 486 l 390 486 l 94 0 l 53 0 l 357 500 l 71 958 l 113 958 l 389 517 l 435 517 l 711 958 l 753 958 l 467 500 l 771 0 l 729 0 l 433 486 z "},"Y":{"ha":751,"x_min":31,"x_max":719,"o":"m 393 357 l 393 0 l 358 0 l 358 357 l 31 958 l 69 958 l 319 496 q 372 401 356 429 l 379 401 q 403 444 385 411 q 431 494 422 478 l 681 958 l 719 958 l 393 357 z "},"Z":{"ha":775,"x_min":72,"x_max":704,"o":"m 704 32 l 704 0 l 72 0 l 72 32 l 657 926 l 76 926 l 76 958 l 697 958 l 697 926 l 113 32 l 704 32 z "},"[":{"ha":433,"x_min":147,"x_max":364,"o":"m 364 1036 l 197 1036 q 181 1019 181 1036 l 181 -182 q 197 -199 181 -199 l 364 -199 l 364 -229 l 190 -229 q 160 -217 172 -229 q 147 -186 147 -206 l 147 1024 q 160 1054 147 1042 q 190 1067 172 1067 l 364 1067 l 364 1036 z "},"\\":{"ha":686,"x_min":53,"x_max":633,"o":"m 633 -82 l 599 -82 l 53 958 l 88 958 l 633 -82 z "},"]":{"ha":433,"x_min":69,"x_max":286,"o":"m 69 1067 l 243 1067 q 274 1054 261 1067 q 286 1024 286 1042 l 286 -186 q 274 -217 286 -206 q 243 -229 261 -229 l 69 -229 l 69 -199 l 236 -199 q 253 -182 253 -199 l 253 1019 q 236 1036 253 1036 l 69 1036 l 69 1067 z "},"^":{"ha":544,"x_min":42,"x_max":503,"o":"m 503 525 l 486 508 l 278 761 l 267 761 l 60 508 l 42 525 l 260 799 l 285 799 l 503 525 z "},"_":{"ha":818,"x_min":110,"x_max":708,"o":"m 708 -31 l 110 -31 l 110 0 l 708 0 l 708 -31 z "},"`":{"ha":385,"x_min":69,"x_max":301,"o":"m 301 782 l 282 764 l 69 960 l 94 983 l 301 782 z "},"a":{"ha":747,"x_min":92,"x_max":621,"o":"m 122 629 l 118 654 q 436 683 325 683 q 621 497 621 683 l 621 0 l 596 0 l 589 129 q 447 35 540 79 q 265 -8 354 -8 q 137 35 182 -8 q 92 160 92 79 l 92 246 q 133 362 92 321 q 251 403 175 403 l 588 403 l 588 497 q 435 651 588 651 q 122 629 297 651 m 126 246 l 126 160 q 265 25 126 28 q 435 65 342 24 q 588 163 528 106 l 588 375 l 251 369 q 126 246 126 367 z "},"b":{"ha":775,"x_min":128,"x_max":678,"o":"m 161 972 l 161 671 q 157 542 161 574 q 436 683 317 683 q 622 603 567 683 q 678 333 678 524 q 616 64 678 144 q 408 -17 554 -17 q 128 26 289 -17 l 128 972 l 161 972 m 161 513 l 161 50 q 408 15 288 15 q 589 88 535 15 q 643 333 643 160 q 596 579 643 507 q 436 651 549 651 q 312 619 374 651 q 161 513 250 586 z "},"c":{"ha":664,"x_min":96,"x_max":603,"o":"m 597 32 l 603 7 q 401 -17 499 -17 q 165 63 235 -17 q 96 333 96 142 q 165 604 96 525 q 400 683 233 683 q 588 660 511 683 l 579 635 q 406 651 514 651 q 192 583 253 651 q 131 333 131 515 q 192 83 131 151 q 406 15 253 15 q 597 32 515 15 z "},"d":{"ha":779,"x_min":99,"x_max":647,"o":"m 647 972 l 647 0 l 622 0 l 617 117 q 340 -17 467 -17 q 154 63 210 -17 q 99 333 99 143 q 154 603 99 524 q 340 683 210 683 q 618 614 458 683 q 614 743 614 650 l 614 972 l 647 972 m 614 149 l 614 585 q 340 651 447 651 q 181 579 228 651 q 133 333 133 507 q 181 88 133 160 q 340 15 228 15 q 466 46 404 15 q 614 149 528 76 z "},"e":{"ha":732,"x_min":96,"x_max":644,"o":"m 501 315 l 131 315 q 197 83 135 150 q 397 15 260 15 q 624 33 513 15 l 629 8 q 393 -17 549 -17 q 165 65 235 -17 q 96 336 96 146 q 161 605 96 526 q 382 683 226 683 q 644 494 640 683 q 614 359 647 403 q 501 315 581 315 m 131 346 l 501 346 q 587 382 561 346 q 610 492 613 418 q 552 613 608 574 q 383 651 496 651 q 189 583 246 651 q 131 346 132 514 z "},"f":{"ha":492,"x_min":49,"x_max":507,"o":"m 507 961 l 354 961 q 237 926 271 961 q 203 807 203 892 l 203 667 l 450 667 l 450 636 l 203 636 l 203 0 l 169 0 l 169 636 l 49 636 l 49 660 l 169 667 l 169 807 q 210 947 169 901 q 343 992 250 992 q 507 986 444 992 l 507 961 z "},"g":{"ha":757,"x_min":79,"x_max":717,"o":"m 713 642 l 569 638 q 638 476 638 588 q 576 322 638 371 q 374 272 514 272 q 203 301 265 272 q 162 230 171 267 q 178 163 153 193 q 261 121 203 132 l 529 74 q 644 19 614 58 q 674 -103 674 -21 q 607 -251 674 -208 q 381 -294 540 -294 q 147 -251 214 -294 q 79 -103 79 -208 q 97 15 79 -28 q 169 86 115 57 l 203 104 q 138 163 156 124 q 133 242 121 201 q 182 314 146 283 q 107 476 107 361 q 170 632 107 581 q 374 683 233 683 q 508 667 454 683 l 717 667 l 713 642 m 551 344 q 578 365 551 344 q 604 476 604 386 q 551 610 604 567 q 374 653 499 653 q 194 610 249 653 q 140 476 140 567 q 194 344 140 386 q 374 303 249 303 q 551 344 499 303 m 239 94 l 192 65 q 128 2 143 38 q 113 -103 113 -33 q 173 -227 113 -192 q 381 -262 233 -262 q 581 -226 522 -262 q 640 -103 640 -190 q 616 -1 640 -33 q 519 44 592 32 l 243 93 l 239 94 z "},"h":{"ha":790,"x_min":131,"x_max":664,"o":"m 167 972 l 167 674 q 160 544 167 592 q 485 683 346 683 q 664 501 664 683 l 664 0 l 631 0 l 631 497 q 478 651 631 651 q 337 619 407 651 q 164 515 267 588 l 164 0 l 131 0 l 131 972 l 167 972 z "},"i":{"ha":306,"x_min":129,"x_max":176,"o":"m 146 943 l 160 943 q 176 926 176 943 l 176 840 q 160 824 176 824 l 146 824 q 129 840 129 824 l 129 926 q 146 943 129 943 m 169 0 l 136 0 l 136 667 l 169 667 l 169 0 z "},"j":{"ha":306,"x_min":60,"x_max":176,"o":"m 146 943 l 160 943 q 176 926 176 943 l 176 840 q 160 824 176 824 l 146 824 q 129 840 129 824 l 129 926 q 146 943 129 943 m 169 667 l 169 -64 q 78 -292 169 -189 l 60 -278 q 136 -64 136 -176 l 136 667 l 169 667 z "},"k":{"ha":657,"x_min":131,"x_max":611,"o":"m 276 367 l 161 367 q 164 246 164 324 l 164 0 l 131 0 l 131 972 l 167 972 l 167 511 q 161 397 167 451 l 276 397 l 544 667 l 589 667 l 338 410 q 306 382 318 390 l 306 379 q 338 344 329 356 l 611 0 l 568 0 l 276 367 z "},"l":{"ha":375,"x_min":132,"x_max":361,"o":"m 165 972 l 165 133 q 194 51 165 79 q 276 22 224 22 l 357 22 l 361 0 q 272 -8 333 -8 q 170 28 208 -8 q 132 132 132 65 l 132 972 l 165 972 z "},"m":{"ha":1222,"x_min":132,"x_max":1096,"o":"m 157 667 l 161 544 q 458 683 319 683 q 628 546 607 683 q 924 683 785 683 q 1051 637 1007 683 q 1096 501 1096 590 l 1096 0 l 1063 0 l 1063 497 q 917 651 1063 651 q 788 619 851 651 q 631 515 725 588 l 631 501 l 631 0 l 597 0 l 597 497 q 451 651 597 651 q 323 619 386 651 q 165 515 260 588 l 165 0 l 132 0 l 132 667 l 157 667 z "},"n":{"ha":792,"x_min":132,"x_max":665,"o":"m 157 667 l 161 544 q 486 683 336 683 q 665 501 665 683 l 665 0 l 632 0 l 632 497 q 479 651 632 651 q 338 619 408 651 q 165 515 268 588 l 165 0 l 132 0 l 132 667 l 157 667 z "},"o":{"ha":778,"x_min":97,"x_max":681,"o":"m 163 605 q 195 644 163 605 q 389 683 228 683 q 615 605 550 683 q 681 333 681 526 q 615 62 681 140 q 389 -17 550 -17 q 163 62 228 -17 q 97 333 97 140 q 163 605 97 526 m 589 582 q 560 617 589 582 q 389 651 532 651 q 189 582 246 651 q 132 333 132 513 q 189 85 132 154 q 389 15 246 15 q 589 85 532 15 q 646 333 646 154 q 589 582 646 513 z "},"p":{"ha":779,"x_min":132,"x_max":681,"o":"m 157 667 l 163 546 q 439 683 311 683 q 625 603 569 683 q 681 333 681 524 q 625 63 681 143 q 439 -17 569 -17 q 161 57 315 -17 q 165 -71 165 22 l 165 -292 l 132 -292 l 132 667 l 157 667 m 165 517 l 165 82 q 439 15 332 15 q 599 88 551 15 q 646 333 646 160 q 599 579 646 507 q 439 651 551 651 q 313 620 375 651 q 165 517 250 589 z "},"q":{"ha":776,"x_min":97,"x_max":647,"o":"m 614 -292 l 614 -14 q 618 115 614 83 q 465 15 532 47 q 325 -17 399 -17 q 151 67 206 -17 q 97 333 97 151 q 160 604 97 525 q 372 683 222 683 q 647 640 486 683 l 647 -292 l 614 -292 m 614 144 l 614 617 q 378 651 483 651 q 187 581 242 651 q 132 332 132 511 q 178 89 132 163 q 331 15 225 15 q 461 45 400 15 q 614 144 522 75 z "},"r":{"ha":532,"x_min":132,"x_max":500,"o":"m 500 683 l 493 651 l 469 651 q 334 619 401 651 q 165 515 267 588 l 165 0 l 132 0 l 132 667 l 157 667 l 161 544 q 474 683 338 683 l 500 683 z "},"s":{"ha":693,"x_min":86,"x_max":607,"o":"m 456 307 l 231 335 q 122 383 158 343 q 86 507 86 424 q 140 655 86 624 q 332 683 194 686 q 590 667 469 681 l 586 642 q 332 653 453 651 q 251 653 279 654 q 194 644 224 651 q 151 622 164 638 q 128 578 138 606 q 119 507 119 550 q 147 405 119 436 q 231 367 175 374 l 456 339 q 607 169 607 319 q 591 69 607 107 q 538 14 575 32 q 458 -10 500 -4 q 344 -15 417 -15 q 103 0 214 -15 l 107 25 q 346 15 228 14 q 526 46 479 18 q 574 169 574 74 q 456 307 574 292 z "},"t":{"ha":482,"x_min":47,"x_max":449,"o":"m 201 636 l 201 133 q 313 22 201 22 l 435 22 l 439 0 q 321 -8 383 -8 q 168 132 168 -8 l 168 636 l 47 636 l 47 660 l 168 667 l 168 876 l 201 876 l 201 667 l 449 667 l 449 636 l 201 636 z "},"u":{"ha":778,"x_min":126,"x_max":646,"o":"m 646 667 l 646 0 l 621 0 l 617 122 q 306 -17 450 -17 q 126 165 126 -17 l 126 667 l 160 667 l 160 169 q 313 15 160 15 q 447 47 381 15 q 613 151 514 79 l 613 667 l 646 667 z "},"v":{"ha":704,"x_min":42,"x_max":663,"o":"m 663 667 l 389 11 q 371 0 382 0 l 333 0 q 315 11 322 0 l 42 667 l 78 667 l 290 157 q 317 94 300 136 q 343 31 333 51 l 361 31 l 415 158 l 626 667 l 663 667 z "},"w":{"ha":1128,"x_min":47,"x_max":1081,"o":"m 1081 667 l 849 13 q 831 0 844 0 l 794 0 q 776 13 782 0 l 603 536 q 587 586 597 553 q 571 636 576 619 l 557 636 l 524 536 l 351 13 q 333 0 346 0 l 297 0 q 279 13 283 0 l 47 667 l 83 667 l 275 119 q 290 74 281 104 q 306 31 300 44 l 325 31 l 354 121 l 529 654 q 547 667 535 667 l 581 667 q 599 654 593 667 l 774 121 l 803 31 l 822 31 q 838 76 828 46 q 853 121 847 106 l 1044 667 l 1081 667 z "},"x":{"ha":701,"x_min":50,"x_max":651,"o":"m 367 333 l 335 333 l 92 0 l 50 0 l 303 347 l 68 667 l 110 667 l 332 364 l 369 364 l 592 667 l 633 667 l 399 347 l 651 0 l 610 0 l 367 333 z "},"y":{"ha":703,"x_min":42,"x_max":663,"o":"m 663 667 l 356 -65 q 269 -214 315 -160 q 140 -292 222 -268 l 132 -272 q 251 -190 208 -243 q 326 -53 294 -136 l 347 0 l 333 0 q 315 11 322 0 l 42 667 l 78 667 l 313 103 l 343 31 l 361 31 l 392 106 l 626 667 l 663 667 z "},"z":{"ha":693,"x_min":74,"x_max":619,"o":"m 619 31 l 619 0 l 74 0 l 74 31 l 572 636 l 78 636 l 78 667 l 615 667 l 615 636 l 117 31 l 619 31 z "},"{":{"ha":414,"x_min":78,"x_max":350,"o":"m 344 1067 l 344 1042 q 233 1006 264 1042 q 201 892 201 969 l 201 607 q 181 498 201 525 q 96 456 161 471 q 185 406 164 432 q 207 310 207 381 l 207 -54 q 238 -167 207 -131 q 350 -204 269 -204 l 350 -229 q 214 -188 254 -229 q 174 -54 174 -147 l 174 324 q 169 370 174 353 q 149 400 165 388 q 123 417 133 413 q 78 435 113 422 l 78 476 q 117 488 110 486 q 140 499 124 490 q 159 519 157 508 q 165 547 161 529 q 168 593 168 564 l 168 892 q 208 1026 168 985 q 344 1067 249 1067 z "},"|":{"ha":325,"x_min":147,"x_max":178,"o":"m 178 -235 l 147 -235 l 147 1085 l 178 1085 l 178 -235 z "},"}":{"ha":414,"x_min":64,"x_max":336,"o":"m 69 1042 l 69 1067 q 206 1026 165 1067 q 246 892 246 985 l 246 593 q 260 510 246 526 q 336 476 275 494 l 336 435 q 291 417 301 422 q 265 400 281 413 q 244 370 249 388 q 240 324 240 353 l 240 -54 q 200 -188 240 -147 q 64 -229 160 -229 l 64 -204 q 176 -167 144 -204 q 207 -54 207 -131 l 207 310 q 228 406 207 381 q 318 456 250 432 q 233 498 253 471 q 213 607 213 525 l 213 892 q 181 1006 213 969 q 69 1042 150 1042 z "},"~":{"ha":740,"x_min":121,"x_max":621,"o":"m 144 335 l 121 335 q 147 430 119 397 q 225 458 175 463 q 371 411 286 456 q 517 364 456 367 q 578 382 560 361 q 597 451 597 403 l 621 451 q 594 360 622 392 q 517 333 567 329 q 358 381 442 338 q 225 428 275 425 q 164 409 183 432 q 144 335 144 386 z "}," ":{"ha":319,"x_min":0,"x_max":0,"o":""},"¡":{"ha":324,"x_min":139,"x_max":186,"o":"m 156 667 l 169 667 q 186 650 186 667 l 186 564 q 169 547 186 547 l 156 547 q 139 564 139 547 l 139 650 q 156 667 139 667 m 179 175 l 179 -285 l 144 -285 l 144 175 l 147 385 l 176 385 l 179 175 z "},"¢":{"ha":700,"x_min":96,"x_max":603,"o":"m 597 185 l 603 160 q 401 136 499 136 l 375 136 l 365 0 l 336 0 l 346 139 q 153 230 211 150 q 96 486 96 310 q 164 756 96 676 q 394 836 232 835 l 403 958 l 432 958 l 424 836 q 588 813 519 833 l 579 788 q 421 804 526 801 l 378 168 l 406 168 q 597 185 515 168 m 349 171 l 392 804 q 189 733 247 801 q 131 486 131 664 q 180 252 131 322 q 349 171 229 182 z "},"£":{"ha":778,"x_min":90,"x_max":696,"o":"m 696 31 l 696 0 l 100 0 l 100 31 q 194 149 169 75 q 213 338 218 224 l 206 490 l 90 490 l 90 518 l 204 518 l 194 732 q 207 862 190 811 q 261 935 224 913 q 339 966 299 958 q 444 974 379 974 q 661 960 538 974 l 657 935 q 413 943 554 943 q 265 895 306 943 q 228 736 224 847 l 238 518 l 586 518 l 583 490 l 239 490 l 246 338 q 231 149 250 224 q 144 31 211 74 l 228 31 l 696 31 z "},"¤":{"ha":836,"x_min":115,"x_max":719,"o":"m 699 188 l 593 293 q 417 225 521 225 q 239 292 314 225 l 136 188 l 115 207 l 219 311 q 151 489 151 389 q 219 667 151 592 l 117 769 l 136 790 l 239 688 q 417 754 314 754 q 594 686 517 754 l 699 790 l 718 769 l 614 667 q 681 489 681 592 q 613 313 681 388 l 719 207 l 699 188 m 417 253 q 583 321 514 251 q 651 489 651 390 q 583 657 651 588 q 417 726 514 726 q 250 657 319 726 q 181 489 181 588 q 250 321 181 390 q 417 253 319 251 z "},"¥":{"ha":836,"x_min":72,"x_max":761,"o":"m 450 425 l 710 425 l 710 397 l 435 397 l 435 272 l 710 272 l 710 244 l 435 244 l 435 0 l 400 0 l 400 244 l 132 244 l 132 272 l 400 272 l 400 397 l 132 397 l 132 425 l 385 425 l 72 958 l 111 958 l 357 538 l 414 442 l 421 442 q 476 536 469 524 l 722 958 l 761 958 l 450 425 z "},"¦":{"ha":328,"x_min":149,"x_max":179,"o":"m 179 529 l 149 529 l 149 1085 l 179 1085 l 179 529 m 179 -235 l 149 -235 l 149 321 l 179 321 l 179 -235 z "},"§":{"ha":754,"x_min":103,"x_max":651,"o":"m 514 465 l 247 618 q 135 710 167 664 q 103 824 103 757 q 162 947 103 917 q 349 975 221 976 q 649 958 519 972 l 644 933 q 349 944 482 943 q 278 944 304 944 q 222 937 253 943 q 176 918 192 931 q 149 882 160 906 q 138 824 138 858 q 247 656 138 718 l 514 504 q 623 385 599 456 q 635 197 647 315 l 604 197 q 514 465 628 400 m 119 578 l 150 578 q 158 413 138 476 q 240 314 178 350 l 508 163 q 619 71 586 118 q 651 -44 651 24 q 638 -119 651 -89 q 605 -166 624 -150 q 550 -190 586 -182 q 485 -199 514 -197 q 406 -200 456 -200 q 106 -183 269 -199 l 110 -158 q 406 -169 296 -168 q 474 -169 451 -169 q 530 -162 497 -168 q 578 -144 563 -157 q 605 -106 593 -131 q 617 -44 617 -82 q 507 125 617 64 l 242 275 q 132 392 157 322 q 119 578 107 461 z "},"¨":{"ha":554,"x_min":133,"x_max":421,"o":"m 147 935 l 161 935 q 175 919 175 935 l 175 842 q 161 826 175 826 l 147 826 q 133 842 133 826 l 133 919 q 147 935 133 935 m 393 935 l 407 935 q 421 919 421 935 l 421 842 q 407 826 421 826 l 393 826 q 379 842 379 826 l 379 919 q 393 935 379 935 z "},"©":{"ha":1192,"x_min":100,"x_max":1092,"o":"m 244 834 q 316 905 244 834 q 596 975 388 975 q 948 834 804 975 q 1092 479 1092 693 q 948 124 1092 265 q 596 -17 804 -17 q 244 124 388 -17 q 100 479 100 265 q 244 834 100 693 m 926 813 q 858 879 926 813 q 596 946 790 946 q 265 813 401 946 q 129 479 129 679 q 265 146 129 279 q 596 13 401 13 q 926 146 790 13 q 1063 479 1063 279 q 926 813 1063 679 m 797 200 l 803 178 q 603 161 719 161 q 392 233 453 161 q 332 483 332 306 q 392 733 332 661 q 603 806 453 806 q 788 789 715 806 l 781 768 q 603 776 708 776 q 416 712 469 776 q 363 483 363 647 q 416 254 363 319 q 603 189 469 189 q 797 200 724 189 z "},"ª":{"ha":617,"x_min":110,"x_max":493,"o":"m 133 792 l 129 814 q 358 833 278 833 q 493 706 493 833 l 493 375 l 469 375 l 464 463 q 363 399 428 428 q 235 369 299 369 q 142 399 175 369 q 110 483 110 428 l 110 540 q 140 618 110 590 q 226 646 171 646 l 463 646 l 463 706 q 356 806 463 806 q 133 792 249 806 m 142 540 l 142 485 q 239 397 142 400 q 357 422 293 396 q 463 486 421 449 l 463 624 l 229 619 q 142 540 142 617 z "},"«":{"ha":628,"x_min":71,"x_max":535,"o":"m 314 617 l 108 349 l 315 78 l 299 64 l 71 343 l 71 354 l 297 631 l 314 617 m 533 617 l 328 349 l 535 78 l 518 64 l 290 343 l 290 354 l 517 631 l 533 617 z "},"¬":{"ha":824,"x_min":119,"x_max":699,"o":"m 699 426 l 699 179 l 667 179 l 667 396 l 119 396 l 119 426 l 699 426 z "},"­":{"ha":671,"x_min":119,"x_max":551,"o":"m 551 333 l 119 333 l 119 364 l 551 364 l 551 333 z "},"®":{"ha":807,"x_min":94,"x_max":713,"o":"m 404 974 q 622 883 532 974 q 713 665 713 793 q 622 446 713 536 q 404 356 532 356 q 185 446 275 356 q 94 665 94 536 q 185 883 94 793 q 404 974 275 974 m 404 378 q 604 462 521 378 q 688 665 688 546 q 604 867 688 783 q 404 951 521 951 q 203 867 286 951 q 119 665 119 783 q 203 462 119 546 q 404 378 286 378 m 472 649 l 472 646 q 526 592 508 639 l 578 467 l 550 467 l 500 589 q 425 640 479 640 q 343 641 389 640 q 289 642 297 642 l 289 467 l 264 467 l 264 860 q 419 864 314 864 q 530 840 499 864 q 561 753 561 817 q 540 679 561 703 q 472 649 519 656 m 289 660 l 419 660 q 510 681 485 661 q 536 751 536 700 q 510 824 536 806 q 419 842 485 842 q 289 840 315 842 l 289 660 z "},"¯":{"ha":556,"x_min":97,"x_max":458,"o":"m 458 868 l 97 868 l 97 900 l 458 900 l 458 868 z "},"°":{"ha":532,"x_min":94,"x_max":438,"o":"m 267 975 q 387 924 336 975 q 438 804 438 874 q 387 683 438 733 q 267 632 336 632 q 145 683 196 632 q 94 804 94 733 q 145 924 94 874 q 267 975 196 975 m 368 906 q 347 926 368 906 q 267 947 326 947 q 165 906 207 947 q 122 804 122 864 q 165 703 122 746 q 267 660 207 660 q 367 703 325 660 q 410 804 410 746 q 368 906 410 864 z "},"±":{"ha":832,"x_min":126,"x_max":706,"o":"m 706 497 l 706 467 l 431 467 l 431 263 l 401 263 l 401 467 l 126 467 l 126 497 l 400 497 l 400 701 l 432 701 l 432 497 l 706 497 m 126 161 l 706 161 l 706 131 l 126 131 l 126 161 z "},"²":{"ha":613,"x_min":101,"x_max":508,"o":"m 113 1040 l 107 1063 q 292 1085 208 1085 q 435 1062 390 1085 q 479 968 479 1039 q 450 863 479 913 q 351 743 421 814 l 139 526 l 250 526 l 508 526 l 508 500 l 101 500 l 101 517 q 107 532 101 524 l 326 756 q 420 874 392 825 q 447 972 449 924 q 424 1029 446 1010 q 374 1053 403 1049 q 294 1058 346 1058 q 113 1040 206 1058 z "},"³":{"ha":589,"x_min":101,"x_max":488,"o":"m 117 1049 l 111 1071 q 276 1085 194 1085 q 429 1056 386 1085 q 472 953 472 1028 q 368 807 472 825 l 368 804 q 488 660 485 788 q 445 531 490 572 q 293 490 400 490 q 101 504 224 490 l 107 526 q 290 517 201 517 q 418 550 379 517 q 457 661 457 583 q 424 756 457 721 q 301 793 390 792 l 182 793 l 182 814 l 301 817 q 378 831 347 818 q 422 865 408 843 q 439 906 435 886 q 443 949 443 925 q 406 1035 442 1013 q 276 1058 371 1058 q 117 1049 192 1058 z "},"´":{"ha":385,"x_min":83,"x_max":315,"o":"m 315 960 l 103 764 l 83 782 l 290 983 l 315 960 z "},"¶":{"ha":829,"x_min":75,"x_max":678,"o":"m 397 -292 l 397 279 q 150 375 225 294 q 75 625 75 456 q 170 896 75 817 q 490 975 265 975 q 678 951 601 975 l 678 0 l 643 0 l 643 931 q 432 943 544 943 l 432 -292 l 397 -292 z "},"·":{"ha":286,"x_min":119,"x_max":167,"o":"m 136 417 l 150 417 q 167 400 167 417 l 167 314 q 150 297 167 297 l 136 297 q 119 314 119 297 l 119 400 q 136 417 119 417 z "},"¸":{"ha":304,"x_min":58,"x_max":251,"o":"m 139 -87 l 143 -68 q 225 -87 197 -65 q 251 -158 253 -110 q 197 -273 250 -231 q 58 -304 144 -315 l 64 -283 q 178 -249 135 -286 q 221 -158 221 -212 q 203 -104 221 -119 q 139 -87 185 -89 z "},"¹":{"ha":397,"x_min":67,"x_max":271,"o":"m 271 500 l 242 500 l 242 1004 q 244 1046 242 1032 l 72 994 l 67 1014 l 242 1075 l 271 1075 l 271 500 z "},"º":{"ha":624,"x_min":104,"x_max":519,"o":"m 311 833 q 473 781 426 833 q 519 599 519 728 q 473 417 519 469 q 311 364 426 364 q 151 417 197 364 q 104 599 104 469 q 151 781 104 728 q 311 833 197 833 m 447 762 q 428 784 447 762 q 311 807 408 807 q 175 762 214 807 q 136 599 136 717 q 175 437 136 482 q 311 392 214 392 q 447 437 408 392 q 486 599 486 482 q 447 762 486 717 z "},"»":{"ha":628,"x_min":93,"x_max":557,"o":"m 338 354 l 338 343 l 110 64 l 93 78 l 300 349 l 94 617 l 111 631 l 338 354 m 557 354 l 557 343 l 329 64 l 313 78 l 519 349 l 314 617 l 331 631 l 557 354 z "},"¼":{"ha":1167,"x_min":75,"x_max":1094,"o":"m 250 383 l 250 888 q 253 929 250 915 l 81 878 l 75 897 l 250 958 l 279 958 l 279 383 l 250 383 m 875 958 l 208 0 l 175 0 l 842 958 l 875 958 m 1094 164 l 1032 161 l 1032 0 l 1003 0 l 1003 160 l 686 160 q 642 181 657 160 q 642 226 628 203 l 847 575 l 879 575 l 672 225 q 673 197 664 210 q 700 185 682 185 l 1003 185 l 1003 369 l 1010 467 l 1032 467 l 1032 185 l 1094 185 l 1094 164 z "},"½":{"ha":1210,"x_min":75,"x_max":1128,"o":"m 279 383 l 250 383 l 250 888 q 253 929 250 915 l 81 878 l 75 897 l 250 958 l 279 958 l 279 383 m 208 0 l 175 0 l 842 958 l 875 958 l 208 0 m 732 540 l 726 563 q 911 585 828 585 q 1054 562 1010 585 q 1099 468 1099 539 q 1069 363 1099 413 q 971 243 1040 314 l 758 26 l 869 26 l 1128 26 l 1128 0 l 721 0 l 721 17 q 726 32 721 24 l 946 256 q 1040 374 1011 325 q 1067 472 1068 424 q 1044 529 1065 510 q 994 553 1022 549 q 914 558 965 558 q 732 540 825 558 z "},"¾":{"ha":1292,"x_min":94,"x_max":1218,"o":"m 361 688 l 361 685 q 481 540 478 668 q 438 412 483 453 q 286 371 393 371 q 94 385 217 371 l 100 407 q 283 397 194 397 q 411 431 372 397 q 450 542 450 464 q 417 637 450 601 q 294 674 383 672 l 175 674 l 175 694 l 294 697 q 371 711 340 699 q 415 745 401 724 q 432 786 428 767 q 436 829 436 806 q 399 916 435 893 q 269 939 364 939 q 110 929 185 939 l 104 951 q 269 965 188 965 q 422 937 379 965 q 465 833 465 908 q 361 688 465 706 m 1019 958 l 353 0 l 319 0 l 986 958 l 1019 958 m 1218 164 l 1142 160 l 1142 0 l 1113 0 l 1113 160 l 810 160 q 766 181 781 160 q 765 226 751 203 l 971 575 l 1003 575 l 796 225 q 797 197 788 210 q 824 185 806 185 l 1113 185 l 1113 369 l 1119 467 l 1142 467 l 1142 185 l 1218 185 l 1218 164 z "},"¿":{"ha":700,"x_min":78,"x_max":632,"o":"m 353 681 l 367 681 q 383 664 383 681 l 383 578 q 367 561 383 561 l 353 561 q 336 578 336 561 l 336 664 q 353 681 336 681 m 342 399 l 375 399 q 348 264 375 324 q 283 165 321 204 q 206 89 244 125 q 140 7 167 53 q 113 -93 113 -39 q 170 -233 113 -187 q 350 -278 228 -278 q 625 -258 481 -278 l 632 -283 q 592 -290 619 -285 q 552 -296 564 -294 q 515 -301 540 -297 q 470 -306 490 -304 q 419 -308 450 -307 q 350 -308 388 -308 q 78 -93 78 -308 q 105 15 78 -35 q 171 102 132 64 q 249 179 210 140 q 315 274 288 218 q 342 399 342 331 z "},"À":{"ha":838,"x_min":26,"x_max":811,"o":"m 454 1022 l 242 1218 l 267 1242 l 474 1040 l 454 1022 m 647 350 l 190 350 l 64 0 l 26 0 l 371 946 q 389 958 375 958 l 449 958 q 467 946 463 958 l 811 0 l 774 0 l 647 350 m 636 381 l 467 850 l 439 928 l 399 928 l 371 850 l 201 381 l 636 381 z "},"Á":{"ha":838,"x_min":26,"x_max":811,"o":"m 372 1022 l 353 1040 l 560 1242 l 585 1218 l 372 1022 m 647 350 l 190 350 l 64 0 l 26 0 l 371 946 q 389 958 375 958 l 449 958 q 467 946 463 958 l 811 0 l 774 0 l 647 350 m 636 381 l 467 850 l 439 928 l 399 928 l 371 850 l 201 381 l 636 381 z "},"Â":{"ha":838,"x_min":26,"x_max":811,"o":"m 233 1043 l 217 1060 l 406 1222 l 431 1222 l 619 1060 l 604 1043 l 424 1185 l 413 1185 l 233 1043 m 647 350 l 190 350 l 64 0 l 26 0 l 371 946 q 389 958 375 958 l 449 958 q 467 946 463 958 l 811 0 l 774 0 l 647 350 m 636 381 l 467 850 l 439 928 l 399 928 l 371 850 l 201 381 l 636 381 z "},"Ã":{"ha":838,"x_min":26,"x_max":811,"o":"m 242 1079 l 218 1079 q 244 1174 217 1142 q 322 1203 272 1207 q 419 1156 364 1200 q 517 1108 475 1113 q 578 1126 560 1106 q 597 1196 597 1147 l 621 1196 q 594 1105 622 1136 q 517 1078 567 1074 q 410 1126 467 1082 q 322 1172 354 1169 q 261 1153 281 1176 q 242 1079 242 1131 m 647 350 l 190 350 l 64 0 l 26 0 l 371 946 q 389 958 375 958 l 449 958 q 467 946 463 958 l 811 0 l 774 0 l 647 350 m 636 381 l 467 850 l 439 928 l 399 928 l 371 850 l 201 381 l 636 381 z "},"Ä":{"ha":838,"x_min":26,"x_max":811,"o":"m 303 1081 l 289 1081 q 275 1096 275 1081 l 275 1174 q 289 1189 275 1189 l 303 1189 q 317 1174 317 1189 l 317 1096 q 303 1081 317 1081 m 549 1081 l 535 1081 q 521 1096 521 1081 l 521 1174 q 535 1189 521 1189 l 549 1189 q 563 1174 563 1189 l 563 1096 q 549 1081 563 1081 m 647 350 l 190 350 l 64 0 l 26 0 l 371 946 q 389 958 375 958 l 449 958 q 467 946 463 958 l 811 0 l 774 0 l 647 350 m 636 381 l 467 850 l 439 928 l 399 928 l 371 850 l 201 381 l 636 381 z "},"Å":{"ha":838,"x_min":26,"x_max":811,"o":"m 514 1037 q 494 1018 514 1037 q 419 999 475 999 q 325 1037 364 999 q 286 1131 286 1075 q 325 1224 286 1185 q 419 1263 364 1263 q 514 1224 475 1263 q 553 1131 553 1185 q 514 1037 553 1075 m 494 1206 q 479 1221 494 1206 q 419 1236 464 1236 q 345 1206 375 1236 q 315 1131 315 1175 q 345 1055 315 1085 q 419 1025 375 1025 q 494 1055 464 1025 q 524 1131 524 1085 q 494 1206 524 1175 m 647 350 l 190 350 l 64 0 l 26 0 l 371 946 q 389 958 375 958 l 449 958 q 467 946 463 958 l 811 0 l 774 0 l 647 350 m 636 381 l 467 850 l 439 928 l 399 928 l 371 850 l 201 381 l 636 381 z "},"Æ":{"ha":1258,"x_min":15,"x_max":1176,"o":"m 1176 928 l 803 928 q 719 897 750 928 q 689 814 689 867 l 689 528 l 1117 528 l 1117 499 l 689 499 l 689 144 q 721 63 689 94 q 803 31 753 31 l 1176 31 l 1176 6 q 796 0 1049 0 q 694 40 735 0 q 654 142 654 81 l 654 378 l 306 378 l 57 0 l 15 0 l 569 840 q 669 935 617 911 q 799 958 722 958 q 1176 953 1042 958 l 1176 928 m 654 408 l 654 815 q 672 880 654 847 q 711 922 689 913 l 703 922 q 597 822 647 900 l 325 408 l 654 408 z "},"Ç":{"ha":779,"x_min":106,"x_max":721,"o":"m 713 33 l 721 8 q 460 -17 611 -17 q 184 94 263 -17 q 106 479 106 204 q 184 865 106 754 q 460 975 263 975 q 701 951 599 975 l 693 926 q 460 943 589 943 q 212 840 282 943 q 142 479 142 738 q 212 118 142 221 q 460 15 282 15 q 713 33 608 15 m 415 -104 l 419 -85 q 501 -104 474 -82 q 528 -175 529 -126 q 474 -290 526 -247 q 335 -321 421 -332 l 340 -300 q 454 -266 411 -303 q 497 -175 497 -229 q 479 -121 497 -136 q 415 -104 461 -106 z "},"È":{"ha":765,"x_min":135,"x_max":685,"o":"m 465 1057 l 253 1253 l 278 1276 l 485 1075 l 465 1057 m 682 31 l 685 6 q 276 0 549 0 q 175 40 215 0 q 135 142 135 81 l 135 817 q 175 918 135 878 q 276 958 215 958 q 685 953 549 958 l 682 928 l 283 928 q 201 896 233 928 q 169 814 169 864 l 169 528 l 625 528 l 625 499 l 169 499 l 169 144 q 201 63 169 94 q 283 31 233 31 l 682 31 z "},"É":{"ha":765,"x_min":135,"x_max":685,"o":"m 383 1057 l 364 1075 l 571 1276 l 596 1253 l 383 1057 m 682 31 l 685 6 q 276 0 549 0 q 175 40 215 0 q 135 142 135 81 l 135 817 q 175 918 135 878 q 276 958 215 958 q 685 953 549 958 l 682 928 l 283 928 q 201 896 233 928 q 169 814 169 864 l 169 528 l 625 528 l 625 499 l 169 499 l 169 144 q 201 63 169 94 q 283 31 233 31 l 682 31 z "},"Ê":{"ha":765,"x_min":135,"x_max":685,"o":"m 244 1078 l 228 1094 l 417 1257 l 442 1257 l 631 1094 l 615 1078 l 435 1219 l 424 1219 l 244 1078 m 682 31 l 685 6 q 276 0 549 0 q 175 40 215 0 q 135 142 135 81 l 135 817 q 175 918 135 878 q 276 958 215 958 q 685 953 549 958 l 682 928 l 283 928 q 201 896 233 928 q 169 814 169 864 l 169 528 l 625 528 l 625 499 l 169 499 l 169 144 q 201 63 169 94 q 283 31 233 31 l 682 31 z "},"Ë":{"ha":765,"x_min":135,"x_max":685,"o":"m 314 1115 l 300 1115 q 286 1131 286 1115 l 286 1208 q 300 1224 286 1224 l 314 1224 q 328 1208 328 1224 l 328 1131 q 314 1115 328 1115 m 560 1115 l 546 1115 q 532 1131 532 1115 l 532 1208 q 546 1224 532 1224 l 560 1224 q 574 1208 574 1224 l 574 1131 q 560 1115 574 1115 m 682 31 l 685 6 q 276 0 549 0 q 175 40 215 0 q 135 142 135 81 l 135 817 q 175 918 135 878 q 276 958 215 958 q 685 953 549 958 l 682 928 l 283 928 q 201 896 233 928 q 169 814 169 864 l 169 528 l 625 528 l 625 499 l 169 499 l 169 144 q 201 63 169 94 q 283 31 233 31 l 682 31 z "},"Ì":{"ha":321,"x_min":-18,"x_max":214,"o":"m 214 1040 l 194 1022 l -18 1218 l 7 1242 l 214 1040 m 178 0 l 143 0 l 143 958 l 178 958 l 178 0 z "},"Í":{"ha":321,"x_min":93,"x_max":325,"o":"m 325 1218 l 113 1022 l 93 1040 l 300 1242 l 325 1218 m 178 0 l 143 0 l 143 958 l 178 958 l 178 0 z "},"Î":{"ha":321,"x_min":-43,"x_max":360,"o":"m 360 1060 l 344 1043 l 164 1185 l 153 1185 l -26 1043 l -43 1060 l 146 1222 l 171 1222 l 360 1060 m 178 0 l 143 0 l 143 958 l 178 958 l 178 0 z "},"Ï":{"ha":321,"x_min":15,"x_max":303,"o":"m 29 1189 l 43 1189 q 57 1174 57 1189 l 57 1096 q 43 1081 57 1081 l 29 1081 q 15 1096 15 1081 l 15 1174 q 29 1189 15 1189 m 275 1189 l 289 1189 q 303 1174 303 1189 l 303 1096 q 289 1081 303 1081 l 275 1081 q 261 1096 261 1081 l 261 1174 q 275 1189 261 1189 m 178 0 l 143 0 l 143 958 l 178 958 l 178 0 z "},"Ð":{"ha":919,"x_min":36,"x_max":814,"o":"m 147 529 l 147 958 q 465 971 313 971 q 736 860 658 971 q 814 479 814 750 q 736 98 814 208 q 465 -12 658 -12 q 147 0 315 -12 l 147 501 l 36 501 l 36 529 l 147 529 m 182 501 l 182 24 q 465 19 432 19 q 708 122 639 19 q 778 479 778 224 q 708 837 778 735 q 465 939 639 939 q 182 933 351 939 l 182 529 l 436 529 l 436 501 l 182 501 z "},"Ñ":{"ha":956,"x_min":143,"x_max":813,"o":"m 319 1079 l 296 1079 q 322 1174 294 1142 q 400 1203 350 1207 q 466 1178 435 1200 q 528 1133 497 1156 q 594 1108 560 1111 q 656 1126 638 1106 q 675 1196 675 1147 l 699 1196 q 672 1105 700 1136 q 594 1078 644 1074 q 488 1126 544 1082 q 400 1172 432 1169 q 339 1153 358 1176 q 319 1079 319 1131 m 813 958 l 813 21 q 792 0 813 0 l 733 0 q 708 15 717 0 l 264 833 q 238 880 256 849 q 213 928 221 911 l 178 928 l 178 832 l 178 0 l 143 0 l 143 938 q 164 958 143 958 l 218 958 q 243 943 236 958 l 678 143 l 739 31 l 778 31 l 778 156 l 778 958 l 813 958 z "},"Ò":{"ha":919,"x_min":106,"x_max":814,"o":"m 515 1040 l 496 1022 l 283 1218 l 308 1242 l 515 1040 m 184 865 q 223 920 184 865 q 460 975 263 975 q 735 865 657 975 q 814 479 814 754 q 735 94 814 204 q 460 -17 657 -17 q 184 94 263 -17 q 106 479 106 204 q 184 865 106 754 m 708 840 q 673 892 708 840 q 460 943 638 943 q 212 840 282 943 q 142 479 142 738 q 212 118 142 221 q 460 15 282 15 q 708 118 638 15 q 778 479 778 221 q 708 840 778 738 z "},"Ó":{"ha":919,"x_min":106,"x_max":814,"o":"m 626 1218 l 414 1022 l 394 1040 l 601 1242 l 626 1218 m 184 865 q 223 920 184 865 q 460 975 263 975 q 735 865 657 975 q 814 479 814 754 q 735 94 814 204 q 460 -17 657 -17 q 184 94 263 -17 q 106 479 106 204 q 184 865 106 754 m 708 840 q 673 892 708 840 q 460 943 638 943 q 212 840 282 943 q 142 479 142 738 q 212 118 142 221 q 460 15 282 15 q 708 118 638 15 q 778 479 778 221 q 708 840 778 738 z "},"Ô":{"ha":919,"x_min":106,"x_max":814,"o":"m 661 1060 l 646 1043 l 465 1185 l 454 1185 l 275 1043 l 258 1060 l 447 1222 l 472 1222 l 661 1060 m 184 865 q 223 920 184 865 q 460 975 263 975 q 735 865 657 975 q 814 479 814 754 q 735 94 814 204 q 460 -17 657 -17 q 184 94 263 -17 q 106 479 106 204 q 184 865 106 754 m 708 840 q 673 892 708 840 q 460 943 638 943 q 212 840 282 943 q 142 479 142 738 q 212 118 142 221 q 460 15 282 15 q 708 118 638 15 q 778 479 778 221 q 708 840 778 738 z "},"Õ":{"ha":919,"x_min":106,"x_max":814,"o":"m 283 1079 l 260 1079 q 286 1174 258 1142 q 364 1203 314 1207 q 461 1156 406 1200 q 558 1108 517 1113 q 620 1126 601 1106 q 639 1196 639 1147 l 663 1196 q 636 1105 664 1136 q 558 1078 608 1074 q 452 1126 508 1082 q 364 1172 396 1169 q 303 1153 322 1176 q 283 1079 283 1131 m 184 865 q 223 920 184 865 q 460 975 263 975 q 735 865 657 975 q 814 479 814 754 q 735 94 814 204 q 460 -17 657 -17 q 184 94 263 -17 q 106 479 106 204 q 184 865 106 754 m 708 840 q 673 892 708 840 q 460 943 638 943 q 212 840 282 943 q 142 479 142 738 q 212 118 142 221 q 460 15 282 15 q 708 118 638 15 q 778 479 778 221 q 708 840 778 738 z "},"Ö":{"ha":919,"x_min":106,"x_max":814,"o":"m 331 1189 l 344 1189 q 358 1174 358 1189 l 358 1096 q 344 1081 358 1081 l 331 1081 q 317 1096 317 1081 l 317 1174 q 331 1189 317 1189 m 576 1189 l 590 1189 q 604 1174 604 1189 l 604 1096 q 590 1081 604 1081 l 576 1081 q 563 1096 563 1081 l 563 1174 q 576 1189 563 1189 m 184 865 q 223 920 184 865 q 460 975 263 975 q 735 865 657 975 q 814 479 814 754 q 735 94 814 204 q 460 -17 657 -17 q 184 94 263 -17 q 106 479 106 204 q 184 865 106 754 m 708 840 q 673 892 708 840 q 460 943 638 943 q 212 840 282 943 q 142 479 142 738 q 212 118 142 221 q 460 15 282 15 q 708 118 638 15 q 778 479 778 221 q 708 840 778 738 z "},"×":{"ha":678,"x_min":90,"x_max":596,"o":"m 90 193 l 110 169 l 596 607 l 576 629 l 90 193 z "},"Ø":{"ha":919,"x_min":106,"x_max":814,"o":"m 717 1015 l 674 924 q 781 768 749 875 q 814 479 814 661 q 735 94 814 204 q 460 -17 657 -17 q 254 29 328 -17 l 207 -71 l 178 -57 l 226 49 q 106 479 106 149 q 184 865 106 754 q 460 975 263 975 q 646 940 575 975 l 688 1029 l 717 1015 m 243 82 l 631 908 q 460 943 565 943 q 212 840 282 943 q 142 479 142 738 q 243 82 142 178 m 658 892 l 269 61 q 460 15 338 15 q 708 118 638 15 q 778 479 778 221 q 750 745 778 646 q 658 892 722 844 z "},"Ù":{"ha":926,"x_min":136,"x_max":790,"o":"m 519 1040 l 500 1022 l 288 1218 l 313 1242 l 519 1040 m 790 958 l 790 354 q 716 68 790 153 q 464 -17 642 -17 q 210 68 285 -17 q 136 354 136 153 l 136 958 l 171 958 l 171 354 q 237 92 171 168 q 464 15 303 15 q 690 92 624 15 q 756 354 756 168 l 756 958 l 790 958 z "},"Ú":{"ha":926,"x_min":136,"x_max":790,"o":"m 631 1218 l 418 1022 l 399 1040 l 606 1242 l 631 1218 m 790 958 l 790 354 q 716 68 790 153 q 464 -17 642 -17 q 210 68 285 -17 q 136 354 136 153 l 136 958 l 171 958 l 171 354 q 237 92 171 168 q 464 15 303 15 q 690 92 624 15 q 756 354 756 168 l 756 958 l 790 958 z "},"Û":{"ha":926,"x_min":136,"x_max":790,"o":"m 665 1060 l 650 1043 l 469 1185 l 458 1185 l 279 1043 l 263 1060 l 451 1222 l 476 1222 l 665 1060 m 790 958 l 790 354 q 716 68 790 153 q 464 -17 642 -17 q 210 68 285 -17 q 136 354 136 153 l 136 958 l 171 958 l 171 354 q 237 92 171 168 q 464 15 303 15 q 690 92 624 15 q 756 354 756 168 l 756 958 l 790 958 z "},"Ü":{"ha":926,"x_min":136,"x_max":790,"o":"m 335 1189 l 349 1189 q 363 1174 363 1189 l 363 1096 q 349 1081 363 1081 l 335 1081 q 321 1096 321 1081 l 321 1174 q 335 1189 321 1189 m 581 1189 l 594 1189 q 608 1174 608 1189 l 608 1096 q 594 1081 608 1081 l 581 1081 q 567 1096 567 1081 l 567 1174 q 581 1189 567 1189 m 790 958 l 790 354 q 716 68 790 153 q 464 -17 642 -17 q 210 68 285 -17 q 136 354 136 153 l 136 958 l 171 958 l 171 354 q 237 92 171 168 q 464 15 303 15 q 690 92 624 15 q 756 354 756 168 l 756 958 l 790 958 z "},"Ý":{"ha":751,"x_min":31,"x_max":719,"o":"m 329 1022 l 310 1040 l 517 1242 l 542 1218 l 329 1022 m 393 357 l 393 0 l 358 0 l 358 357 l 31 958 l 69 958 l 319 496 q 372 401 356 429 l 379 401 q 403 444 385 411 q 431 494 422 478 l 681 958 l 719 958 l 393 357 z "},"Þ":{"ha":810,"x_min":143,"x_max":726,"o":"m 178 958 l 178 763 q 450 771 275 771 q 665 711 604 771 q 726 489 726 651 q 666 266 726 325 q 450 207 606 207 q 178 213 272 207 l 178 0 l 143 0 l 143 958 l 178 958 m 178 239 l 450 239 q 638 292 586 242 q 690 489 690 343 q 638 687 690 635 q 450 739 585 739 q 178 736 272 739 l 178 239 z "},"ß":{"ha":904,"x_min":50,"x_max":833,"o":"m 514 394 l 699 339 q 800 281 767 318 q 833 169 833 244 q 818 69 833 108 q 770 13 803 31 q 703 -10 738 -4 q 613 -15 668 -15 q 383 0 489 -15 l 386 25 q 613 15 501 14 q 757 46 715 18 q 799 169 799 74 q 772 264 799 236 q 694 307 746 292 l 511 363 q 419 413 450 381 q 389 507 389 444 q 392 553 389 533 q 409 588 396 572 q 430 613 422 604 q 464 634 438 622 q 501 650 490 646 q 549 667 511 654 q 601 683 588 679 q 690 736 667 706 q 714 835 714 767 q 649 931 714 904 q 457 958 585 958 q 258 914 311 958 q 204 738 204 869 l 204 0 l 171 0 l 171 636 l 50 636 l 50 660 l 171 667 l 171 738 q 191 875 171 822 q 255 951 211 928 q 342 982 299 975 q 457 989 385 989 q 672 955 600 989 q 744 835 744 921 q 713 715 744 751 q 603 653 681 679 q 556 638 588 647 q 513 624 524 628 q 481 612 503 621 q 453 595 460 603 q 438 574 447 588 q 425 545 428 561 q 422 507 422 529 q 445 433 422 457 q 514 394 468 408 z "},"à":{"ha":747,"x_min":92,"x_max":621,"o":"m 406 769 l 193 965 l 218 989 l 425 788 l 406 769 m 122 629 l 118 654 q 436 683 325 683 q 621 497 621 683 l 621 0 l 596 0 l 589 129 q 447 35 540 79 q 265 -8 354 -8 q 137 35 182 -8 q 92 160 92 79 l 92 246 q 133 362 92 321 q 251 403 175 403 l 588 403 l 588 497 q 435 651 588 651 q 122 629 297 651 m 126 246 l 126 160 q 265 25 126 28 q 435 65 342 24 q 588 163 528 106 l 588 375 l 251 369 q 126 246 126 367 z "},"á":{"ha":747,"x_min":92,"x_max":621,"o":"m 324 769 l 304 788 l 511 989 l 536 965 l 324 769 m 122 629 l 118 654 q 436 683 325 683 q 621 497 621 683 l 621 0 l 596 0 l 589 129 q 447 35 540 79 q 265 -8 354 -8 q 137 35 182 -8 q 92 160 92 79 l 92 246 q 133 362 92 321 q 251 403 175 403 l 588 403 l 588 497 q 435 651 588 651 q 122 629 297 651 m 126 246 l 126 160 q 265 25 126 28 q 435 65 342 24 q 588 163 528 106 l 588 375 l 251 369 q 126 246 126 367 z "},"â":{"ha":747,"x_min":92,"x_max":621,"o":"m 185 790 l 168 807 l 357 969 l 382 969 l 571 807 l 556 790 l 375 932 l 364 932 l 185 790 m 122 629 l 118 654 q 436 683 325 683 q 621 497 621 683 l 621 0 l 596 0 l 589 129 q 447 35 540 79 q 265 -8 354 -8 q 137 35 182 -8 q 92 160 92 79 l 92 246 q 133 362 92 321 q 251 403 175 403 l 588 403 l 588 497 q 435 651 588 651 q 122 629 297 651 m 126 246 l 126 160 q 265 25 126 28 q 435 65 342 24 q 588 163 528 106 l 588 375 l 251 369 q 126 246 126 367 z "},"ã":{"ha":747,"x_min":92,"x_max":621,"o":"m 193 826 l 169 826 q 196 922 168 889 q 274 950 224 954 q 371 903 314 947 q 468 856 428 858 q 530 874 511 853 q 549 943 549 894 l 572 943 q 546 852 574 883 q 468 825 518 821 q 362 873 418 829 q 274 919 306 917 q 213 901 232 924 q 193 826 193 878 m 122 629 l 118 654 q 436 683 325 683 q 621 497 621 683 l 621 0 l 596 0 l 589 129 q 447 35 540 79 q 265 -8 354 -8 q 137 35 182 -8 q 92 160 92 79 l 92 246 q 133 362 92 321 q 251 403 175 403 l 588 403 l 588 497 q 435 651 588 651 q 122 629 297 651 m 126 246 l 126 160 q 265 25 126 28 q 435 65 342 24 q 588 163 528 106 l 588 375 l 251 369 q 126 246 126 367 z "},"ä":{"ha":747,"x_min":92,"x_max":621,"o":"m 254 828 l 240 828 q 226 843 226 828 l 226 921 q 240 936 226 936 l 254 936 q 268 921 268 936 l 268 843 q 254 828 268 828 m 500 828 l 486 828 q 472 843 472 828 l 472 921 q 486 936 472 936 l 500 936 q 514 921 514 936 l 514 843 q 500 828 514 828 m 122 629 l 118 654 q 436 683 325 683 q 621 497 621 683 l 621 0 l 596 0 l 589 129 q 447 35 540 79 q 265 -8 354 -8 q 137 35 182 -8 q 92 160 92 79 l 92 246 q 133 362 92 321 q 251 403 175 403 l 588 403 l 588 497 q 435 651 588 651 q 122 629 297 651 m 126 246 l 126 160 q 265 25 126 28 q 435 65 342 24 q 588 163 528 106 l 588 375 l 251 369 q 126 246 126 367 z "},"å":{"ha":747,"x_min":92,"x_max":621,"o":"m 465 784 q 446 765 465 784 q 371 746 426 746 q 276 784 315 746 q 238 878 238 822 q 276 971 238 932 q 371 1010 315 1010 q 465 971 426 1010 q 504 878 504 932 q 465 784 504 822 m 445 953 q 430 968 445 953 q 371 983 415 983 q 297 953 326 983 q 267 878 267 922 q 297 802 267 832 q 371 772 326 772 q 445 802 415 772 q 475 878 475 832 q 445 953 475 922 m 122 629 l 118 654 q 436 683 325 683 q 621 497 621 683 l 621 0 l 596 0 l 589 129 q 447 35 540 79 q 265 -8 354 -8 q 137 35 182 -8 q 92 160 92 79 l 92 246 q 133 362 92 321 q 251 403 175 403 l 588 403 l 588 497 q 435 651 588 651 q 122 629 297 651 m 126 246 l 126 160 q 265 25 126 28 q 435 65 342 24 q 588 163 528 106 l 588 375 l 251 369 q 126 246 126 367 z "},"æ":{"ha":1222,"x_min":92,"x_max":1136,"o":"m 938 315 l 622 315 q 689 83 626 150 q 889 15 751 15 q 1115 33 1004 15 l 1121 8 q 885 -17 1040 -17 q 709 21 775 -17 q 614 140 643 58 q 460 39 560 86 q 265 -8 361 -8 q 137 35 182 -8 q 92 160 92 79 l 92 246 q 133 362 92 321 q 251 403 175 403 l 588 403 l 588 497 q 435 651 588 651 q 122 629 297 651 l 118 654 q 436 683 325 683 q 618 543 597 683 q 874 683 672 683 q 1136 494 1132 683 q 1092 356 1138 396 q 938 315 1047 315 m 622 346 l 938 346 q 1066 378 1029 346 q 1101 492 1103 411 q 875 651 1097 651 q 681 583 738 651 q 622 346 624 514 m 126 246 l 126 160 q 265 25 126 28 q 442 65 344 24 q 606 168 539 107 q 588 311 590 226 l 588 375 l 251 369 q 126 246 126 367 z "},"ç":{"ha":664,"x_min":96,"x_max":603,"o":"m 597 32 l 603 7 q 401 -17 499 -17 q 165 63 235 -17 q 96 333 96 142 q 165 604 96 525 q 400 683 233 683 q 588 660 511 683 l 579 635 q 406 651 514 651 q 192 583 253 651 q 131 333 131 515 q 192 83 131 151 q 406 15 253 15 q 597 32 515 15 m 353 -104 l 357 -85 q 439 -104 411 -82 q 465 -175 467 -126 q 411 -290 464 -247 q 272 -321 358 -332 l 278 -300 q 392 -266 349 -303 q 435 -175 435 -229 q 417 -121 435 -136 q 353 -104 399 -106 z "},"è":{"ha":732,"x_min":96,"x_max":644,"o":"m 419 769 l 207 965 l 232 989 l 439 788 l 419 769 m 501 315 l 131 315 q 197 83 135 150 q 397 15 260 15 q 624 33 513 15 l 629 8 q 393 -17 549 -17 q 165 65 235 -17 q 96 336 96 146 q 161 605 96 526 q 382 683 226 683 q 644 494 640 683 q 614 359 647 403 q 501 315 581 315 m 131 346 l 501 346 q 587 382 561 346 q 610 492 613 418 q 552 613 608 574 q 383 651 496 651 q 189 583 246 651 q 131 346 132 514 z "},"é":{"ha":732,"x_min":96,"x_max":644,"o":"m 338 769 l 318 788 l 525 989 l 550 965 l 338 769 m 501 315 l 131 315 q 197 83 135 150 q 397 15 260 15 q 624 33 513 15 l 629 8 q 393 -17 549 -17 q 165 65 235 -17 q 96 336 96 146 q 161 605 96 526 q 382 683 226 683 q 644 494 640 683 q 614 359 647 403 q 501 315 581 315 m 131 346 l 501 346 q 587 382 561 346 q 610 492 613 418 q 552 613 608 574 q 383 651 496 651 q 189 583 246 651 q 131 346 132 514 z "},"ê":{"ha":732,"x_min":96,"x_max":644,"o":"m 199 790 l 182 807 l 371 969 l 396 969 l 585 807 l 569 790 l 389 932 l 378 932 l 199 790 m 501 315 l 131 315 q 197 83 135 150 q 397 15 260 15 q 624 33 513 15 l 629 8 q 393 -17 549 -17 q 165 65 235 -17 q 96 336 96 146 q 161 605 96 526 q 382 683 226 683 q 644 494 640 683 q 614 359 647 403 q 501 315 581 315 m 131 346 l 501 346 q 587 382 561 346 q 610 492 613 418 q 552 613 608 574 q 383 651 496 651 q 189 583 246 651 q 131 346 132 514 z "},"ë":{"ha":732,"x_min":96,"x_max":644,"o":"m 268 828 l 254 828 q 240 843 240 828 l 240 921 q 254 936 240 936 l 268 936 q 282 921 282 936 l 282 843 q 268 828 282 828 m 514 828 l 500 828 q 486 843 486 828 l 486 921 q 500 936 486 936 l 514 936 q 528 921 528 936 l 528 843 q 514 828 528 828 m 501 315 l 131 315 q 197 83 135 150 q 397 15 260 15 q 624 33 513 15 l 629 8 q 393 -17 549 -17 q 165 65 235 -17 q 96 336 96 146 q 161 605 96 526 q 382 683 226 683 q 644 494 640 683 q 614 359 647 403 q 501 315 581 315 m 131 346 l 501 346 q 587 382 561 346 q 610 492 613 418 q 552 613 608 574 q 383 651 496 651 q 189 583 246 651 q 131 346 132 514 z "},"ì":{"ha":306,"x_min":-26,"x_max":206,"o":"m 206 788 l 186 769 l -26 965 l -1 989 l 206 788 m 169 0 l 136 0 l 136 667 l 169 667 l 169 0 z "},"í":{"ha":306,"x_min":85,"x_max":317,"o":"m 317 965 l 104 769 l 85 788 l 292 989 l 317 965 m 169 0 l 136 0 l 136 667 l 169 667 l 169 0 z "},"î":{"ha":306,"x_min":-51,"x_max":351,"o":"m 351 807 l 336 790 l 156 932 l 144 932 l -35 790 l -51 807 l 138 969 l 163 969 l 351 807 m 169 0 l 136 0 l 136 667 l 169 667 l 169 0 z "},"ï":{"ha":306,"x_min":7,"x_max":294,"o":"m 21 936 l 35 936 q 49 921 49 936 l 49 843 q 35 828 49 828 l 21 828 q 7 843 7 828 l 7 921 q 21 936 7 936 m 267 936 l 281 936 q 294 921 294 936 l 294 843 q 281 828 294 828 l 267 828 q 253 843 253 828 l 253 921 q 267 936 253 936 m 169 0 l 136 0 l 136 667 l 169 667 l 169 0 z "},"ð":{"ha":761,"x_min":97,"x_max":649,"o":"m 590 946 l 481 869 q 649 388 649 726 q 644 265 649 315 q 625 158 640 215 q 581 65 610 100 q 501 7 553 31 q 375 -17 449 -17 q 165 60 232 -17 q 97 307 97 138 q 374 619 97 619 q 606 544 489 619 q 454 851 574 751 l 325 763 l 310 786 l 431 869 q 161 944 326 944 l 169 969 q 457 889 342 972 l 575 969 l 590 946 m 375 14 q 501 40 451 14 q 574 122 550 67 q 607 240 599 178 q 615 397 615 301 q 610 514 615 444 q 367 589 490 589 q 185 514 239 589 q 132 306 132 439 q 191 82 132 150 q 375 14 250 14 z "},"ñ":{"ha":792,"x_min":132,"x_max":665,"o":"m 229 826 l 206 826 q 232 922 204 889 q 310 950 260 954 q 407 903 350 947 q 504 856 464 858 q 566 874 547 853 q 585 943 585 894 l 608 943 q 582 852 610 883 q 504 825 554 821 q 398 873 454 829 q 310 919 342 917 q 249 901 268 924 q 229 826 229 878 m 157 667 l 161 544 q 486 683 336 683 q 665 501 665 683 l 665 0 l 632 0 l 632 497 q 479 651 632 651 q 338 619 408 651 q 165 515 268 588 l 165 0 l 132 0 l 132 667 l 157 667 z "},"ò":{"ha":778,"x_min":97,"x_max":681,"o":"m 442 788 l 422 769 l 210 965 l 235 989 l 442 788 m 163 605 q 195 644 163 605 q 389 683 228 683 q 615 605 550 683 q 681 333 681 526 q 615 62 681 140 q 389 -17 550 -17 q 163 62 228 -17 q 97 333 97 140 q 163 605 97 526 m 589 582 q 560 617 589 582 q 389 651 532 651 q 189 582 246 651 q 132 333 132 513 q 189 85 132 154 q 389 15 246 15 q 589 85 532 15 q 646 333 646 154 q 589 582 646 513 z "},"ó":{"ha":778,"x_min":97,"x_max":681,"o":"m 553 965 l 340 769 l 321 788 l 528 989 l 553 965 m 163 605 q 195 644 163 605 q 389 683 228 683 q 615 605 550 683 q 681 333 681 526 q 615 62 681 140 q 389 -17 550 -17 q 163 62 228 -17 q 97 333 97 140 q 163 605 97 526 m 589 582 q 560 617 589 582 q 389 651 532 651 q 189 582 246 651 q 132 333 132 513 q 189 85 132 154 q 389 15 246 15 q 589 85 532 15 q 646 333 646 154 q 589 582 646 513 z "},"ô":{"ha":778,"x_min":97,"x_max":681,"o":"m 588 807 l 572 790 l 392 932 l 381 932 l 201 790 l 185 807 l 374 969 l 399 969 l 588 807 m 163 605 q 195 644 163 605 q 389 683 228 683 q 615 605 550 683 q 681 333 681 526 q 615 62 681 140 q 389 -17 550 -17 q 163 62 228 -17 q 97 333 97 140 q 163 605 97 526 m 589 582 q 560 617 589 582 q 389 651 532 651 q 189 582 246 651 q 132 333 132 513 q 189 85 132 154 q 389 15 246 15 q 589 85 532 15 q 646 333 646 154 q 589 582 646 513 z "},"õ":{"ha":778,"x_min":97,"x_max":681,"o":"m 210 826 l 186 826 q 213 922 185 889 q 290 950 240 954 q 388 903 332 947 q 485 856 443 858 q 547 874 528 853 q 565 943 565 894 l 589 943 q 563 852 590 883 q 485 825 535 821 q 378 873 435 829 q 290 919 322 917 q 229 901 249 924 q 210 826 210 878 m 163 605 q 195 644 163 605 q 389 683 228 683 q 615 605 550 683 q 681 333 681 526 q 615 62 681 140 q 389 -17 550 -17 q 163 62 228 -17 q 97 333 97 140 q 163 605 97 526 m 589 582 q 560 617 589 582 q 389 651 532 651 q 189 582 246 651 q 132 333 132 513 q 189 85 132 154 q 389 15 246 15 q 589 85 532 15 q 646 333 646 154 q 589 582 646 513 z "},"ö":{"ha":778,"x_min":97,"x_max":681,"o":"m 257 936 l 271 936 q 285 921 285 936 l 285 843 q 271 828 285 828 l 257 828 q 243 843 243 828 l 243 921 q 257 936 243 936 m 503 936 l 517 936 q 531 921 531 936 l 531 843 q 517 828 531 828 l 503 828 q 489 843 489 828 l 489 921 q 503 936 489 936 m 163 605 q 195 644 163 605 q 389 683 228 683 q 615 605 550 683 q 681 333 681 526 q 615 62 681 140 q 389 -17 550 -17 q 163 62 228 -17 q 97 333 97 140 q 163 605 97 526 m 589 582 q 560 617 589 582 q 389 651 532 651 q 189 582 246 651 q 132 333 132 513 q 189 85 132 154 q 389 15 246 15 q 589 85 532 15 q 646 333 646 154 q 589 582 646 513 z "},"÷":{"ha":818,"x_min":119,"x_max":699,"o":"m 400 697 l 414 697 q 431 681 431 697 l 431 594 q 414 578 431 578 l 400 578 q 383 594 383 578 l 383 681 q 400 697 383 697 m 699 396 l 119 396 l 119 426 l 699 426 l 699 396 m 400 244 l 414 244 q 431 228 431 244 l 431 142 q 414 125 431 125 l 400 125 q 383 142 383 125 l 383 228 q 400 244 383 244 z "},"ø":{"ha":778,"x_min":97,"x_max":681,"o":"m 588 736 l 550 656 q 650 546 619 622 q 681 333 681 469 q 615 62 681 140 q 389 -17 550 -17 q 246 4 304 -17 l 204 -85 l 178 -72 l 219 17 q 126 126 154 50 q 97 333 97 203 q 163 605 97 526 q 389 683 228 683 q 522 665 469 683 l 561 749 l 588 736 m 233 47 l 508 636 q 389 651 463 651 q 189 582 246 651 q 132 333 132 513 q 156 147 132 215 q 233 47 179 78 m 535 625 l 260 35 q 389 15 308 15 q 589 85 532 15 q 646 333 646 154 q 619 525 646 456 q 535 625 593 594 z "},"ù":{"ha":778,"x_min":126,"x_max":646,"o":"m 424 769 l 211 965 l 236 989 l 443 788 l 424 769 m 646 667 l 646 0 l 621 0 l 617 122 q 306 -17 450 -17 q 126 165 126 -17 l 126 667 l 160 667 l 160 169 q 313 15 160 15 q 447 47 381 15 q 613 151 514 79 l 613 667 l 646 667 z "},"ú":{"ha":778,"x_min":126,"x_max":646,"o":"m 342 769 l 322 788 l 529 989 l 554 965 l 342 769 m 646 667 l 646 0 l 621 0 l 617 122 q 306 -17 450 -17 q 126 165 126 -17 l 126 667 l 160 667 l 160 169 q 313 15 160 15 q 447 47 381 15 q 613 151 514 79 l 613 667 l 646 667 z "},"û":{"ha":778,"x_min":126,"x_max":646,"o":"m 203 790 l 186 807 l 375 969 l 400 969 l 589 807 l 574 790 l 393 932 l 382 932 l 203 790 m 646 667 l 646 0 l 621 0 l 617 122 q 306 -17 450 -17 q 126 165 126 -17 l 126 667 l 160 667 l 160 169 q 313 15 160 15 q 447 47 381 15 q 613 151 514 79 l 613 667 l 646 667 z "},"ü":{"ha":778,"x_min":126,"x_max":646,"o":"m 272 828 l 258 828 q 244 843 244 828 l 244 921 q 258 936 244 936 l 272 936 q 286 921 286 936 l 286 843 q 272 828 286 828 m 518 828 l 504 828 q 490 843 490 828 l 490 921 q 504 936 490 936 l 518 936 q 532 921 532 936 l 532 843 q 518 828 532 828 m 646 667 l 646 0 l 621 0 l 617 122 q 306 -17 450 -17 q 126 165 126 -17 l 126 667 l 160 667 l 160 169 q 313 15 160 15 q 447 47 381 15 q 613 151 514 79 l 613 667 l 646 667 z "},"ý":{"ha":703,"x_min":42,"x_max":663,"o":"m 308 769 l 289 788 l 496 989 l 521 965 l 308 769 m 663 667 l 356 -65 q 269 -214 315 -160 q 140 -292 222 -268 l 132 -272 q 251 -190 208 -243 q 326 -53 294 -136 l 347 0 l 333 0 q 315 11 322 0 l 42 667 l 78 667 l 313 103 l 343 31 l 361 31 l 392 106 l 626 667 l 663 667 z "},"þ":{"ha":781,"x_min":132,"x_max":681,"o":"m 161 560 q 439 683 310 683 q 625 603 569 683 q 681 333 681 524 q 625 63 681 143 q 439 -17 569 -17 q 161 57 315 -17 q 165 -71 165 22 l 165 -292 l 132 -292 l 132 972 l 165 972 l 165 689 q 161 560 165 596 m 165 531 l 165 82 q 439 15 332 15 q 599 88 551 15 q 646 333 646 160 q 599 579 646 507 q 439 651 551 651 q 313 624 375 651 q 165 531 250 596 z "},"ÿ":{"ha":703,"x_min":42,"x_max":663,"o":"m 239 828 l 225 828 q 211 843 211 828 l 211 921 q 225 936 211 936 l 239 936 q 253 921 253 936 l 253 843 q 239 828 253 828 m 485 828 l 471 828 q 457 843 457 828 l 457 921 q 471 936 457 936 l 485 936 q 499 921 499 936 l 499 843 q 485 828 499 828 m 663 667 l 356 -65 q 269 -214 315 -160 q 140 -292 222 -268 l 132 -272 q 251 -190 208 -243 q 326 -53 294 -136 l 347 0 l 333 0 q 315 11 322 0 l 42 667 l 78 667 l 313 103 l 343 31 l 361 31 l 392 106 l 626 667 l 663 667 z "},"Ā":{"ha":838,"x_min":26,"x_max":811,"o":"m 600 1117 l 239 1117 l 239 1149 l 600 1149 l 600 1117 m 647 350 l 190 350 l 64 0 l 26 0 l 371 946 q 389 958 375 958 l 449 958 q 467 946 463 958 l 811 0 l 774 0 l 647 350 m 636 381 l 467 850 l 439 928 l 399 928 l 371 850 l 201 381 l 636 381 z "},"ā":{"ha":747,"x_min":92,"x_max":621,"o":"m 551 864 l 190 864 l 190 896 l 551 896 l 551 864 m 122 629 l 118 654 q 436 683 325 683 q 621 497 621 683 l 621 0 l 596 0 l 589 129 q 447 35 540 79 q 265 -8 354 -8 q 137 35 182 -8 q 92 160 92 79 l 92 246 q 133 362 92 321 q 251 403 175 403 l 588 403 l 588 497 q 435 651 588 651 q 122 629 297 651 m 126 246 l 126 160 q 265 25 126 28 q 435 65 342 24 q 588 163 528 106 l 588 375 l 251 369 q 126 246 126 367 z "},"Ă":{"ha":838,"x_min":26,"x_max":811,"o":"m 582 1213 l 607 1207 q 556 1091 607 1133 q 419 1049 506 1049 q 281 1091 332 1049 q 229 1207 229 1133 l 254 1213 q 299 1116 254 1150 q 419 1082 343 1082 q 538 1117 494 1082 q 582 1213 582 1151 m 647 350 l 190 350 l 64 0 l 26 0 l 371 946 q 389 958 375 958 l 449 958 q 467 946 463 958 l 811 0 l 774 0 l 647 350 m 636 381 l 467 850 l 439 928 l 399 928 l 371 850 l 201 381 l 636 381 z "},"ă":{"ha":747,"x_min":92,"x_max":621,"o":"m 533 960 l 558 954 q 508 838 558 881 q 371 796 457 796 q 232 838 283 796 q 181 954 181 881 l 206 960 q 250 863 206 897 q 371 829 294 829 q 490 864 446 829 q 533 960 533 899 m 122 629 l 118 654 q 436 683 325 683 q 621 497 621 683 l 621 0 l 596 0 l 589 129 q 447 35 540 79 q 265 -8 354 -8 q 137 35 182 -8 q 92 160 92 79 l 92 246 q 133 362 92 321 q 251 403 175 403 l 588 403 l 588 497 q 435 651 588 651 q 122 629 297 651 m 126 246 l 126 160 q 265 25 126 28 q 435 65 342 24 q 588 163 528 106 l 588 375 l 251 369 q 126 246 126 367 z "},"Ą":{"ha":838,"x_min":26,"x_max":824,"o":"m 819 -253 l 824 -269 q 676 -281 718 -314 q 660 -172 633 -247 q 783 0 690 -85 l 774 0 l 647 350 l 190 350 l 64 0 l 26 0 l 371 946 q 389 958 375 958 l 449 958 q 467 946 463 958 l 811 0 q 690 -175 721 -90 q 704 -260 668 -239 q 819 -253 740 -282 m 636 381 l 467 850 l 439 928 l 399 928 l 371 850 l 201 381 l 636 381 z "},"ą":{"ha":747,"x_min":92,"x_max":633,"o":"m 629 -253 l 633 -269 q 485 -281 528 -314 q 469 -172 443 -247 q 596 3 500 -85 l 589 129 q 447 35 540 79 q 265 -8 354 -8 q 137 35 182 -8 q 92 160 92 79 l 92 246 q 133 362 92 321 q 251 403 175 403 l 588 403 l 588 497 q 435 651 588 651 q 122 629 297 651 l 118 654 q 436 683 325 683 q 621 497 621 683 l 621 0 q 500 -175 531 -90 q 514 -260 478 -239 q 629 -253 550 -282 m 126 246 l 126 160 q 265 25 126 28 q 435 65 342 24 q 588 163 528 106 l 588 375 l 251 369 q 126 246 126 367 z "},"Ć":{"ha":779,"x_min":106,"x_max":721,"o":"m 613 1218 l 400 1022 l 381 1040 l 588 1242 l 613 1218 m 713 33 l 721 8 q 460 -17 611 -17 q 184 94 263 -17 q 106 479 106 204 q 184 865 106 754 q 460 975 263 975 q 701 951 599 975 l 693 926 q 460 943 589 943 q 212 840 282 943 q 142 479 142 738 q 212 118 142 221 q 460 15 282 15 q 713 33 608 15 z "},"ć":{"ha":664,"x_min":96,"x_max":603,"o":"m 544 965 l 332 769 l 313 788 l 519 989 l 544 965 m 597 32 l 603 7 q 401 -17 499 -17 q 165 63 235 -17 q 96 333 96 142 q 165 604 96 525 q 400 683 233 683 q 588 660 511 683 l 579 635 q 406 651 514 651 q 192 583 253 651 q 131 333 131 515 q 192 83 131 151 q 406 15 253 15 q 597 32 515 15 z "},"Ċ":{"ha":779,"x_min":106,"x_max":721,"o":"m 440 1194 l 454 1194 q 471 1178 471 1194 l 471 1092 q 454 1075 471 1075 l 440 1075 q 424 1092 424 1075 l 424 1178 q 440 1194 424 1194 m 713 33 l 721 8 q 460 -17 611 -17 q 184 94 263 -17 q 106 479 106 204 q 184 865 106 754 q 460 975 263 975 q 701 951 599 975 l 693 926 q 460 943 589 943 q 212 840 282 943 q 142 479 142 738 q 212 118 142 221 q 460 15 282 15 q 713 33 608 15 z "},"ċ":{"ha":664,"x_min":96,"x_max":603,"o":"m 372 942 l 386 942 q 403 925 403 942 l 403 839 q 386 822 403 822 l 372 822 q 356 839 356 822 l 356 925 q 372 942 356 942 m 597 32 l 603 7 q 401 -17 499 -17 q 165 63 235 -17 q 96 333 96 142 q 165 604 96 525 q 400 683 233 683 q 588 660 511 683 l 579 635 q 406 651 514 651 q 192 583 253 651 q 131 333 131 515 q 192 83 131 151 q 406 15 253 15 q 597 32 515 15 z "},"Č":{"ha":779,"x_min":106,"x_max":721,"o":"m 651 1206 l 461 1043 l 436 1043 l 246 1206 l 264 1222 l 443 1081 l 454 1081 l 635 1222 l 651 1206 m 713 33 l 721 8 q 460 -17 611 -17 q 184 94 263 -17 q 106 479 106 204 q 184 865 106 754 q 460 975 263 975 q 701 951 599 975 l 693 926 q 460 943 589 943 q 212 840 282 943 q 142 479 142 738 q 212 118 142 221 q 460 15 282 15 q 713 33 608 15 z "},"č":{"ha":664,"x_min":96,"x_max":603,"o":"m 583 953 l 393 790 l 368 790 l 178 953 l 196 969 l 375 828 l 386 828 l 567 969 l 583 953 m 597 32 l 603 7 q 401 -17 499 -17 q 165 63 235 -17 q 96 333 96 142 q 165 604 96 525 q 400 683 233 683 q 588 660 511 683 l 579 635 q 406 651 514 651 q 192 583 253 651 q 131 333 131 515 q 192 83 131 151 q 406 15 253 15 q 597 32 515 15 z "},"Ď":{"ha":915,"x_min":143,"x_max":810,"o":"m 439 1043 l 249 1206 l 267 1222 l 446 1081 l 457 1081 l 638 1222 l 654 1206 l 464 1043 l 439 1043 m 143 0 l 143 958 q 461 971 308 971 q 732 860 654 971 q 810 479 810 750 q 732 98 810 208 q 461 -12 654 -12 q 143 0 311 -12 m 178 933 l 178 24 q 461 19 428 19 q 704 122 635 19 q 774 479 774 224 q 704 837 774 735 q 461 939 635 939 q 178 933 347 939 z "},"ď":{"ha":779,"x_min":99,"x_max":815,"o":"m 790 974 l 800 974 q 815 960 815 974 l 815 878 q 793 718 813 786 l 779 724 q 783 865 783 801 q 777 869 779 865 q 776 878 775 874 l 776 960 q 790 974 775 974 m 614 972 l 647 972 l 647 0 l 622 0 l 617 117 q 340 -17 467 -17 q 154 63 210 -17 q 99 333 99 143 q 154 603 99 524 q 340 683 210 683 q 618 614 458 683 q 614 743 614 650 l 614 972 m 614 149 l 614 585 q 340 651 447 651 q 181 579 228 651 q 133 333 133 507 q 181 88 133 160 q 340 15 228 15 q 466 46 404 15 q 614 149 528 76 z "},"Đ":{"ha":919,"x_min":36,"x_max":814,"o":"m 147 529 l 147 958 q 465 971 313 971 q 736 860 658 971 q 814 479 814 750 q 736 98 814 208 q 465 -12 658 -12 q 147 0 315 -12 l 147 501 l 36 501 l 36 529 l 147 529 m 182 501 l 182 24 q 465 19 432 19 q 708 122 639 19 q 778 479 778 224 q 708 837 778 735 q 465 939 639 939 q 182 933 351 939 l 182 529 l 436 529 l 436 501 l 182 501 z "},"đ":{"ha":768,"x_min":99,"x_max":750,"o":"m 750 819 l 647 819 l 647 0 l 622 0 l 617 117 q 340 -17 467 -17 q 154 63 210 -17 q 99 333 99 143 q 154 603 99 524 q 340 683 210 683 q 618 614 458 683 q 614 743 614 650 l 614 819 l 368 819 l 368 847 l 614 847 l 614 972 l 647 972 l 647 847 l 750 847 l 750 819 m 614 149 l 614 585 q 340 651 447 651 q 181 579 228 651 q 133 333 133 507 q 181 88 133 160 q 340 15 228 15 q 466 46 404 15 q 614 149 528 76 z "},"Ē":{"ha":765,"x_min":135,"x_max":685,"o":"m 611 1151 l 250 1151 l 250 1183 l 611 1183 l 611 1151 m 682 31 l 685 6 q 276 0 549 0 q 175 40 215 0 q 135 142 135 81 l 135 817 q 175 918 135 878 q 276 958 215 958 q 685 953 549 958 l 682 928 l 283 928 q 201 896 233 928 q 169 814 169 864 l 169 528 l 625 528 l 625 499 l 169 499 l 169 144 q 201 63 169 94 q 283 31 233 31 l 682 31 z "},"ē":{"ha":732,"x_min":96,"x_max":644,"o":"m 565 864 l 204 864 l 204 896 l 565 896 l 565 864 m 501 315 l 131 315 q 197 83 135 150 q 397 15 260 15 q 624 33 513 15 l 629 8 q 393 -17 549 -17 q 165 65 235 -17 q 96 336 96 146 q 161 605 96 526 q 382 683 226 683 q 644 494 640 683 q 614 359 647 403 q 501 315 581 315 m 131 346 l 501 346 q 587 382 561 346 q 610 492 613 418 q 552 613 608 574 q 383 651 496 651 q 189 583 246 651 q 131 346 132 514 z "},"Ė":{"ha":765,"x_min":135,"x_max":685,"o":"m 438 1110 l 424 1110 q 407 1126 407 1110 l 407 1213 q 424 1229 407 1229 l 438 1229 q 454 1213 454 1229 l 454 1126 q 438 1110 454 1110 m 682 31 l 685 6 q 276 0 549 0 q 175 40 215 0 q 135 142 135 81 l 135 817 q 175 918 135 878 q 276 958 215 958 q 685 953 549 958 l 682 928 l 283 928 q 201 896 233 928 q 169 814 169 864 l 169 528 l 625 528 l 625 499 l 169 499 l 169 144 q 201 63 169 94 q 283 31 233 31 l 682 31 z "},"ė":{"ha":732,"x_min":96,"x_max":644,"o":"m 392 822 l 378 822 q 361 839 361 822 l 361 925 q 378 942 361 942 l 392 942 q 408 925 408 942 l 408 839 q 392 822 408 822 m 501 315 l 131 315 q 197 83 135 150 q 397 15 260 15 q 624 33 513 15 l 629 8 q 393 -17 549 -17 q 165 65 235 -17 q 96 336 96 146 q 161 605 96 526 q 382 683 226 683 q 644 494 640 683 q 614 359 647 403 q 501 315 581 315 m 131 346 l 501 346 q 587 382 561 346 q 610 492 613 418 q 552 613 608 574 q 383 651 496 651 q 189 583 246 651 q 131 346 132 514 z "},"Ę":{"ha":765,"x_min":135,"x_max":697,"o":"m 693 -247 l 697 -264 q 549 -275 592 -308 q 533 -167 507 -242 q 656 4 564 -81 q 276 0 529 0 q 175 40 215 0 q 135 142 135 81 l 135 817 q 175 918 135 878 q 276 958 215 958 q 685 953 549 958 l 682 928 l 283 928 q 201 896 233 928 q 169 814 169 864 l 169 528 l 625 528 l 625 499 l 169 499 l 169 144 q 201 63 169 94 q 283 31 233 31 l 682 31 l 685 6 q 564 -169 594 -85 q 578 -255 542 -233 q 693 -247 614 -276 z "},"ę":{"ha":732,"x_min":96,"x_max":644,"o":"m 624 33 l 629 8 q 508 -167 539 -82 q 522 -252 486 -231 q 638 -244 558 -274 l 642 -261 q 494 -272 536 -306 q 478 -164 451 -239 q 592 0 504 -83 q 393 -17 496 -17 q 165 65 235 -17 q 96 336 96 146 q 161 605 96 526 q 382 683 226 683 q 644 494 640 683 q 614 359 647 403 q 501 315 581 315 l 131 315 q 197 83 135 150 q 397 15 260 15 q 624 33 513 15 m 131 346 l 501 346 q 587 382 561 346 q 610 492 613 418 q 552 613 608 574 q 383 651 496 651 q 189 583 246 651 q 131 346 132 514 z "},"Ě":{"ha":765,"x_min":135,"x_max":685,"o":"m 419 1078 l 229 1240 l 247 1257 l 426 1115 l 438 1115 l 618 1257 l 635 1240 l 444 1078 l 419 1078 m 682 31 l 685 6 q 276 0 549 0 q 175 40 215 0 q 135 142 135 81 l 135 817 q 175 918 135 878 q 276 958 215 958 q 685 953 549 958 l 682 928 l 283 928 q 201 896 233 928 q 169 814 169 864 l 169 528 l 625 528 l 625 499 l 169 499 l 169 144 q 201 63 169 94 q 283 31 233 31 l 682 31 z "},"ě":{"ha":732,"x_min":96,"x_max":644,"o":"m 374 790 l 183 953 l 201 969 l 381 828 l 392 828 l 572 969 l 589 953 l 399 790 l 374 790 m 501 315 l 131 315 q 197 83 135 150 q 397 15 260 15 q 624 33 513 15 l 629 8 q 393 -17 549 -17 q 165 65 235 -17 q 96 336 96 146 q 161 605 96 526 q 382 683 226 683 q 644 494 640 683 q 614 359 647 403 q 501 315 581 315 m 131 346 l 501 346 q 587 382 561 346 q 610 492 613 418 q 552 613 608 574 q 383 651 496 651 q 189 583 246 651 q 131 346 132 514 z "},"Ğ":{"ha":864,"x_min":106,"x_max":751,"o":"m 613 1213 l 638 1207 q 587 1091 638 1133 q 450 1049 536 1049 q 311 1091 363 1049 q 260 1207 260 1133 l 285 1213 q 329 1116 285 1150 q 450 1082 374 1082 q 569 1117 525 1082 q 613 1213 613 1151 m 751 556 l 751 0 l 728 0 l 719 124 q 422 -17 589 -17 q 179 100 253 -17 q 106 479 106 217 q 185 865 106 754 q 464 975 265 975 q 736 951 619 975 l 728 926 q 464 943 611 943 q 213 840 283 943 q 142 479 142 738 q 207 124 142 233 q 425 15 272 15 q 515 26 474 15 q 597 63 557 38 q 657 104 636 88 q 717 156 678 121 l 717 556 l 751 556 z "},"ğ":{"ha":757,"x_min":79,"x_max":717,"o":"m 538 960 l 563 954 q 512 838 563 881 q 375 796 461 796 q 236 838 288 796 q 185 954 185 881 l 210 960 q 254 863 210 897 q 375 829 299 829 q 494 864 450 829 q 538 960 538 899 m 713 642 l 569 638 q 638 476 638 588 q 576 322 638 371 q 374 272 514 272 q 203 301 265 272 q 162 230 171 267 q 178 163 153 193 q 261 121 203 132 l 529 74 q 644 19 614 58 q 674 -103 674 -21 q 607 -251 674 -208 q 381 -294 540 -294 q 147 -251 214 -294 q 79 -103 79 -208 q 97 15 79 -28 q 169 86 115 57 l 203 104 q 138 163 156 124 q 133 242 121 201 q 182 314 146 283 q 107 476 107 361 q 170 632 107 581 q 374 683 233 683 q 508 667 454 683 l 717 667 l 713 642 m 551 344 q 578 365 551 344 q 604 476 604 386 q 551 610 604 567 q 374 653 499 653 q 194 610 249 653 q 140 476 140 567 q 194 344 140 386 q 374 303 249 303 q 551 344 499 303 m 239 94 l 192 65 q 128 2 143 38 q 113 -103 113 -33 q 173 -227 113 -192 q 381 -262 233 -262 q 581 -226 522 -262 q 640 -103 640 -190 q 616 -1 640 -33 q 519 44 592 32 l 243 93 l 239 94 z "},"Ġ":{"ha":864,"x_min":106,"x_max":751,"o":"m 457 1075 l 443 1075 q 426 1092 426 1075 l 426 1178 q 443 1194 426 1194 l 457 1194 q 474 1178 474 1194 l 474 1092 q 457 1075 474 1075 m 751 556 l 751 0 l 728 0 l 719 124 q 422 -17 589 -17 q 179 100 253 -17 q 106 479 106 217 q 185 865 106 754 q 464 975 265 975 q 736 951 619 975 l 728 926 q 464 943 611 943 q 213 840 283 943 q 142 479 142 738 q 207 124 142 233 q 425 15 272 15 q 515 26 474 15 q 597 63 557 38 q 657 104 636 88 q 717 156 678 121 l 717 556 l 751 556 z "},"ġ":{"ha":757,"x_min":79,"x_max":717,"o":"m 382 822 l 368 822 q 351 839 351 822 l 351 925 q 368 942 351 942 l 382 942 q 399 925 399 942 l 399 839 q 382 822 399 822 m 713 642 l 569 638 q 638 476 638 588 q 576 322 638 371 q 374 272 514 272 q 203 301 265 272 q 162 230 171 267 q 178 163 153 193 q 261 121 203 132 l 529 74 q 644 19 614 58 q 674 -103 674 -21 q 607 -251 674 -208 q 381 -294 540 -294 q 147 -251 214 -294 q 79 -103 79 -208 q 97 15 79 -28 q 169 86 115 57 l 203 104 q 138 163 156 124 q 133 242 121 201 q 182 314 146 283 q 107 476 107 361 q 170 632 107 581 q 374 683 233 683 q 508 667 454 683 l 717 667 l 713 642 m 551 344 q 578 365 551 344 q 604 476 604 386 q 551 610 604 567 q 374 653 499 653 q 194 610 249 653 q 140 476 140 567 q 194 344 140 386 q 374 303 249 303 q 551 344 499 303 m 239 94 l 192 65 q 128 2 143 38 q 113 -103 113 -33 q 173 -227 113 -192 q 381 -262 233 -262 q 581 -226 522 -262 q 640 -103 640 -190 q 616 -1 640 -33 q 519 44 592 32 l 243 93 l 239 94 z "},"Ģ":{"ha":864,"x_min":106,"x_max":751,"o":"m 751 556 l 751 0 l 728 0 l 719 124 q 422 -17 589 -17 q 179 100 253 -17 q 106 479 106 217 q 185 865 106 754 q 464 975 265 975 q 736 951 619 975 l 728 926 q 464 943 611 943 q 213 840 283 943 q 142 479 142 738 q 207 124 142 233 q 425 15 272 15 q 515 26 474 15 q 597 63 557 38 q 657 104 636 88 q 717 156 678 121 l 717 556 l 751 556 m 442 -90 l 453 -90 q 468 -106 468 -90 l 468 -186 q 446 -346 465 -278 l 431 -340 q 435 -199 435 -264 q 428 -194 431 -199 q 428 -186 426 -190 l 428 -106 q 442 -90 426 -90 z "},"ģ":{"ha":757,"x_min":79,"x_max":717,"o":"m 386 786 l 375 786 q 360 801 360 786 l 360 882 q 382 1042 363 974 l 397 1036 q 393 894 393 958 q 399 890 397 894 q 400 882 401 886 l 400 801 q 386 786 401 786 m 713 642 l 569 638 q 638 476 638 588 q 576 322 638 371 q 374 272 514 272 q 203 301 265 272 q 162 230 171 267 q 178 163 153 193 q 261 121 203 132 l 529 74 q 644 19 614 58 q 674 -103 674 -21 q 607 -251 674 -208 q 381 -294 540 -294 q 147 -251 214 -294 q 79 -103 79 -208 q 97 15 79 -28 q 169 86 115 57 l 203 104 q 138 163 156 124 q 133 242 121 201 q 182 314 146 283 q 107 476 107 361 q 170 632 107 581 q 374 683 233 683 q 508 667 454 683 l 717 667 l 713 642 m 551 344 q 578 365 551 344 q 604 476 604 386 q 551 610 604 567 q 374 653 499 653 q 194 610 249 653 q 140 476 140 567 q 194 344 140 386 q 374 303 249 303 q 551 344 499 303 m 239 94 l 192 65 q 128 2 143 38 q 113 -103 113 -33 q 173 -227 113 -192 q 381 -262 233 -262 q 581 -226 522 -262 q 640 -103 640 -190 q 616 -1 640 -33 q 519 44 592 32 l 243 93 l 239 94 z "},"Ħ":{"ha":924,"x_min":38,"x_max":886,"o":"m 886 729 l 775 729 l 775 0 l 740 0 l 740 499 l 183 499 l 183 0 l 149 0 l 149 729 l 38 729 l 38 757 l 149 757 l 149 958 l 183 958 l 183 757 l 740 757 l 740 958 l 775 958 l 775 757 l 886 757 l 886 729 m 740 729 l 183 729 l 183 529 l 740 529 l 740 729 z "},"ħ":{"ha":796,"x_min":18,"x_max":669,"o":"m 172 819 l 172 674 q 165 544 172 592 q 490 683 351 683 q 669 501 669 683 l 669 0 l 636 0 l 636 497 q 483 651 636 651 q 342 619 413 651 q 169 515 272 588 l 169 0 l 136 0 l 136 819 l 18 819 l 18 847 l 136 847 l 136 972 l 171 972 l 171 847 l 400 847 l 400 819 l 172 819 z "},"Ī":{"ha":321,"x_min":-21,"x_max":340,"o":"m 340 1117 l -21 1117 l -21 1149 l 340 1149 l 340 1117 m 178 0 l 143 0 l 143 958 l 178 958 l 178 0 z "},"ī":{"ha":306,"x_min":-29,"x_max":332,"o":"m 332 864 l -29 864 l -29 896 l 332 896 l 332 864 m 169 0 l 136 0 l 136 667 l 169 667 l 169 0 z "},"Į":{"ha":321,"x_min":26,"x_max":190,"o":"m 186 -253 l 190 -269 q 42 -281 85 -314 q 26 -172 0 -247 q 150 0 57 -85 l 143 0 l 143 958 l 178 958 l 178 0 q 57 -175 88 -90 q 71 -260 35 -239 q 186 -253 107 -282 z "},"į":{"ha":306,"x_min":18,"x_max":182,"o":"m 158 822 l 144 822 q 128 839 128 822 l 128 925 q 144 942 128 942 l 158 942 q 175 925 175 942 l 175 839 q 158 822 175 822 m 178 -253 l 182 -269 q 34 -281 76 -314 q 18 -172 -8 -247 q 142 0 49 -85 l 136 0 l 136 667 l 169 667 l 169 0 q 49 -175 79 -90 q 63 -260 26 -239 q 178 -253 99 -282 z "},"İ":{"ha":321,"x_min":136,"x_max":183,"o":"m 153 1194 l 167 1194 q 183 1178 183 1194 l 183 1092 q 167 1075 183 1075 l 153 1075 q 136 1092 136 1075 l 136 1178 q 153 1194 136 1194 m 178 0 l 143 0 l 143 958 l 178 958 l 178 0 z "},"ı":{"ha":306,"x_min":136,"x_max":169,"o":"m 169 0 l 136 0 l 136 667 l 169 667 l 169 0 z "},"Ĳ":{"ha":771,"x_min":143,"x_max":632,"o":"m 178 0 l 143 0 l 143 958 l 178 958 l 178 0 m 632 958 l 632 160 q 463 -8 632 -10 q 374 0 424 -8 l 378 22 l 458 22 q 597 161 597 22 l 597 958 l 632 958 z "},"ĳ":{"ha":611,"x_min":129,"x_max":482,"o":"m 146 943 l 160 943 q 176 926 176 943 l 176 840 q 160 824 176 824 l 146 824 q 129 840 129 824 l 129 926 q 146 943 129 943 m 451 943 l 465 943 q 482 926 482 943 l 482 840 q 465 824 482 824 l 451 824 q 435 840 435 824 l 435 926 q 451 943 435 943 m 169 0 l 136 0 l 136 667 l 169 667 l 169 0 m 475 667 l 475 -64 q 383 -292 475 -189 l 365 -278 q 442 -64 442 -176 l 442 667 l 475 667 z "},"Ķ":{"ha":781,"x_min":143,"x_max":735,"o":"m 735 0 l 693 0 l 332 485 l 174 485 q 176 365 176 442 l 176 0 l 143 0 l 143 958 l 176 958 l 176 631 q 174 515 176 599 l 332 515 l 669 958 l 711 958 l 390 535 q 360 501 375 514 l 360 499 q 390 467 385 474 l 735 0 m 418 -90 l 429 -90 q 444 -106 444 -90 l 444 -186 q 422 -346 442 -278 l 407 -340 q 411 -199 411 -264 q 405 -194 407 -199 q 404 -186 403 -190 l 404 -106 q 418 -90 403 -90 z "},"ķ":{"ha":657,"x_min":131,"x_max":611,"o":"m 611 0 l 568 0 l 276 367 l 161 367 q 164 246 164 324 l 164 0 l 131 0 l 131 972 l 167 972 l 167 511 q 161 397 167 451 l 276 397 l 544 667 l 589 667 l 338 410 q 306 382 318 390 l 306 379 q 338 344 329 356 l 611 0 m 356 -90 l 367 -90 q 382 -106 382 -90 l 382 -186 q 360 -346 379 -278 l 344 -340 q 349 -199 349 -264 q 342 -194 344 -199 q 342 -186 340 -190 l 342 -106 q 356 -90 340 -90 z "},"Ĺ":{"ha":704,"x_min":90,"x_max":665,"o":"m 322 1218 l 110 1022 l 90 1040 l 297 1242 l 322 1218 m 174 958 l 174 144 q 206 63 174 94 q 288 31 238 31 l 665 31 l 665 6 q 281 0 538 0 q 179 40 219 0 q 139 142 139 81 l 139 958 l 174 958 z "},"ĺ":{"ha":375,"x_min":83,"x_max":361,"o":"m 315 1250 l 103 1054 l 83 1072 l 290 1274 l 315 1250 m 165 972 l 165 133 q 194 51 165 79 q 276 22 224 22 l 357 22 l 361 0 q 272 -8 333 -8 q 170 28 208 -8 q 132 132 132 65 l 132 972 l 165 972 z "},"Ļ":{"ha":704,"x_min":139,"x_max":665,"o":"m 174 958 l 174 144 q 206 63 174 94 q 288 31 238 31 l 665 31 l 665 6 q 281 0 538 0 q 179 40 219 0 q 139 142 139 81 l 139 958 l 174 958 m 413 -104 l 424 -104 q 439 -119 439 -104 l 439 -200 q 417 -360 436 -292 l 401 -354 q 406 -212 406 -276 q 399 -208 401 -212 q 399 -200 397 -204 l 399 -119 q 413 -104 397 -104 z "},"ļ":{"ha":375,"x_min":132,"x_max":361,"o":"m 165 972 l 165 133 q 194 51 165 79 q 276 22 224 22 l 357 22 l 361 0 q 272 -8 333 -8 q 170 28 208 -8 q 132 132 132 65 l 132 972 l 165 972 m 225 -104 l 236 -104 q 251 -119 251 -104 l 251 -200 q 229 -360 249 -292 l 214 -354 q 218 -212 218 -276 q 212 -208 214 -212 q 211 -200 210 -204 l 211 -119 q 225 -104 210 -104 z "},"Ľ":{"ha":704,"x_min":139,"x_max":665,"o":"m 396 958 l 407 958 q 422 943 422 958 l 422 863 q 400 703 419 771 l 385 708 q 389 850 389 785 q 383 854 385 850 q 382 863 381 858 l 382 943 q 396 958 381 958 m 174 958 l 174 144 q 206 63 174 94 q 288 31 238 31 l 665 31 l 665 6 q 281 0 538 0 q 179 40 219 0 q 139 142 139 81 l 139 958 l 174 958 z "},"ľ":{"ha":375,"x_min":132,"x_max":361,"o":"m 311 974 l 321 974 q 336 960 336 974 l 336 878 q 314 718 333 786 l 300 724 q 304 865 304 801 q 298 869 300 865 q 297 878 296 874 l 297 960 q 311 974 296 974 m 165 972 l 165 133 q 194 51 165 79 q 276 22 224 22 l 357 22 l 361 0 q 272 -8 333 -8 q 170 28 208 -8 q 132 132 132 65 l 132 972 l 165 972 z "},"Ŀ":{"ha":704,"x_min":139,"x_max":665,"o":"m 174 958 l 174 144 q 206 63 174 94 q 288 31 238 31 l 665 31 l 665 6 q 281 0 538 0 q 179 40 219 0 q 139 142 139 81 l 139 958 l 174 958 m 518 460 l 504 460 q 488 476 488 460 l 488 563 q 504 579 488 579 l 518 579 q 535 563 535 579 l 535 476 q 518 460 535 460 z "},"ŀ":{"ha":415,"x_min":132,"x_max":367,"o":"m 165 972 l 165 133 q 194 51 165 79 q 276 22 224 22 l 357 22 l 361 0 q 272 -8 333 -8 q 170 28 208 -8 q 132 132 132 65 l 132 972 l 165 972 m 350 482 l 336 482 q 319 499 319 482 l 319 585 q 336 601 319 601 l 350 601 q 367 585 367 601 l 367 499 q 350 482 367 482 z "},"Ł":{"ha":710,"x_min":38,"x_max":671,"o":"m 671 31 l 671 6 q 286 0 543 0 q 185 40 225 0 q 144 142 144 81 l 144 496 l 38 449 l 38 478 l 144 525 l 144 958 l 179 958 l 179 540 l 358 619 l 358 590 l 179 511 l 179 144 q 211 63 179 94 q 293 31 243 31 l 671 31 z "},"ł":{"ha":419,"x_min":43,"x_max":394,"o":"m 390 22 l 394 0 q 306 -8 367 -8 q 203 28 242 -8 q 165 132 165 65 l 165 504 l 43 450 l 43 479 l 165 533 l 165 972 l 199 972 l 199 547 l 364 621 l 364 592 l 199 518 l 199 133 q 228 51 199 79 q 310 22 257 22 l 390 22 z "},"Ń":{"ha":956,"x_min":143,"x_max":813,"o":"m 663 1218 l 450 1022 l 431 1040 l 638 1242 l 663 1218 m 813 958 l 813 21 q 792 0 813 0 l 733 0 q 708 15 717 0 l 264 833 q 238 880 256 849 q 213 928 221 911 l 178 928 l 178 832 l 178 0 l 143 0 l 143 938 q 164 958 143 958 l 218 958 q 243 943 236 958 l 678 143 l 739 31 l 778 31 l 778 156 l 778 958 l 813 958 z "},"ń":{"ha":792,"x_min":132,"x_max":665,"o":"m 360 769 l 340 788 l 547 989 l 572 965 l 360 769 m 157 667 l 161 544 q 486 683 336 683 q 665 501 665 683 l 665 0 l 632 0 l 632 497 q 479 651 632 651 q 338 619 408 651 q 165 515 268 588 l 165 0 l 132 0 l 132 667 l 157 667 z "},"Ņ":{"ha":956,"x_min":143,"x_max":813,"o":"m 813 958 l 813 21 q 792 0 813 0 l 733 0 q 708 15 717 0 l 264 833 q 238 880 256 849 q 213 928 221 911 l 178 928 l 178 832 l 178 0 l 143 0 l 143 938 q 164 958 143 958 l 218 958 q 243 943 236 958 l 678 143 l 739 31 l 778 31 l 778 156 l 778 958 l 813 958 m 453 -90 l 464 -90 q 479 -106 479 -90 l 479 -186 q 457 -346 476 -278 l 442 -340 q 446 -199 446 -264 q 440 -194 442 -199 q 439 -186 438 -190 l 439 -106 q 453 -90 438 -90 z "},"ņ":{"ha":792,"x_min":132,"x_max":665,"o":"m 157 667 l 161 544 q 486 683 336 683 q 665 501 665 683 l 665 0 l 632 0 l 632 497 q 479 651 632 651 q 338 619 408 651 q 165 515 268 588 l 165 0 l 132 0 l 132 667 l 157 667 m 397 -90 l 408 -90 q 424 -106 424 -90 l 424 -186 q 401 -346 421 -278 l 386 -340 q 390 -199 390 -264 q 384 -194 386 -199 q 383 -186 382 -190 l 383 -106 q 397 -90 382 -90 z "},"Ň":{"ha":956,"x_min":143,"x_max":813,"o":"m 701 1206 l 511 1043 l 486 1043 l 296 1206 l 314 1222 l 493 1081 l 504 1081 l 685 1222 l 701 1206 m 813 958 l 813 21 q 792 0 813 0 l 733 0 q 708 15 717 0 l 264 833 q 238 880 256 849 q 213 928 221 911 l 178 928 l 178 832 l 178 0 l 143 0 l 143 938 q 164 958 143 958 l 218 958 q 243 943 236 958 l 678 143 l 739 31 l 778 31 l 778 156 l 778 958 l 813 958 z "},"ň":{"ha":792,"x_min":132,"x_max":665,"o":"m 396 790 l 206 953 l 224 969 l 403 828 l 414 828 l 594 969 l 611 953 l 421 790 l 396 790 m 157 667 l 161 544 q 486 683 336 683 q 665 501 665 683 l 665 0 l 632 0 l 632 497 q 479 651 632 651 q 338 619 408 651 q 165 515 268 588 l 165 0 l 132 0 l 132 667 l 157 667 z "},"Ŋ":{"ha":956,"x_min":143,"x_max":813,"o":"m 813 958 l 813 -140 q 643 -308 813 -310 q 554 -300 604 -308 l 558 -278 l 639 -278 q 778 -139 778 -278 l 778 0 l 733 0 q 708 15 717 0 l 264 833 q 238 880 256 849 q 213 928 221 911 l 178 928 l 178 831 l 178 0 l 143 0 l 143 938 q 164 958 143 958 l 218 958 q 243 943 236 958 l 678 143 l 739 31 l 778 31 l 778 156 l 778 958 l 813 958 z "},"ŋ":{"ha":792,"x_min":132,"x_max":665,"o":"m 157 667 l 161 544 q 486 683 336 683 q 665 501 665 683 l 665 -124 q 627 -251 665 -208 q 511 -292 589 -293 q 436 -283 506 -292 l 440 -261 l 507 -261 q 632 -122 632 -261 l 632 497 q 479 651 632 651 q 338 619 408 651 q 165 515 268 588 l 165 0 l 132 0 l 132 667 l 157 667 z "},"Ō":{"ha":919,"x_min":106,"x_max":814,"o":"m 642 1117 l 281 1117 l 281 1149 l 642 1149 l 642 1117 m 184 865 q 223 920 184 865 q 460 975 263 975 q 735 865 657 975 q 814 479 814 754 q 735 94 814 204 q 460 -17 657 -17 q 184 94 263 -17 q 106 479 106 204 q 184 865 106 754 m 708 840 q 673 892 708 840 q 460 943 638 943 q 212 840 282 943 q 142 479 142 738 q 212 118 142 221 q 460 15 282 15 q 708 118 638 15 q 778 479 778 221 q 708 840 778 738 z "},"ō":{"ha":778,"x_min":97,"x_max":681,"o":"m 568 864 l 207 864 l 207 896 l 568 896 l 568 864 m 163 605 q 195 644 163 605 q 389 683 228 683 q 615 605 550 683 q 681 333 681 526 q 615 62 681 140 q 389 -17 550 -17 q 163 62 228 -17 q 97 333 97 140 q 163 605 97 526 m 589 582 q 560 617 589 582 q 389 651 532 651 q 189 582 246 651 q 132 333 132 513 q 189 85 132 154 q 389 15 246 15 q 589 85 532 15 q 646 333 646 154 q 589 582 646 513 z "},"Ő":{"ha":919,"x_min":106,"x_max":814,"o":"m 511 1231 l 349 1019 l 326 1033 l 481 1251 l 511 1231 m 706 1231 l 543 1019 l 521 1033 l 675 1251 l 706 1231 m 184 865 q 223 920 184 865 q 460 975 263 975 q 735 865 657 975 q 814 479 814 754 q 735 94 814 204 q 460 -17 657 -17 q 184 94 263 -17 q 106 479 106 204 q 184 865 106 754 m 708 840 q 673 892 708 840 q 460 943 638 943 q 212 840 282 943 q 142 479 142 738 q 212 118 142 221 q 460 15 282 15 q 708 118 638 15 q 778 479 778 221 q 708 840 778 738 z "},"ő":{"ha":778,"x_min":97,"x_max":681,"o":"m 438 978 l 275 767 l 253 781 l 407 999 l 438 978 m 632 978 l 469 767 l 447 781 l 601 999 l 632 978 m 163 605 q 195 644 163 605 q 389 683 228 683 q 615 605 550 683 q 681 333 681 526 q 615 62 681 140 q 389 -17 550 -17 q 163 62 228 -17 q 97 333 97 140 q 163 605 97 526 m 589 582 q 560 617 589 582 q 389 651 532 651 q 189 582 246 651 q 132 333 132 513 q 189 85 132 154 q 389 15 246 15 q 589 85 532 15 q 646 333 646 154 q 589 582 646 513 z "},"Œ":{"ha":1235,"x_min":106,"x_max":1154,"o":"m 1154 928 l 781 928 q 699 896 731 928 q 667 814 667 864 l 667 528 l 1094 528 l 1094 499 l 667 499 l 667 144 q 699 63 667 94 q 781 31 731 31 l 1154 31 l 1154 6 q 774 0 1026 0 q 683 29 724 0 q 460 -17 581 -17 q 184 94 263 -17 q 106 479 106 204 q 184 865 106 754 q 460 975 263 975 q 576 965 531 975 q 683 929 622 956 q 774 958 721 958 q 1154 953 1026 958 l 1154 928 m 632 142 l 632 817 q 660 904 632 868 q 460 943 567 943 q 212 842 282 943 q 142 479 142 740 q 212 118 142 221 q 460 15 282 15 q 660 54 567 15 q 632 142 632 90 z "},"œ":{"ha":1281,"x_min":97,"x_max":1194,"o":"m 996 315 l 681 315 q 747 83 685 150 q 947 15 810 15 q 1174 33 1063 15 l 1179 8 q 943 -17 1099 -17 q 758 27 825 -17 q 664 167 690 71 q 575 26 640 68 q 389 -17 510 -17 q 163 62 228 -17 q 97 333 97 140 q 163 605 97 526 q 389 683 228 683 q 574 642 508 683 q 664 504 639 600 q 753 642 689 600 q 932 683 817 683 q 1194 494 1190 683 q 1151 356 1196 396 q 996 315 1106 315 m 189 85 q 217 50 189 85 q 389 15 246 15 q 589 85 532 15 q 646 333 646 154 q 589 582 646 513 q 389 651 532 651 q 189 582 246 651 q 132 333 132 513 q 189 85 132 154 m 681 346 l 996 346 q 1124 378 1088 346 q 1160 492 1161 411 q 933 651 1156 651 q 739 583 796 651 q 681 346 682 514 z "},"Ŕ":{"ha":843,"x_min":143,"x_max":761,"o":"m 374 1022 l 354 1040 l 561 1242 l 586 1218 l 374 1022 m 761 0 l 722 0 l 619 303 q 463 431 575 431 q 178 436 272 431 l 178 0 l 143 0 l 143 958 q 450 969 254 969 q 666 913 606 969 q 726 700 726 857 q 685 515 726 572 q 550 444 644 458 l 550 439 q 656 307 617 418 l 761 0 m 178 463 l 450 463 q 638 515 585 465 q 690 700 690 564 q 638 888 690 839 q 450 938 585 938 q 178 935 272 938 l 178 463 z "},"ŕ":{"ha":532,"x_min":132,"x_max":500,"o":"m 260 769 l 240 788 l 447 989 l 472 965 l 260 769 m 500 683 l 493 651 l 469 651 q 334 619 401 651 q 165 515 267 588 l 165 0 l 132 0 l 132 667 l 157 667 l 161 544 q 474 683 338 683 l 500 683 z "},"Ŗ":{"ha":843,"x_min":143,"x_max":761,"o":"m 761 0 l 722 0 l 619 303 q 463 431 575 431 q 178 436 272 431 l 178 0 l 143 0 l 143 958 q 450 969 254 969 q 666 913 606 969 q 726 700 726 857 q 685 515 726 572 q 550 444 644 458 l 550 439 q 656 307 617 418 l 761 0 m 178 463 l 450 463 q 638 515 585 465 q 690 700 690 564 q 638 888 690 839 q 450 938 585 938 q 178 935 272 938 l 178 463 m 450 -90 l 461 -90 q 476 -106 476 -90 l 476 -186 q 454 -346 474 -278 l 439 -340 q 443 -199 443 -264 q 437 -194 439 -199 q 436 -186 435 -190 l 436 -106 q 450 -90 435 -90 z "},"ŗ":{"ha":532,"x_min":121,"x_max":500,"o":"m 500 683 l 493 651 l 469 651 q 334 619 401 651 q 165 515 267 588 l 165 0 l 132 0 l 132 667 l 157 667 l 161 544 q 474 683 338 683 l 500 683 m 135 -90 l 146 -90 q 161 -106 161 -90 l 161 -186 q 139 -346 158 -278 l 124 -340 q 128 -199 128 -262 q 122 -194 124 -199 q 121 -186 119 -190 l 121 -106 q 135 -90 119 -90 z "},"Ř":{"ha":843,"x_min":143,"x_max":761,"o":"m 410 1043 l 219 1206 l 238 1222 l 417 1081 l 428 1081 l 608 1222 l 625 1206 l 435 1043 l 410 1043 m 761 0 l 722 0 l 619 303 q 463 431 575 431 q 178 436 272 431 l 178 0 l 143 0 l 143 958 q 450 969 254 969 q 666 913 606 969 q 726 700 726 857 q 685 515 726 572 q 550 444 644 458 l 550 439 q 656 307 617 418 l 761 0 m 178 463 l 450 463 q 638 515 585 465 q 690 700 690 564 q 638 888 690 839 q 450 938 585 938 q 178 935 272 938 l 178 463 z "},"ř":{"ha":532,"x_min":106,"x_max":511,"o":"m 296 790 l 106 953 l 124 969 l 303 828 l 314 828 l 494 969 l 511 953 l 321 790 l 296 790 m 157 667 l 161 544 q 474 683 338 683 l 500 683 l 493 651 l 469 651 q 334 619 401 651 q 165 515 267 588 l 165 0 l 132 0 l 132 667 l 157 667 z "},"Ś":{"ha":769,"x_min":92,"x_max":683,"o":"m 554 1218 l 342 1022 l 322 1040 l 529 1242 l 554 1218 m 490 453 l 278 482 q 135 551 178 493 q 92 728 92 610 q 108 863 92 813 q 165 938 124 914 q 251 969 206 963 q 381 974 297 975 q 640 957 515 971 l 636 931 q 381 942 469 942 q 299 940 326 942 q 237 933 272 939 q 185 913 201 926 q 153 876 169 900 q 132 817 138 853 q 126 728 126 781 q 161 574 126 622 q 278 515 196 526 l 490 486 q 640 417 596 474 q 683 235 683 360 q 670 122 683 168 q 635 48 657 75 q 574 7 614 21 q 495 -11 535 -7 q 392 -15 456 -15 q 108 0 239 -15 l 113 26 q 393 17 257 15 q 513 25 469 18 q 589 55 556 32 q 635 121 622 78 q 649 235 649 164 q 613 394 649 347 q 490 453 578 442 z "},"ś":{"ha":693,"x_min":86,"x_max":607,"o":"m 517 965 l 304 769 l 285 788 l 492 989 l 517 965 m 456 307 l 231 335 q 122 383 158 343 q 86 507 86 424 q 140 655 86 624 q 332 683 194 686 q 590 667 469 681 l 586 642 q 332 653 453 651 q 251 653 279 654 q 194 644 224 651 q 151 622 164 638 q 128 578 138 606 q 119 507 119 550 q 147 405 119 436 q 231 367 175 374 l 456 339 q 607 169 607 319 q 591 69 607 107 q 538 14 575 32 q 458 -10 500 -4 q 344 -15 417 -15 q 103 0 214 -15 l 107 25 q 346 15 228 14 q 526 46 479 18 q 574 169 574 74 q 456 307 574 292 z "},"Ş":{"ha":769,"x_min":92,"x_max":683,"o":"m 490 453 l 278 482 q 135 551 178 493 q 92 728 92 610 q 108 863 92 813 q 165 938 124 914 q 251 969 206 963 q 381 974 297 975 q 640 957 515 971 l 636 931 q 381 942 469 942 q 299 940 326 942 q 237 933 272 939 q 185 913 201 926 q 153 876 169 900 q 132 817 138 853 q 126 728 126 781 q 161 574 126 622 q 278 515 196 526 l 490 486 q 640 417 596 474 q 683 235 683 360 q 670 122 683 168 q 635 48 657 75 q 574 7 614 21 q 495 -11 535 -7 q 392 -15 456 -15 q 108 0 239 -15 l 113 26 q 393 17 257 15 q 513 25 469 18 q 589 55 556 32 q 635 121 622 78 q 649 235 649 164 q 613 394 649 347 q 490 453 578 442 m 347 -103 l 351 -83 q 433 -103 406 -81 q 460 -174 461 -125 q 406 -288 458 -246 q 267 -319 353 -331 l 272 -299 q 386 -265 343 -301 q 429 -174 429 -228 q 411 -119 429 -135 q 347 -103 393 -104 z "},"ş":{"ha":693,"x_min":86,"x_max":607,"o":"m 456 307 l 231 335 q 122 383 158 343 q 86 507 86 424 q 140 655 86 624 q 332 683 194 686 q 590 667 469 681 l 586 642 q 332 653 453 651 q 251 653 279 654 q 194 644 224 651 q 151 622 164 638 q 128 578 138 606 q 119 507 119 550 q 147 405 119 436 q 231 367 175 374 l 456 339 q 607 169 607 319 q 591 69 607 107 q 538 14 575 32 q 458 -10 500 -4 q 344 -15 417 -15 q 103 0 214 -15 l 107 25 q 346 15 228 14 q 526 46 479 18 q 574 169 574 74 q 456 307 574 292 m 300 -103 l 304 -83 q 386 -103 358 -81 q 413 -174 414 -125 q 358 -288 411 -246 q 219 -319 306 -331 l 225 -299 q 339 -265 296 -301 q 382 -174 382 -228 q 364 -119 382 -135 q 300 -103 346 -104 z "},"Š":{"ha":769,"x_min":92,"x_max":683,"o":"m 593 1206 l 403 1043 l 378 1043 l 188 1206 l 206 1222 l 385 1081 l 396 1081 l 576 1222 l 593 1206 m 490 453 l 278 482 q 135 551 178 493 q 92 728 92 610 q 108 863 92 813 q 165 938 124 914 q 251 969 206 963 q 381 974 297 975 q 640 957 515 971 l 636 931 q 381 942 469 942 q 299 940 326 942 q 237 933 272 939 q 185 913 201 926 q 153 876 169 900 q 132 817 138 853 q 126 728 126 781 q 161 574 126 622 q 278 515 196 526 l 490 486 q 640 417 596 474 q 683 235 683 360 q 670 122 683 168 q 635 48 657 75 q 574 7 614 21 q 495 -11 535 -7 q 392 -15 456 -15 q 108 0 239 -15 l 113 26 q 393 17 257 15 q 513 25 469 18 q 589 55 556 32 q 635 121 622 78 q 649 235 649 164 q 613 394 649 347 q 490 453 578 442 z "},"š":{"ha":693,"x_min":86,"x_max":607,"o":"m 556 953 l 365 790 l 340 790 l 150 953 l 168 969 l 347 828 l 358 828 l 539 969 l 556 953 m 456 307 l 231 335 q 122 383 158 343 q 86 507 86 424 q 140 655 86 624 q 332 683 194 686 q 590 667 469 681 l 586 642 q 332 653 453 651 q 251 653 279 654 q 194 644 224 651 q 151 622 164 638 q 128 578 138 606 q 119 507 119 550 q 147 405 119 436 q 231 367 175 374 l 456 339 q 607 169 607 319 q 591 69 607 107 q 538 14 575 32 q 458 -10 500 -4 q 344 -15 417 -15 q 103 0 214 -15 l 107 25 q 346 15 228 14 q 526 46 479 18 q 574 169 574 74 q 456 307 574 292 z "},"Ţ":{"ha":783,"x_min":38,"x_max":746,"o":"m 746 958 l 746 928 l 408 928 l 408 0 l 374 0 l 374 928 l 38 928 l 38 958 l 746 958 m 347 -87 l 351 -68 q 433 -87 406 -65 q 460 -158 461 -110 q 406 -273 458 -231 q 267 -304 353 -315 l 272 -283 q 386 -249 343 -286 q 429 -158 429 -212 q 411 -104 429 -119 q 347 -87 393 -89 z "},"ţ":{"ha":482,"x_min":47,"x_max":449,"o":"m 201 636 l 201 133 q 313 22 201 22 l 435 22 l 439 0 q 321 -8 383 -8 q 168 132 168 -8 l 168 636 l 47 636 l 47 660 l 168 667 l 168 876 l 201 876 l 201 667 l 449 667 l 449 636 l 201 636 m 235 -96 l 239 -76 q 321 -96 293 -74 q 347 -167 349 -118 q 293 -281 346 -239 q 154 -312 240 -324 l 160 -292 q 274 -258 231 -294 q 317 -167 317 -221 q 299 -112 317 -128 q 235 -96 281 -97 z "},"Ť":{"ha":783,"x_min":38,"x_max":746,"o":"m 382 1043 l 192 1206 l 210 1222 l 389 1081 l 400 1081 l 581 1222 l 597 1206 l 407 1043 l 382 1043 m 746 928 l 408 928 l 408 0 l 374 0 l 374 928 l 38 928 l 38 958 l 746 958 l 746 928 z "},"ť":{"ha":482,"x_min":47,"x_max":449,"o":"m 371 781 l 356 786 q 360 928 360 863 q 353 932 356 928 q 353 940 351 936 l 353 1021 q 367 1036 351 1036 l 378 1036 q 393 1021 393 1036 l 393 940 q 371 781 390 849 m 201 636 l 201 133 q 313 22 201 22 l 435 22 l 439 0 q 321 -8 383 -8 q 168 132 168 -8 l 168 636 l 47 636 l 47 660 l 168 667 l 168 876 l 201 876 l 201 667 l 449 667 l 449 636 l 201 636 z "},"Ŧ":{"ha":783,"x_min":38,"x_max":746,"o":"m 408 928 l 408 590 l 615 590 l 615 563 l 408 563 l 408 0 l 374 0 l 374 563 l 158 563 l 158 590 l 374 590 l 374 928 l 38 928 l 38 958 l 746 958 l 746 928 l 408 928 z "},"ŧ":{"ha":482,"x_min":47,"x_max":449,"o":"m 201 636 l 201 472 l 419 472 l 419 444 l 201 444 l 201 133 q 313 22 201 22 l 435 22 l 439 0 q 321 -8 383 -8 q 168 132 168 -8 l 168 444 l 65 444 l 65 472 l 168 472 l 168 636 l 47 636 l 47 660 l 168 667 l 168 876 l 201 876 l 201 667 l 449 667 l 449 636 l 201 636 z "},"Ū":{"ha":926,"x_min":136,"x_max":790,"o":"m 646 1117 l 285 1117 l 285 1149 l 646 1149 l 646 1117 m 790 958 l 790 354 q 716 68 790 153 q 464 -17 642 -17 q 210 68 285 -17 q 136 354 136 153 l 136 958 l 171 958 l 171 354 q 237 92 171 168 q 464 15 303 15 q 690 92 624 15 q 756 354 756 168 l 756 958 l 790 958 z "},"ū":{"ha":778,"x_min":126,"x_max":646,"o":"m 569 864 l 208 864 l 208 896 l 569 896 l 569 864 m 646 667 l 646 0 l 621 0 l 617 122 q 306 -17 450 -17 q 126 165 126 -17 l 126 667 l 160 667 l 160 169 q 313 15 160 15 q 447 47 381 15 q 613 151 514 79 l 613 667 l 646 667 z "},"Ů":{"ha":926,"x_min":136,"x_max":790,"o":"m 371 1224 q 390 1243 371 1224 q 465 1263 410 1263 q 560 1224 521 1263 q 599 1131 599 1185 q 560 1037 599 1075 q 465 999 521 999 q 371 1037 410 999 q 332 1131 332 1075 q 371 1224 332 1185 m 540 1206 q 525 1221 540 1206 q 465 1236 510 1236 q 391 1206 421 1236 q 361 1131 361 1175 q 391 1055 361 1085 q 465 1025 421 1025 q 540 1055 510 1025 q 569 1131 569 1085 q 540 1206 569 1175 m 790 958 l 790 354 q 716 68 790 153 q 464 -17 642 -17 q 210 68 285 -17 q 136 354 136 153 l 136 958 l 171 958 l 171 354 q 237 92 171 168 q 464 15 303 15 q 690 92 624 15 q 756 354 756 168 l 756 958 l 790 958 z "},"ů":{"ha":778,"x_min":126,"x_max":646,"o":"m 483 784 q 464 765 483 784 q 389 746 444 746 q 294 784 333 746 q 256 878 256 822 q 294 971 256 932 q 389 1010 333 1010 q 483 971 444 1010 q 522 878 522 932 q 483 784 522 822 m 463 953 q 448 968 463 953 q 389 983 433 983 q 315 953 344 983 q 285 878 285 922 q 315 802 285 832 q 389 772 344 772 q 463 802 433 772 q 493 878 493 832 q 463 953 493 922 m 646 667 l 646 0 l 621 0 l 617 122 q 306 -17 450 -17 q 126 165 126 -17 l 126 667 l 160 667 l 160 169 q 313 15 160 15 q 447 47 381 15 q 613 151 514 79 l 613 667 l 646 667 z "},"Ű":{"ha":926,"x_min":136,"x_max":790,"o":"m 515 1231 l 353 1019 l 331 1033 l 485 1251 l 515 1231 m 710 1231 l 547 1019 l 525 1033 l 679 1251 l 710 1231 m 790 958 l 790 354 q 716 68 790 153 q 464 -17 642 -17 q 210 68 285 -17 q 136 354 136 153 l 136 958 l 171 958 l 171 354 q 237 92 171 168 q 464 15 303 15 q 690 92 624 15 q 756 354 756 168 l 756 958 l 790 958 z "},"ű":{"ha":778,"x_min":126,"x_max":646,"o":"m 276 767 l 254 781 l 408 999 l 439 978 l 276 767 m 471 767 l 449 781 l 603 999 l 633 978 l 471 767 m 646 667 l 646 0 l 621 0 l 617 122 q 306 -17 450 -17 q 126 165 126 -17 l 126 667 l 160 667 l 160 169 q 313 15 160 15 q 447 47 381 15 q 613 151 514 79 l 613 667 l 646 667 z "},"Ų":{"ha":926,"x_min":136,"x_max":790,"o":"m 790 958 l 790 354 q 727 82 790 168 q 517 -15 664 -4 q 399 -187 431 -101 q 413 -273 376 -251 q 528 -265 449 -294 l 532 -282 q 384 -293 426 -326 q 368 -185 342 -260 q 488 -17 399 -99 l 464 -17 q 210 68 285 -17 q 136 354 136 153 l 136 958 l 171 958 l 171 354 q 237 92 171 168 q 464 15 303 15 q 690 92 624 15 q 756 354 756 168 l 756 958 l 790 958 z "},"ų":{"ha":778,"x_min":126,"x_max":658,"o":"m 654 -253 l 658 -269 q 510 -281 553 -314 q 494 -172 468 -247 q 621 3 525 -85 l 617 122 q 306 -17 450 -17 q 126 165 126 -17 l 126 667 l 160 667 l 160 169 q 313 15 160 15 q 447 47 381 15 q 613 151 514 79 l 613 667 l 646 667 l 646 0 q 525 -175 556 -90 q 539 -260 503 -239 q 654 -253 575 -282 z "},"Ŵ":{"ha":1292,"x_min":46,"x_max":1246,"o":"m 847 1060 l 832 1043 l 651 1185 l 640 1185 l 461 1043 l 444 1060 l 633 1222 l 658 1222 l 847 1060 m 1246 958 l 992 14 q 972 0 988 0 l 914 0 q 894 15 899 0 l 690 821 l 663 928 l 629 928 l 601 821 l 397 15 q 378 0 393 0 l 319 0 q 300 14 304 0 l 46 958 l 82 958 l 304 126 l 329 31 l 368 31 l 392 125 l 600 943 q 619 958 604 958 l 672 958 q 692 943 688 958 l 900 126 q 912 79 904 111 q 924 31 919 47 l 963 31 l 988 125 l 1210 958 l 1246 958 z "},"ŵ":{"ha":1128,"x_min":47,"x_max":1081,"o":"m 764 807 l 749 790 l 568 932 l 557 932 l 378 790 l 361 807 l 550 969 l 575 969 l 764 807 m 1081 667 l 849 13 q 831 0 844 0 l 794 0 q 776 13 782 0 l 603 536 q 587 586 597 553 q 571 636 576 619 l 557 636 l 524 536 l 351 13 q 333 0 346 0 l 297 0 q 279 13 283 0 l 47 667 l 83 667 l 275 119 q 290 74 281 104 q 306 31 300 44 l 325 31 l 354 121 l 529 654 q 547 667 535 667 l 581 667 q 599 654 593 667 l 774 121 l 803 31 l 822 31 q 838 76 828 46 q 853 121 847 106 l 1044 667 l 1081 667 z "},"Ŷ":{"ha":751,"x_min":31,"x_max":719,"o":"m 190 1043 l 174 1060 l 363 1222 l 388 1222 l 576 1060 l 561 1043 l 381 1185 l 369 1185 l 190 1043 m 393 357 l 393 0 l 358 0 l 358 357 l 31 958 l 69 958 l 319 496 q 372 401 356 429 l 379 401 q 403 444 385 411 q 431 494 422 478 l 681 958 l 719 958 l 393 357 z "},"ŷ":{"ha":703,"x_min":42,"x_max":663,"o":"m 169 790 l 153 807 l 342 969 l 367 969 l 556 807 l 540 790 l 360 932 l 349 932 l 169 790 m 663 667 l 356 -65 q 269 -214 315 -160 q 140 -292 222 -268 l 132 -272 q 251 -190 208 -243 q 326 -53 294 -136 l 347 0 l 333 0 q 315 11 322 0 l 42 667 l 78 667 l 313 103 l 343 31 l 361 31 l 392 106 l 626 667 l 663 667 z "},"Ÿ":{"ha":751,"x_min":31,"x_max":719,"o":"m 260 1081 l 246 1081 q 232 1096 232 1081 l 232 1174 q 246 1189 232 1189 l 260 1189 q 274 1174 274 1189 l 274 1096 q 260 1081 274 1081 m 506 1081 l 492 1081 q 478 1096 478 1081 l 478 1174 q 492 1189 478 1189 l 506 1189 q 519 1174 519 1189 l 519 1096 q 506 1081 519 1081 m 393 357 l 393 0 l 358 0 l 358 357 l 31 958 l 69 958 l 319 496 q 372 401 356 429 l 379 401 q 403 444 385 411 q 431 494 422 478 l 681 958 l 719 958 l 393 357 z "},"Ź":{"ha":775,"x_min":72,"x_max":704,"o":"m 340 1022 l 321 1040 l 528 1242 l 553 1218 l 340 1022 m 704 32 l 704 0 l 72 0 l 72 32 l 657 926 l 76 926 l 76 958 l 697 958 l 697 926 l 113 32 l 704 32 z "},"ź":{"ha":693,"x_min":74,"x_max":619,"o":"m 296 769 l 276 788 l 483 989 l 508 965 l 296 769 m 619 31 l 619 0 l 74 0 l 74 31 l 572 636 l 78 636 l 78 667 l 615 667 l 615 636 l 117 31 l 619 31 z "},"Ż":{"ha":775,"x_min":72,"x_max":704,"o":"m 394 1075 l 381 1075 q 364 1092 364 1075 l 364 1178 q 381 1194 364 1194 l 394 1194 q 411 1178 411 1194 l 411 1092 q 394 1075 411 1075 m 704 32 l 704 0 l 72 0 l 72 32 l 657 926 l 76 926 l 76 958 l 697 958 l 697 926 l 113 32 l 704 32 z "},"ż":{"ha":693,"x_min":74,"x_max":619,"o":"m 350 822 l 336 822 q 319 839 319 822 l 319 925 q 336 942 319 942 l 350 942 q 367 925 367 942 l 367 839 q 350 822 367 822 m 619 31 l 619 0 l 74 0 l 74 31 l 572 636 l 78 636 l 78 667 l 615 667 l 615 636 l 117 31 l 619 31 z "},"Ž":{"ha":775,"x_min":72,"x_max":704,"o":"m 376 1043 l 186 1206 l 204 1222 l 383 1081 l 394 1081 l 575 1222 l 592 1206 l 401 1043 l 376 1043 m 704 32 l 704 0 l 72 0 l 72 32 l 657 926 l 76 926 l 76 958 l 697 958 l 697 926 l 113 32 l 704 32 z "},"ž":{"ha":693,"x_min":74,"x_max":619,"o":"m 332 790 l 142 953 l 160 969 l 339 828 l 350 828 l 531 969 l 547 953 l 357 790 l 332 790 m 619 31 l 619 0 l 74 0 l 74 31 l 572 636 l 78 636 l 78 667 l 615 667 l 615 636 l 117 31 l 619 31 z "},"ƒ":{"ha":561,"x_min":-86,"x_max":536,"o":"m 535 940 l 438 940 q 317 906 354 940 q 272 786 281 872 l 249 535 l 481 535 l 476 503 l 244 503 l 197 4 q 148 -135 189 -90 q 21 -181 107 -181 q -86 -175 -47 -181 l -85 -150 l 13 -150 q 122 -116 89 -150 q 164 4 156 -82 l 211 503 l 79 503 l 82 528 l 215 535 l 239 786 q 292 926 247 881 q 429 971 336 971 q 536 965 497 971 l 535 940 z "},"Ș":{"ha":769,"x_min":92,"x_max":683,"o":"m 490 453 l 278 482 q 135 551 178 493 q 92 728 92 610 q 108 863 92 813 q 165 938 124 914 q 251 969 206 963 q 381 974 297 975 q 640 957 515 971 l 636 931 q 381 942 469 942 q 299 940 326 942 q 237 933 272 939 q 185 913 201 926 q 153 876 169 900 q 132 817 138 853 q 126 728 126 781 q 161 574 126 622 q 278 515 196 526 l 490 486 q 640 417 596 474 q 683 235 683 360 q 670 122 683 168 q 635 48 657 75 q 574 7 614 21 q 495 -11 535 -7 q 392 -15 456 -15 q 108 0 239 -15 l 113 26 q 393 17 257 15 q 513 25 469 18 q 589 55 556 32 q 635 121 622 78 q 649 235 649 164 q 613 394 649 347 q 490 453 578 442 m 400 -90 l 411 -90 q 426 -106 426 -90 l 426 -186 q 404 -346 424 -278 l 389 -340 q 393 -199 393 -264 q 387 -194 389 -199 q 386 -186 385 -190 l 386 -106 q 400 -90 385 -90 z "},"ș":{"ha":693,"x_min":86,"x_max":607,"o":"m 456 307 l 231 335 q 122 383 158 343 q 86 507 86 424 q 140 655 86 624 q 332 683 194 686 q 590 667 469 681 l 586 642 q 332 653 453 651 q 251 653 279 654 q 194 644 224 651 q 151 622 164 638 q 128 578 138 606 q 119 507 119 550 q 147 405 119 436 q 231 367 175 374 l 456 339 q 607 169 607 319 q 591 69 607 107 q 538 14 575 32 q 458 -10 500 -4 q 344 -15 417 -15 q 103 0 214 -15 l 107 25 q 346 15 228 14 q 526 46 479 18 q 574 169 574 74 q 456 307 574 292 m 357 -90 l 368 -90 q 383 -106 383 -90 l 383 -186 q 361 -346 381 -278 l 346 -340 q 350 -199 350 -264 q 344 -194 346 -199 q 343 -186 342 -190 l 343 -106 q 357 -90 342 -90 z "},"Ț":{"ha":783,"x_min":38,"x_max":746,"o":"m 746 928 l 408 928 l 408 0 l 374 0 l 374 928 l 38 928 l 38 958 l 746 958 l 746 928 m 374 -90 l 385 -90 q 400 -106 400 -90 l 400 -186 q 378 -346 397 -278 l 363 -340 q 367 -199 367 -264 q 360 -194 363 -199 q 360 -186 358 -190 l 360 -106 q 374 -90 358 -90 z "},"ț":{"ha":482,"x_min":47,"x_max":449,"o":"m 201 636 l 201 133 q 313 22 201 22 l 435 22 l 439 0 q 321 -8 383 -8 q 168 132 168 -8 l 168 636 l 47 636 l 47 660 l 168 667 l 168 876 l 201 876 l 201 667 l 449 667 l 449 636 l 201 636 m 314 -90 l 325 -90 q 340 -106 340 -90 l 340 -186 q 318 -346 338 -278 l 303 -340 q 307 -199 307 -262 q 301 -194 303 -199 q 300 -186 299 -190 l 300 -106 q 314 -90 299 -90 z "},"ˆ":{"ha":544,"x_min":71,"x_max":474,"o":"m 474 815 l 458 799 l 278 940 l 267 940 l 88 799 l 71 815 l 260 978 l 285 978 l 474 815 z "},"ˇ":{"ha":544,"x_min":69,"x_max":475,"o":"m 475 961 l 285 799 l 260 799 l 69 961 l 88 978 l 267 836 l 278 836 l 458 978 l 475 961 z "},"˘":{"ha":496,"x_min":60,"x_max":438,"o":"m 413 954 l 438 949 q 387 833 438 875 q 250 790 336 790 q 111 833 163 790 q 60 949 60 875 l 85 954 q 129 858 85 892 q 250 824 174 824 q 369 858 325 824 q 413 954 413 893 z "},"˙":{"ha":286,"x_min":119,"x_max":167,"o":"m 136 939 l 150 939 q 167 922 167 939 l 167 836 q 150 819 167 819 l 136 819 q 119 836 119 819 l 119 922 q 136 939 119 939 z "},"˚":{"ha":406,"x_min":69,"x_max":336,"o":"m 108 979 q 128 999 108 979 q 203 1018 147 1018 q 297 979 258 1018 q 336 886 336 940 q 297 792 336 831 q 203 754 258 754 q 108 792 147 754 q 69 886 69 831 q 108 979 69 940 m 277 961 q 262 976 277 961 q 203 992 247 992 q 128 961 158 992 q 99 886 99 931 q 128 810 99 840 q 203 781 158 781 q 277 810 247 781 q 307 886 307 840 q 277 961 307 931 z "},"˛":{"ha":351,"x_min":76,"x_max":240,"o":"m 203 3 l 228 0 q 107 -175 138 -90 q 121 -260 85 -239 q 236 -253 157 -282 l 240 -269 q 92 -281 135 -314 q 76 -172 50 -247 q 203 3 107 -85 z "},"˜":{"ha":556,"x_min":76,"x_max":479,"o":"m 100 831 l 76 831 q 103 926 75 893 q 181 954 131 958 q 278 907 221 950 q 375 860 335 864 q 437 878 418 857 q 456 947 456 899 l 479 947 q 453 856 481 888 q 375 829 425 825 q 269 877 325 833 q 181 924 213 921 q 119 905 139 928 q 100 831 100 882 z "},"˝":{"ha":569,"x_min":89,"x_max":468,"o":"m 274 972 l 111 761 l 89 775 l 243 993 l 274 972 m 468 972 l 306 761 l 283 775 l 438 993 l 468 972 z "},"Δ":{"ha":853,"x_min":51,"x_max":801,"o":"m 801 31 l 801 0 l 51 0 l 51 31 l 407 958 l 446 958 l 801 31 m 461 828 l 426 921 q 409 873 421 904 q 392 826 397 842 l 88 31 l 765 31 l 461 828 z "},"Ω":{"ha":997,"x_min":76,"x_max":921,"o":"m 264 31 l 350 31 q 178 219 231 110 q 125 496 125 328 q 214 856 125 738 q 499 975 303 975 q 781 856 690 975 q 872 496 872 736 q 819 218 872 325 q 647 31 765 111 l 733 31 l 921 31 l 921 0 l 604 0 l 604 31 q 784 221 732 114 q 836 493 836 328 q 755 833 836 724 q 499 943 674 943 q 240 834 319 943 q 161 492 161 725 q 215 219 161 319 q 393 31 268 119 l 393 0 l 76 0 l 76 31 l 264 31 z "},"μ":{"ha":800,"x_min":138,"x_max":657,"o":"m 657 667 l 657 0 l 632 0 l 628 122 q 317 -17 461 -17 q 165 51 208 -17 q 171 -74 171 10 l 171 -292 l 138 -292 l 138 667 l 171 667 l 171 169 q 324 15 171 15 q 458 47 392 15 q 624 151 525 79 l 624 667 l 657 667 z "},"π":{"ha":889,"x_min":43,"x_max":846,"o":"m 846 638 l 692 638 l 692 0 l 658 0 l 658 638 l 231 638 l 231 0 l 197 0 l 197 638 l 43 638 l 43 667 l 846 667 l 846 638 z "},"Ё":{"ha":765,"x_min":135,"x_max":685,"o":"m 314 1115 l 300 1115 q 286 1131 286 1115 l 286 1208 q 300 1224 286 1224 l 314 1224 q 328 1208 328 1224 l 328 1131 q 314 1115 328 1115 m 560 1115 l 546 1115 q 532 1131 532 1115 l 532 1208 q 546 1224 532 1224 l 560 1224 q 574 1208 574 1224 l 574 1131 q 560 1115 574 1115 m 682 31 l 685 6 q 276 0 549 0 q 175 40 215 0 q 135 142 135 81 l 135 817 q 175 918 135 878 q 276 958 215 958 q 685 953 549 958 l 682 928 l 283 928 q 201 896 233 928 q 169 814 169 864 l 169 528 l 625 528 l 625 499 l 169 499 l 169 144 q 201 63 169 94 q 283 31 233 31 l 682 31 z "},"Ђ":{"ha":1039,"x_min":38,"x_max":958,"o":"m 408 928 l 408 488 q 569 575 497 550 q 729 600 642 600 q 902 533 846 600 q 958 313 958 467 q 608 1 958 -10 l 606 25 q 844 94 764 33 q 924 311 924 156 q 875 511 924 454 q 724 568 826 568 q 565 542 632 568 q 408 454 499 517 l 408 0 l 374 0 l 374 928 l 38 928 l 38 958 l 746 958 l 746 928 l 408 928 z "},"Ѓ":{"ha":714,"x_min":139,"x_max":676,"o":"m 578 1218 l 365 1022 l 346 1040 l 553 1242 l 578 1218 m 139 0 l 139 817 q 179 918 139 878 q 281 958 219 958 q 676 953 543 958 l 674 928 l 288 928 q 206 896 238 928 q 174 814 174 864 l 174 0 l 139 0 z "},"Є":{"ha":792,"x_min":106,"x_max":729,"o":"m 721 33 l 729 8 q 474 -17 619 -17 q 188 94 269 -17 q 106 479 106 206 q 188 864 106 753 q 474 975 269 975 q 718 951 615 975 l 710 926 q 474 943 606 943 q 222 850 297 943 q 142 528 147 757 l 583 528 l 583 499 l 142 499 l 142 479 q 215 118 142 221 q 474 15 289 15 q 721 33 617 15 z "},"Ѕ":{"ha":769,"x_min":92,"x_max":683,"o":"m 490 453 l 278 482 q 135 551 178 493 q 92 728 92 610 q 108 863 92 813 q 165 938 124 914 q 251 969 206 963 q 381 974 297 975 q 640 957 515 971 l 636 931 q 381 942 469 942 q 299 940 326 942 q 237 933 272 939 q 185 913 201 926 q 153 876 169 900 q 132 817 138 853 q 126 728 126 781 q 161 574 126 622 q 278 515 196 526 l 490 486 q 640 417 596 474 q 683 235 683 360 q 670 122 683 168 q 635 48 657 75 q 574 7 614 21 q 495 -11 535 -7 q 392 -15 456 -15 q 108 0 239 -15 l 113 26 q 393 17 257 15 q 513 25 469 18 q 589 55 556 32 q 635 121 622 78 q 649 235 649 164 q 613 394 649 347 q 490 453 578 442 z "},"І":{"ha":321,"x_min":143,"x_max":178,"o":"m 178 0 l 143 0 l 143 958 l 178 958 l 178 0 z "},"Ї":{"ha":321,"x_min":15,"x_max":303,"o":"m 29 1189 l 43 1189 q 57 1174 57 1189 l 57 1096 q 43 1081 57 1081 l 29 1081 q 15 1096 15 1081 l 15 1174 q 29 1189 15 1189 m 275 1189 l 289 1189 q 303 1174 303 1189 l 303 1096 q 289 1081 303 1081 l 275 1081 q 261 1096 261 1081 l 261 1174 q 275 1189 261 1189 m 178 0 l 143 0 l 143 958 l 178 958 l 178 0 z "},"Ј":{"ha":450,"x_min":53,"x_max":311,"o":"m 311 958 l 311 160 q 142 -8 311 -10 q 53 0 103 -8 l 57 22 l 138 22 q 276 161 276 22 l 276 958 l 311 958 z "},"Љ":{"ha":1340,"x_min":36,"x_max":1260,"o":"m 717 533 l 972 533 q 1197 472 1135 533 q 1260 261 1260 411 q 1196 46 1260 103 q 972 -11 1132 -11 q 682 0 790 -11 l 682 928 l 447 928 q 328 813 336 928 q 297 478 306 560 q 267 309 289 396 q 206 157 246 222 q 42 0 125 19 l 36 25 q 174 169 113 68 q 247 363 229 263 q 294 815 264 463 q 442 958 307 958 l 717 958 l 717 533 m 717 501 l 717 24 q 972 21 808 21 q 1168 70 1113 21 q 1224 261 1224 119 q 1170 449 1224 396 q 972 501 1117 501 l 717 501 z "},"Њ":{"ha":1365,"x_min":143,"x_max":1285,"o":"m 742 531 l 997 531 q 1222 469 1160 531 q 1285 261 1285 408 q 1221 46 1285 103 q 997 -11 1157 -11 q 707 0 815 -11 l 707 499 l 178 499 l 178 0 l 143 0 l 143 958 l 178 958 l 178 529 l 707 529 l 707 958 l 742 958 l 742 531 m 742 499 l 742 24 q 997 21 833 21 q 1193 70 1138 21 q 1249 261 1249 119 q 1194 446 1249 393 q 997 499 1140 499 l 742 499 z "},"Ћ":{"ha":1097,"x_min":38,"x_max":1000,"o":"m 408 928 l 408 485 q 800 600 594 600 q 1000 399 1000 600 l 1000 0 l 965 0 l 965 394 q 924 526 965 483 q 793 568 882 568 q 603 542 689 568 q 408 453 518 517 l 408 0 l 374 0 l 374 928 l 38 928 l 38 958 l 746 958 l 746 928 l 408 928 z "},"Ќ":{"ha":796,"x_min":143,"x_max":736,"o":"m 353 1022 l 333 1040 l 540 1242 l 565 1218 l 353 1022 m 382 501 l 382 499 q 444 483 414 497 q 497 451 474 468 q 545 399 519 435 q 586 338 571 363 q 626 260 601 313 q 662 181 650 208 q 699 90 674 153 q 736 0 725 26 l 699 0 q 665 83 688 28 q 630 166 642 139 q 597 240 618 193 q 563 309 576 286 q 526 366 549 332 q 483 417 504 400 q 436 451 463 433 q 380 477 410 469 q 317 485 350 485 l 174 485 q 176 365 176 442 l 176 0 l 143 0 l 143 958 l 176 958 l 176 631 q 174 515 176 599 l 317 515 q 413 541 367 515 q 488 596 458 567 q 553 692 517 625 q 606 793 590 758 q 657 913 621 828 q 676 958 669 943 l 713 958 q 590 685 624 747 q 382 501 493 511 z "},"Ѝ":{"ha":942,"x_min":143,"x_max":799,"o":"m 528 1040 l 508 1022 l 296 1218 l 321 1242 l 528 1040 m 799 0 l 764 0 l 764 810 l 764 904 l 763 904 q 714 821 717 825 l 176 0 l 143 0 l 143 958 l 178 958 l 178 153 l 178 54 l 179 54 q 208 101 189 68 q 235 146 228 135 l 765 958 l 799 958 l 799 0 z "},"Ў":{"ha":746,"x_min":50,"x_max":714,"o":"m 539 1213 l 564 1207 q 513 1091 564 1133 q 376 1049 463 1049 q 238 1091 289 1049 q 186 1207 186 1133 l 211 1213 q 256 1116 211 1150 q 376 1082 300 1082 q 495 1117 451 1082 q 539 1213 539 1151 m 714 958 l 433 224 q 357 54 385 93 q 258 -8 315 -4 q 125 8 192 -14 l 129 31 q 206 20 176 22 q 262 25 235 18 q 303 42 289 32 q 335 82 317 51 q 366 141 354 113 q 401 229 378 169 l 424 285 l 361 285 q 292 333 310 285 l 50 958 l 86 958 l 321 346 q 364 315 332 315 l 435 315 l 678 958 l 714 958 z "},"Џ":{"ha":925,"x_min":143,"x_max":782,"o":"m 782 958 l 782 0 l 479 0 l 476 -210 l 451 -210 l 446 0 l 143 0 l 143 958 l 178 958 l 178 31 l 747 31 l 747 958 l 782 958 z "},"А":{"ha":838,"x_min":26,"x_max":811,"o":"m 647 350 l 190 350 l 64 0 l 26 0 l 371 946 q 389 958 375 958 l 449 958 q 467 946 463 958 l 811 0 l 774 0 l 647 350 m 636 381 l 467 850 l 439 928 l 399 928 l 371 850 l 201 381 l 636 381 z "},"Б":{"ha":822,"x_min":143,"x_max":735,"o":"m 178 514 l 447 514 q 672 455 610 514 q 735 251 735 396 q 671 44 735 99 q 447 -11 607 -11 q 143 0 256 -11 l 143 958 q 419 964 265 964 q 689 958 568 964 l 685 931 l 178 931 l 178 514 m 178 482 l 178 24 q 447 21 272 21 q 643 67 588 21 q 699 251 699 114 q 645 431 699 381 q 447 482 592 482 l 178 482 z "},"В":{"ha":850,"x_min":143,"x_max":749,"o":"m 558 500 l 558 494 q 705 422 661 485 q 749 239 749 358 q 684 41 749 93 q 454 -11 619 -11 q 143 0 256 -11 l 143 958 q 413 969 242 969 q 653 917 586 969 q 721 719 721 865 q 682 562 721 615 q 558 500 643 508 m 178 511 l 440 511 q 631 555 578 513 q 685 719 685 597 q 626 894 685 850 q 413 938 567 938 q 178 935 261 938 l 178 511 m 178 482 l 178 24 q 454 21 275 21 q 657 65 601 21 q 713 239 713 108 q 653 429 713 379 q 440 482 593 479 l 178 482 z "},"Г":{"ha":714,"x_min":139,"x_max":676,"o":"m 139 0 l 139 817 q 179 918 139 878 q 281 958 219 958 q 676 953 543 958 l 674 928 l 288 928 q 206 896 238 928 q 174 814 174 864 l 174 0 l 139 0 z "},"Д":{"ha":910,"x_min":35,"x_max":857,"o":"m 857 31 l 857 -210 l 832 -210 l 824 0 l 68 0 l 60 -210 l 35 -210 l 35 31 l 111 31 q 276 815 264 296 q 419 958 279 958 l 743 958 l 743 31 l 857 31 m 708 31 l 708 928 l 422 928 q 310 815 313 928 q 151 31 299 301 l 708 31 z "},"Е":{"ha":765,"x_min":135,"x_max":685,"o":"m 682 31 l 685 6 q 276 0 549 0 q 175 40 215 0 q 135 142 135 81 l 135 817 q 175 918 135 878 q 276 958 215 958 q 685 953 549 958 l 682 928 l 283 928 q 201 896 233 928 q 169 814 169 864 l 169 528 l 625 528 l 625 499 l 169 499 l 169 144 q 201 63 169 94 q 283 31 233 31 l 682 31 z "},"Ж":{"ha":1219,"x_min":60,"x_max":1160,"o":"m 806 501 l 806 499 q 867 483 838 497 q 920 451 897 468 q 969 399 943 435 q 1010 338 994 363 q 1049 260 1025 313 q 1085 181 1074 208 q 1123 90 1097 153 q 1160 0 1149 26 l 1122 0 q 1088 83 1111 28 q 1053 166 1065 139 q 1021 240 1042 193 q 986 309 1000 286 q 950 366 972 332 q 907 417 928 400 q 860 451 886 433 q 803 477 833 469 q 740 485 774 485 l 628 485 q 632 365 632 419 l 632 0 l 599 0 l 599 365 q 603 485 599 419 l 479 485 q 416 477 446 485 q 360 451 386 469 q 313 417 333 433 q 269 366 292 400 q 233 309 247 332 q 199 240 219 286 q 166 166 178 193 q 131 83 154 139 q 97 0 108 28 l 60 0 q 97 90 71 26 q 134 181 122 153 q 170 260 146 208 q 210 338 194 313 q 251 399 225 363 q 299 451 276 435 q 352 483 322 468 q 414 499 382 497 l 414 501 q 331 533 371 506 q 263 596 292 561 q 203 692 235 631 q 151 797 171 753 q 103 911 132 840 q 83 958 90 943 l 119 958 q 238 699 206 756 q 479 515 343 517 l 603 515 q 599 631 599 557 l 599 958 l 632 958 l 632 631 q 628 515 632 557 l 740 515 q 836 541 790 515 q 911 596 882 567 q 977 692 940 625 q 1029 793 1014 758 q 1081 913 1044 828 q 1100 958 1093 943 l 1136 958 q 1014 685 1047 747 q 806 501 917 511 z "},"З":{"ha":756,"x_min":61,"x_max":653,"o":"m 85 926 l 79 951 q 317 969 197 969 q 558 917 490 969 q 625 719 625 865 q 586 562 625 615 q 463 500 547 508 l 463 494 q 609 422 565 485 q 653 239 653 358 q 588 41 653 93 q 358 -11 524 -11 q 61 8 182 -11 l 67 33 q 123 30 75 33 q 233 24 171 26 q 358 21 296 21 q 561 65 506 21 q 617 239 617 108 q 557 431 617 379 q 344 482 497 482 l 204 482 l 204 511 l 344 511 q 535 554 482 511 q 589 719 589 597 q 530 894 589 850 q 317 938 471 938 q 216 935 265 938 q 129 930 167 933 q 85 926 92 926 z "},"И":{"ha":942,"x_min":143,"x_max":799,"o":"m 799 0 l 764 0 l 764 810 l 764 904 l 763 904 q 714 821 717 825 l 176 0 l 143 0 l 143 958 l 178 958 l 178 153 l 178 54 l 179 54 q 208 101 189 68 q 235 146 228 135 l 765 958 l 799 958 l 799 0 z "},"Й":{"ha":942,"x_min":143,"x_max":799,"o":"m 626 1218 l 660 1218 q 608 1096 660 1143 q 472 1049 557 1049 q 334 1096 386 1049 q 282 1218 282 1143 l 315 1218 q 358 1112 315 1150 q 472 1074 401 1074 q 584 1112 542 1074 q 626 1218 626 1150 m 799 0 l 764 0 l 764 810 l 764 904 l 763 904 q 714 821 717 825 l 176 0 l 143 0 l 143 958 l 178 958 l 178 153 l 178 54 l 179 54 q 208 101 189 68 q 235 146 228 135 l 765 958 l 799 958 l 799 0 z "},"К":{"ha":796,"x_min":143,"x_max":736,"o":"m 382 501 l 382 499 q 444 483 414 497 q 497 451 474 468 q 545 399 519 435 q 586 338 571 363 q 626 260 601 313 q 662 181 650 208 q 699 90 674 153 q 736 0 725 26 l 699 0 q 665 83 688 28 q 630 166 642 139 q 597 240 618 193 q 563 309 576 286 q 526 366 549 332 q 483 417 504 400 q 436 451 463 433 q 380 477 410 469 q 317 485 350 485 l 174 485 q 176 365 176 442 l 176 0 l 143 0 l 143 958 l 176 958 l 176 631 q 174 515 176 599 l 317 515 q 413 541 367 515 q 488 596 458 567 q 553 692 517 625 q 606 793 590 758 q 657 913 621 828 q 676 958 669 943 l 713 958 q 590 685 624 747 q 382 501 493 511 z "},"Л":{"ha":878,"x_min":19,"x_max":735,"o":"m 735 958 l 735 0 l 700 0 l 700 928 l 431 928 q 311 813 319 928 q 281 478 289 560 q 251 309 272 396 q 189 157 229 222 q 25 0 115 33 l 19 28 q 157 169 96 69 q 230 363 213 263 q 278 815 247 463 q 425 958 290 958 l 735 958 z "},"М":{"ha":1186,"x_min":122,"x_max":1064,"o":"m 943 958 l 1001 958 q 1022 938 1022 958 l 1064 0 l 1029 0 l 988 928 l 954 928 l 640 96 q 622 83 636 83 l 564 83 q 546 96 550 83 l 232 928 l 199 928 l 157 0 l 122 0 l 164 938 q 185 958 164 958 l 243 958 q 261 946 257 958 l 526 244 q 551 179 535 222 q 575 114 567 136 l 611 114 l 661 247 l 925 946 q 943 958 929 958 z "},"Н":{"ha":913,"x_min":143,"x_max":769,"o":"m 769 958 l 769 0 l 735 0 l 735 499 l 178 499 l 178 0 l 143 0 l 143 958 l 178 958 l 178 529 l 735 529 l 735 958 l 769 958 z "},"О":{"ha":919,"x_min":106,"x_max":814,"o":"m 184 865 q 223 920 184 865 q 460 975 263 975 q 735 865 657 975 q 814 479 814 754 q 735 94 814 204 q 460 -17 657 -17 q 184 94 263 -17 q 106 479 106 204 q 184 865 106 754 m 708 840 q 673 892 708 840 q 460 943 638 943 q 212 840 282 943 q 142 479 142 738 q 212 118 142 221 q 460 15 282 15 q 708 118 638 15 q 778 479 778 221 q 708 840 778 738 z "},"П":{"ha":918,"x_min":143,"x_max":775,"o":"m 775 958 l 775 0 l 740 0 l 740 928 l 178 928 l 178 0 l 143 0 l 143 958 l 775 958 z "},"Р":{"ha":807,"x_min":143,"x_max":726,"o":"m 143 0 l 143 958 q 450 969 254 969 q 665 910 604 969 q 726 688 726 850 q 666 465 726 524 q 450 406 606 406 q 178 411 272 406 l 178 0 l 143 0 m 178 438 l 450 438 q 638 491 586 440 q 690 688 690 542 q 638 885 690 833 q 450 938 585 938 q 178 935 272 938 l 178 438 z "},"С":{"ha":779,"x_min":106,"x_max":721,"o":"m 713 33 l 721 8 q 460 -17 611 -17 q 184 94 263 -17 q 106 479 106 204 q 184 865 106 754 q 460 975 263 975 q 701 951 599 975 l 693 926 q 460 943 589 943 q 212 840 282 943 q 142 479 142 738 q 212 118 142 221 q 460 15 282 15 q 713 33 608 15 z "},"Т":{"ha":783,"x_min":38,"x_max":746,"o":"m 746 928 l 408 928 l 408 0 l 374 0 l 374 928 l 38 928 l 38 958 l 746 958 l 746 928 z "},"У":{"ha":746,"x_min":50,"x_max":714,"o":"m 714 958 l 433 224 q 357 54 385 93 q 258 -8 315 -4 q 125 8 192 -14 l 129 31 q 206 20 176 22 q 262 25 235 18 q 303 42 289 32 q 335 82 317 51 q 366 141 354 113 q 401 229 378 169 l 424 285 l 361 285 q 292 333 310 285 l 50 958 l 86 958 l 321 346 q 364 315 332 315 l 435 315 l 678 958 l 714 958 z "},"Ф":{"ha":1140,"x_min":104,"x_max":1036,"o":"m 588 1053 l 588 906 q 935 810 833 903 q 1036 493 1036 718 q 935 176 1036 268 q 588 81 833 83 l 588 -67 l 553 -67 l 553 81 q 206 176 307 83 q 104 493 104 268 q 206 810 104 718 q 553 906 307 903 l 553 1053 l 588 1053 m 553 111 l 553 875 q 232 790 324 872 q 140 493 140 707 q 232 197 140 279 q 553 111 324 114 m 588 875 l 588 111 q 908 197 817 114 q 1000 493 1000 279 q 908 790 1000 707 q 588 875 817 872 z "},"Х":{"ha":832,"x_min":57,"x_max":775,"o":"m 438 486 l 394 486 l 99 0 l 57 0 l 361 500 l 75 958 l 117 958 l 393 517 l 439 517 l 715 958 l 757 958 l 471 500 l 775 0 l 733 0 l 438 486 z "},"Ц":{"ha":933,"x_min":143,"x_max":879,"o":"m 879 31 l 879 -210 l 854 -210 l 846 0 l 143 0 l 143 958 l 178 958 l 178 31 l 731 31 l 731 958 l 765 958 l 765 31 l 879 31 z "},"Ч":{"ha":840,"x_min":99,"x_max":697,"o":"m 697 958 l 697 0 l 663 0 l 663 488 q 290 372 486 372 q 99 574 99 372 l 99 958 l 133 958 l 133 578 q 173 447 133 489 q 297 404 213 404 q 477 429 397 404 q 663 519 557 454 l 663 958 l 697 958 z "},"Ш":{"ha":1251,"x_min":143,"x_max":1108,"o":"m 1108 958 l 1108 0 l 143 0 l 143 958 l 178 958 l 178 31 l 608 31 l 608 958 l 643 958 l 643 31 l 1074 31 l 1074 958 l 1108 958 z "},"Щ":{"ha":1261,"x_min":143,"x_max":1208,"o":"m 1208 31 l 1208 -210 l 1183 -210 l 1175 0 l 143 0 l 143 958 l 178 958 l 178 31 l 601 31 l 601 958 l 636 958 l 636 31 l 1060 31 l 1060 958 l 1094 958 l 1094 31 l 1208 31 z "},"Ъ":{"ha":1033,"x_min":38,"x_max":953,"o":"m 396 533 l 665 533 q 890 472 828 533 q 953 261 953 411 q 889 46 953 103 q 665 -11 825 -11 q 361 0 474 -11 l 361 928 l 38 928 l 38 958 l 396 958 l 396 533 m 396 501 l 396 24 q 665 21 490 21 q 861 70 806 21 q 917 261 917 119 q 863 449 917 396 q 665 501 810 501 l 396 501 z "},"Ы":{"ha":1124,"x_min":143,"x_max":981,"o":"m 178 533 l 447 533 q 672 472 610 533 q 735 261 735 411 q 671 46 735 103 q 447 -11 607 -11 q 143 0 256 -11 l 143 958 l 178 958 l 178 533 m 981 958 l 981 0 l 946 0 l 946 958 l 981 958 m 178 501 l 178 24 q 447 21 272 21 q 643 70 588 21 q 699 261 699 119 q 645 449 699 396 q 447 501 592 501 l 178 501 z "},"Ь":{"ha":815,"x_min":143,"x_max":735,"o":"m 178 533 l 447 533 q 672 472 610 533 q 735 261 735 411 q 671 46 735 103 q 447 -11 607 -11 q 143 0 256 -11 l 143 958 l 178 958 l 178 533 m 178 501 l 178 24 q 447 21 272 21 q 643 70 588 21 q 699 261 699 119 q 645 449 699 396 q 447 501 592 501 l 178 501 z "},"Э":{"ha":792,"x_min":63,"x_max":686,"o":"m 82 926 l 74 951 q 318 975 176 975 q 604 864 522 975 q 686 479 686 753 q 604 94 686 206 q 318 -17 522 -17 q 63 8 172 -17 l 71 33 q 318 15 175 15 q 576 118 503 15 q 650 479 650 221 l 650 500 l 208 500 l 208 529 l 650 529 q 569 850 644 757 q 318 943 493 943 q 82 926 186 943 z "},"Ю":{"ha":1240,"x_min":144,"x_max":1135,"o":"m 179 515 l 440 515 q 521 872 444 768 q 781 975 597 975 q 1056 865 978 975 q 1135 479 1135 754 q 1056 94 1135 204 q 781 -17 978 -17 q 516 94 592 -17 q 440 479 440 204 l 440 485 l 179 485 l 179 0 l 144 0 l 144 958 l 179 958 l 179 515 m 781 15 q 1028 118 958 15 q 1099 479 1099 221 q 1028 840 1099 738 q 781 943 958 943 q 544 840 611 943 q 476 479 476 738 q 544 118 476 221 q 781 15 611 15 z "},"Я":{"ha":836,"x_min":75,"x_max":693,"o":"m 289 425 l 288 433 q 166 519 208 446 q 124 686 124 593 q 189 906 124 843 q 400 969 254 969 q 693 958 586 969 l 693 0 l 658 0 l 658 422 q 374 417 564 417 q 217 289 261 417 l 114 0 l 75 0 l 181 293 q 289 425 221 403 m 658 449 l 658 935 q 400 938 567 938 q 217 882 274 938 q 160 686 160 826 q 212 514 160 579 q 376 449 264 449 l 658 449 z "},"а":{"ha":747,"x_min":92,"x_max":621,"o":"m 122 629 l 118 654 q 436 683 325 683 q 621 497 621 683 l 621 0 l 596 0 l 589 129 q 447 35 540 79 q 265 -8 354 -8 q 137 35 182 -8 q 92 160 92 79 l 92 246 q 133 362 92 321 q 251 403 175 403 l 588 403 l 588 497 q 435 651 588 651 q 122 629 297 651 m 126 246 l 126 160 q 265 25 126 28 q 435 65 342 24 q 588 163 528 106 l 588 375 l 251 369 q 126 246 126 367 z "},"б":{"ha":779,"x_min":119,"x_max":681,"o":"m 632 1018 l 642 994 q 594 965 618 978 q 553 943 569 951 q 509 926 536 935 q 472 914 482 917 q 433 903 463 911 q 399 893 403 894 q 215 781 264 854 q 156 571 167 708 q 150 476 153 538 l 151 476 q 421 649 190 649 q 624 574 567 649 q 681 315 681 500 q 670 180 681 235 q 631 77 660 125 q 544 6 601 29 q 400 -17 488 -17 q 302 -6 344 -17 q 230 22 260 4 q 180 69 200 39 q 148 131 160 100 q 130 211 136 163 q 122 303 124 260 q 119 410 119 346 q 124 576 119 511 q 145 703 129 642 q 191 801 161 764 q 269 869 221 839 q 390 921 318 900 q 437 934 406 925 q 484 948 468 943 q 526 963 500 953 q 578 985 553 972 q 632 1018 603 999 m 415 617 q 208 543 261 617 q 154 322 154 469 q 210 83 154 151 q 404 15 267 15 q 592 83 539 15 q 646 324 646 150 q 596 553 646 489 q 415 617 546 617 z "},"в":{"ha":760,"x_min":131,"x_max":665,"o":"m 497 344 l 497 342 q 627 292 589 335 q 665 165 665 249 q 608 28 665 65 q 406 -8 551 -8 q 131 0 236 -8 l 131 665 q 368 674 222 674 q 582 636 522 674 q 642 496 642 599 q 607 388 642 425 q 497 344 572 350 m 163 357 l 393 357 q 561 386 515 358 q 607 494 607 414 q 555 613 607 583 q 368 643 503 643 q 163 642 250 644 l 163 357 m 163 329 l 163 24 q 404 22 261 21 q 581 51 532 22 q 631 167 631 81 q 578 294 631 260 q 393 329 526 329 l 163 329 z "},"г":{"ha":608,"x_min":128,"x_max":567,"o":"m 128 0 l 128 536 q 162 632 128 597 q 256 667 196 667 q 567 663 460 667 l 567 636 l 263 636 q 161 532 161 636 l 161 0 l 128 0 z "},"д":{"ha":763,"x_min":42,"x_max":689,"o":"m 689 29 l 689 -201 l 664 -201 l 657 0 l 74 0 l 67 -201 l 42 -201 l 42 29 l 100 29 q 235 540 219 207 q 364 667 242 667 l 614 667 l 614 29 l 689 29 m 581 29 l 581 638 l 368 638 q 268 539 272 638 q 139 29 256 208 l 581 29 z "},"е":{"ha":732,"x_min":96,"x_max":644,"o":"m 501 315 l 131 315 q 197 83 135 150 q 397 15 260 15 q 624 33 513 15 l 629 8 q 393 -17 549 -17 q 165 65 235 -17 q 96 336 96 146 q 161 605 96 526 q 382 683 226 683 q 644 494 640 683 q 614 359 647 403 q 501 315 581 315 m 131 346 l 501 346 q 587 382 561 346 q 610 492 613 418 q 552 613 608 574 q 383 651 496 651 q 189 583 246 651 q 131 346 132 514 z "},"ж":{"ha":1054,"x_min":64,"x_max":992,"o":"m 718 349 l 718 347 q 826 294 776 343 q 901 198 876 244 q 972 43 925 151 q 992 0 985 15 l 954 0 q 931 54 947 17 q 907 106 914 92 q 885 152 900 121 q 861 197 869 183 q 838 235 853 211 q 810 269 822 258 q 781 294 799 279 q 747 316 764 310 q 710 328 731 322 q 665 333 689 333 l 544 333 q 549 253 549 292 l 549 0 l 515 0 l 515 253 q 519 333 515 292 l 390 333 q 346 328 367 333 q 308 316 325 322 q 274 294 292 310 q 245 269 257 279 q 218 235 233 258 q 194 197 203 211 q 171 152 186 183 q 149 106 156 121 q 125 54 142 92 q 101 0 108 17 l 64 0 q 171 224 143 179 q 338 347 243 340 l 338 349 q 281 364 307 351 q 228 406 254 376 q 188 455 203 436 q 147 525 172 474 q 115 592 122 576 q 82 667 108 607 l 119 667 q 232 453 192 507 q 393 363 301 363 l 519 363 q 515 443 515 390 l 515 667 l 549 667 l 549 443 q 544 363 549 390 l 663 363 q 752 385 711 363 q 824 454 793 408 q 878 543 856 500 q 929 650 900 586 q 936 667 933 661 l 974 667 q 940 592 947 607 q 908 525 933 576 q 868 455 883 474 q 827 406 853 436 q 775 364 801 376 q 718 349 749 351 z "},"з":{"ha":656,"x_min":65,"x_max":560,"o":"m 82 636 l 76 661 q 261 675 160 675 q 481 639 421 675 q 540 501 540 603 q 509 390 540 428 q 397 344 478 351 l 397 342 q 522 292 483 335 q 560 164 560 250 q 499 33 560 74 q 292 -8 439 -8 q 65 6 161 -8 l 71 31 q 290 22 271 22 q 472 56 421 22 q 524 168 524 90 q 474 293 524 260 q 294 329 424 326 l 165 329 l 165 357 l 294 357 q 461 387 417 358 q 506 497 506 415 q 453 616 506 588 q 253 644 401 644 q 82 636 136 644 z "},"и":{"ha":807,"x_min":131,"x_max":676,"o":"m 676 0 l 643 0 l 643 546 l 643 618 l 642 618 q 601 561 628 594 l 161 0 l 131 0 l 131 667 l 164 667 l 164 126 l 164 49 l 165 49 q 211 111 183 76 l 646 667 l 676 667 l 676 0 z "},"й":{"ha":807,"x_min":131,"x_max":676,"o":"m 543 965 l 576 965 q 525 843 576 890 q 389 796 474 796 q 251 843 303 796 q 199 965 199 890 l 232 965 q 275 859 232 897 q 389 821 318 821 q 501 859 458 821 q 543 965 543 897 m 676 0 l 643 0 l 643 546 l 643 618 l 642 618 q 601 561 628 594 l 161 0 l 131 0 l 131 667 l 164 667 l 164 126 l 164 49 l 165 49 q 211 111 183 76 l 646 667 l 676 667 l 676 0 z "},"к":{"ha":715,"x_min":131,"x_max":654,"o":"m 358 349 l 358 347 q 447 320 407 344 q 521 248 488 296 q 578 156 554 200 q 636 39 601 113 q 654 0 647 13 l 617 0 q 591 53 611 11 q 565 106 571 96 q 542 152 560 117 q 516 198 524 188 q 490 235 508 208 q 460 269 472 261 q 428 294 449 278 q 390 317 408 311 q 349 328 372 322 q 301 333 326 333 l 161 333 q 164 253 164 306 l 164 0 l 131 0 l 131 667 l 164 667 l 164 443 q 161 363 164 418 l 300 363 q 397 385 353 363 q 474 451 440 407 q 533 538 508 496 q 588 643 557 581 q 599 667 594 660 l 635 667 q 511 444 556 500 q 358 349 442 356 z "},"л":{"ha":746,"x_min":32,"x_max":614,"o":"m 614 667 l 614 0 l 581 0 l 581 638 l 368 638 q 295 613 319 638 q 265 540 271 589 q 258 472 264 528 q 249 395 251 417 q 240 326 247 374 q 225 250 232 278 q 207 186 218 222 q 182 124 196 150 q 38 -7 129 22 l 32 22 q 154 139 114 58 q 190 242 175 179 q 212 351 206 304 q 225 463 218 397 q 233 542 232 529 q 274 636 242 606 q 371 667 306 667 l 614 667 z "},"м":{"ha":1000,"x_min":115,"x_max":885,"o":"m 781 667 l 831 667 q 850 649 850 667 l 885 0 l 851 0 l 818 636 l 790 636 l 542 74 q 525 61 536 61 l 475 61 q 458 74 464 61 l 210 636 l 182 636 l 149 0 l 115 0 l 150 649 q 169 667 150 667 l 221 667 q 238 654 233 667 l 446 181 q 486 89 474 119 l 514 89 q 531 130 517 96 q 554 182 546 164 l 763 654 q 781 667 767 667 z "},"н":{"ha":786,"x_min":131,"x_max":656,"o":"m 656 667 l 656 0 l 622 0 l 622 342 l 164 342 l 164 0 l 131 0 l 131 667 l 164 667 l 164 371 l 622 371 l 622 667 l 656 667 z "},"о":{"ha":778,"x_min":97,"x_max":681,"o":"m 163 605 q 195 644 163 605 q 389 683 228 683 q 615 605 550 683 q 681 333 681 526 q 615 62 681 140 q 389 -17 550 -17 q 163 62 228 -17 q 97 333 97 140 q 163 605 97 526 m 589 582 q 560 617 589 582 q 389 651 532 651 q 189 582 246 651 q 132 333 132 513 q 189 85 132 154 q 389 15 246 15 q 589 85 532 15 q 646 333 646 154 q 589 582 646 513 z "},"п":{"ha":783,"x_min":131,"x_max":653,"o":"m 653 667 l 653 0 l 619 0 l 619 638 l 164 638 l 164 0 l 131 0 l 131 667 l 653 667 z "},"р":{"ha":779,"x_min":132,"x_max":681,"o":"m 157 667 l 163 546 q 439 683 311 683 q 625 603 569 683 q 681 333 681 524 q 625 63 681 143 q 439 -17 569 -17 q 161 57 315 -17 q 165 -71 165 22 l 165 -292 l 132 -292 l 132 667 l 157 667 m 165 517 l 165 82 q 439 15 332 15 q 599 88 551 15 q 646 333 646 160 q 599 579 646 507 q 439 651 551 651 q 313 620 375 651 q 165 517 250 589 z "},"с":{"ha":664,"x_min":96,"x_max":603,"o":"m 597 32 l 603 7 q 401 -17 499 -17 q 165 63 235 -17 q 96 333 96 142 q 165 604 96 525 q 400 683 233 683 q 588 660 511 683 l 579 635 q 406 651 514 651 q 192 583 253 651 q 131 333 131 515 q 192 83 131 151 q 406 15 253 15 q 597 32 515 15 z "},"т":{"ha":653,"x_min":42,"x_max":611,"o":"m 611 636 l 343 636 l 343 0 l 308 0 l 308 636 l 42 636 l 42 667 l 611 667 l 611 636 z "},"у":{"ha":703,"x_min":42,"x_max":663,"o":"m 663 667 l 356 -65 q 239 -247 303 -194 q 58 -286 160 -303 l 61 -267 q 225 -222 158 -272 q 326 -53 279 -174 l 347 0 l 333 0 q 315 11 322 0 l 42 667 l 78 667 l 313 103 l 343 31 l 361 31 l 392 106 l 626 667 l 663 667 z "},"ф":{"ha":967,"x_min":94,"x_max":872,"o":"m 501 972 l 501 683 q 788 599 703 681 q 872 333 872 518 q 788 67 872 149 q 501 -17 703 -14 l 501 -292 l 467 -292 l 467 -17 q 179 67 264 -14 q 94 333 94 149 q 179 599 94 518 q 467 683 264 681 l 467 972 l 501 972 m 467 15 l 467 651 q 206 578 282 649 q 129 333 129 508 q 206 88 129 158 q 467 15 282 18 m 501 651 l 501 15 q 762 89 686 18 q 838 333 838 160 q 762 578 838 507 q 501 651 686 649 z "},"х":{"ha":701,"x_min":50,"x_max":651,"o":"m 367 333 l 335 333 l 92 0 l 50 0 l 303 347 l 68 667 l 110 667 l 332 364 l 369 364 l 592 667 l 633 667 l 399 347 l 651 0 l 610 0 l 367 333 z "},"ц":{"ha":786,"x_min":132,"x_max":713,"o":"m 713 29 l 713 -199 l 689 -199 l 681 0 l 132 0 l 132 667 l 165 667 l 165 29 l 606 29 l 606 667 l 639 667 l 639 29 l 713 29 z "},"ч":{"ha":701,"x_min":90,"x_max":571,"o":"m 571 667 l 571 0 l 538 0 l 538 328 q 231 253 388 253 q 90 394 90 253 l 90 667 l 124 667 l 124 400 q 239 286 124 286 q 538 358 386 286 l 538 667 l 571 667 z "},"ш":{"ha":1085,"x_min":131,"x_max":954,"o":"m 954 667 l 954 0 l 131 0 l 131 667 l 165 667 l 165 29 l 525 29 l 525 667 l 560 667 l 560 29 l 921 29 l 921 667 l 954 667 z "},"щ":{"ha":1104,"x_min":132,"x_max":1031,"o":"m 1031 29 l 1031 -199 l 1006 -199 l 999 0 l 132 0 l 132 667 l 165 667 l 165 29 l 526 29 l 526 667 l 560 667 l 560 29 l 924 29 l 924 667 l 956 667 l 956 29 l 1031 29 z "},"ъ":{"ha":867,"x_min":42,"x_max":792,"o":"m 331 372 l 550 372 q 739 329 686 372 q 792 182 792 286 q 738 32 792 72 q 551 -8 685 -8 q 297 0 396 -8 l 297 636 l 42 636 l 42 667 l 331 667 l 331 372 m 331 343 l 331 25 q 550 22 414 22 q 710 56 664 22 q 756 183 756 89 q 712 308 756 272 q 550 343 668 343 l 331 343 z "},"ы":{"ha":936,"x_min":131,"x_max":804,"o":"m 164 372 l 385 372 q 551 329 504 372 q 597 182 597 286 q 551 32 597 72 q 386 -8 504 -8 q 131 0 229 -8 l 131 667 l 164 667 l 164 372 m 804 667 l 804 0 l 771 0 l 771 667 l 804 667 m 164 343 l 164 25 q 385 22 244 22 q 522 55 483 22 q 561 183 561 88 q 524 308 561 274 q 385 343 486 343 l 164 343 z "},"ь":{"ha":700,"x_min":131,"x_max":625,"o":"m 164 372 l 385 372 q 573 330 521 372 q 625 182 625 288 q 572 32 625 72 q 386 -8 518 -8 q 131 0 229 -8 l 131 667 l 164 667 l 164 372 m 164 343 l 164 25 q 385 22 244 22 q 544 56 499 22 q 589 183 589 89 q 545 308 589 274 q 385 343 501 343 l 164 343 z "},"э":{"ha":671,"x_min":65,"x_max":574,"o":"m 81 629 l 74 656 q 274 672 153 672 q 507 597 440 672 q 574 331 574 521 q 507 65 574 142 q 274 -11 440 -11 q 65 7 151 -11 l 72 33 q 274 21 161 21 q 479 88 421 21 q 539 328 538 156 l 186 328 l 186 356 l 539 356 q 476 577 535 514 q 274 640 417 640 q 81 629 165 640 z "},"ю":{"ha":1065,"x_min":132,"x_max":968,"o":"m 165 360 l 382 360 q 449 612 385 540 q 668 683 513 683 q 901 607 835 683 q 968 336 968 531 q 901 66 968 143 q 668 -11 835 -11 q 447 65 510 -11 q 382 331 383 140 l 165 331 l 165 0 l 132 0 l 132 667 l 165 667 l 165 360 m 668 19 q 874 89 815 19 q 932 336 932 158 q 874 583 932 514 q 668 653 815 653 q 473 583 528 653 q 418 336 418 514 q 473 89 418 158 q 668 19 528 19 z "},"я":{"ha":729,"x_min":78,"x_max":597,"o":"m 275 283 l 275 288 q 150 342 192 289 q 108 485 108 396 q 160 617 108 565 q 324 669 211 669 q 597 661 490 669 l 597 0 l 564 0 l 564 271 l 343 271 q 171 178 200 271 l 115 0 l 78 0 l 142 193 q 275 283 167 269 m 564 300 l 564 636 q 324 639 483 639 q 186 594 229 639 q 143 479 143 550 q 343 300 143 300 l 564 300 z "},"ё":{"ha":732,"x_min":96,"x_max":644,"o":"m 268 828 l 254 828 q 240 843 240 828 l 240 921 q 254 936 240 936 l 268 936 q 282 921 282 936 l 282 843 q 268 828 282 828 m 514 828 l 500 828 q 486 843 486 828 l 486 921 q 500 936 486 936 l 514 936 q 528 921 528 936 l 528 843 q 514 828 528 828 m 501 315 l 131 315 q 197 83 135 150 q 397 15 260 15 q 624 33 513 15 l 629 8 q 393 -17 549 -17 q 165 65 235 -17 q 96 336 96 146 q 161 605 96 526 q 382 683 226 683 q 644 494 640 683 q 614 359 647 403 q 501 315 581 315 m 131 346 l 501 346 q 587 382 561 346 q 610 492 613 418 q 552 613 608 574 q 383 651 496 651 q 189 583 246 651 q 131 346 132 514 z "},"ђ":{"ha":786,"x_min":46,"x_max":692,"o":"m 194 710 l 194 535 q 188 406 194 453 q 513 544 374 544 q 692 363 692 544 l 692 0 l 658 0 l 658 358 q 506 513 658 513 q 365 481 435 513 q 192 376 294 449 l 192 0 l 158 0 l 158 710 l 46 710 l 46 738 l 158 738 l 158 972 l 193 972 l 193 738 l 497 738 l 497 710 l 194 710 z "},"ѓ":{"ha":608,"x_min":128,"x_max":567,"o":"m 522 965 l 310 769 l 290 788 l 497 989 l 522 965 m 128 0 l 128 536 q 162 632 128 597 q 256 667 196 667 q 567 663 460 667 l 567 636 l 263 636 q 161 532 161 636 l 161 0 l 128 0 z "},"є":{"ha":672,"x_min":99,"x_max":607,"o":"m 600 33 l 607 7 q 399 -11 521 -11 q 165 65 232 -11 q 99 331 99 142 q 165 597 99 521 q 399 672 232 672 q 599 656 519 672 l 592 629 q 399 640 507 640 q 197 577 256 640 q 133 354 138 514 l 486 354 l 486 326 l 133 326 q 193 88 135 156 q 399 21 251 21 q 600 33 511 21 z "},"ѕ":{"ha":693,"x_min":86,"x_max":607,"o":"m 456 307 l 231 335 q 122 383 158 343 q 86 507 86 424 q 140 655 86 624 q 332 683 194 686 q 590 667 469 681 l 586 642 q 332 653 453 651 q 251 653 279 654 q 194 644 224 651 q 151 622 164 638 q 128 578 138 606 q 119 507 119 550 q 147 405 119 436 q 231 367 175 374 l 456 339 q 607 169 607 319 q 591 69 607 107 q 538 14 575 32 q 458 -10 500 -4 q 344 -15 417 -15 q 103 0 214 -15 l 107 25 q 346 15 228 14 q 526 46 479 18 q 574 169 574 74 q 456 307 574 292 z "},"і":{"ha":306,"x_min":129,"x_max":176,"o":"m 146 943 l 160 943 q 176 926 176 943 l 176 840 q 160 824 176 824 l 146 824 q 129 840 129 824 l 129 926 q 146 943 129 943 m 169 0 l 136 0 l 136 667 l 169 667 l 169 0 z "},"ї":{"ha":306,"x_min":7,"x_max":294,"o":"m 21 936 l 35 936 q 49 921 49 936 l 49 843 q 35 828 49 828 l 21 828 q 7 843 7 828 l 7 921 q 21 936 7 936 m 267 936 l 281 936 q 294 921 294 936 l 294 843 q 281 828 294 828 l 267 828 q 253 843 253 828 l 253 921 q 267 936 253 936 m 169 0 l 136 0 l 136 667 l 169 667 l 169 0 z "},"ј":{"ha":306,"x_min":60,"x_max":176,"o":"m 146 943 l 160 943 q 176 926 176 943 l 176 840 q 160 824 176 824 l 146 824 q 129 840 129 824 l 129 926 q 146 943 129 943 m 169 667 l 169 -64 q 78 -292 169 -189 l 60 -278 q 136 -64 136 -176 l 136 667 l 169 667 z "},"љ":{"ha":1069,"x_min":44,"x_max":993,"o":"m 578 388 l 769 388 q 944 343 896 388 q 993 189 993 299 q 978 82 993 122 q 928 22 964 42 q 851 -3 892 3 q 736 -8 810 -8 q 544 0 628 -8 l 544 639 l 368 639 q 278 557 286 639 q 242 254 256 326 q 185 115 228 182 q 53 0 132 29 l 44 26 q 153 126 113 65 q 208 260 196 196 q 244 561 221 324 q 368 667 256 667 l 578 667 l 578 388 m 578 360 l 578 24 q 731 21 656 21 q 911 51 864 21 q 958 189 958 81 q 918 322 958 285 q 769 360 878 360 l 578 360 z "},"њ":{"ha":1089,"x_min":132,"x_max":1013,"o":"m 597 385 l 790 385 q 965 341 917 385 q 1013 190 1013 297 q 963 33 1013 75 q 792 -8 914 -8 q 564 0 653 -8 l 564 356 l 165 356 l 165 0 l 132 0 l 132 667 l 165 667 l 165 383 l 564 383 l 564 667 l 597 667 l 597 385 m 597 357 l 597 24 q 790 21 672 21 q 936 56 894 21 q 978 190 978 90 q 938 320 978 283 q 790 357 899 357 l 597 357 z "},"ћ":{"ha":786,"x_min":46,"x_max":692,"o":"m 194 710 l 194 535 q 188 406 194 453 q 513 544 374 544 q 692 363 692 544 l 692 -64 q 600 -292 692 -189 l 582 -278 q 658 -62 658 -176 l 658 358 q 506 513 658 513 q 365 481 435 513 q 192 376 294 449 l 192 0 l 158 0 l 158 710 l 46 710 l 46 738 l 158 738 l 158 972 l 193 972 l 193 738 l 497 738 l 497 710 l 194 710 z "},"ќ":{"ha":715,"x_min":131,"x_max":654,"o":"m 333 769 l 314 788 l 521 989 l 546 965 l 333 769 m 358 349 l 358 347 q 447 320 407 344 q 521 248 488 296 q 578 156 554 200 q 636 39 601 113 q 654 0 647 13 l 617 0 q 591 53 611 11 q 565 106 571 96 q 542 152 560 117 q 516 198 524 188 q 490 235 508 208 q 460 269 472 261 q 428 294 449 278 q 390 317 408 311 q 349 328 372 322 q 301 333 326 333 l 161 333 q 164 253 164 306 l 164 0 l 131 0 l 131 667 l 164 667 l 164 443 q 161 363 164 418 l 300 363 q 397 385 353 363 q 474 451 440 407 q 533 538 508 496 q 588 643 557 581 q 599 667 594 660 l 635 667 q 511 444 556 500 q 358 349 442 356 z "},"ѝ":{"ha":807,"x_min":131,"x_max":676,"o":"m 444 788 l 425 769 l 213 965 l 238 989 l 444 788 m 676 0 l 643 0 l 643 546 l 643 618 l 642 618 q 601 561 628 594 l 161 0 l 131 0 l 131 667 l 164 667 l 164 126 l 164 49 l 165 49 q 211 111 183 76 l 646 667 l 676 667 l 676 0 z "},"ў":{"ha":703,"x_min":42,"x_max":663,"o":"m 513 965 l 546 965 q 494 843 546 890 q 358 796 443 796 q 220 843 272 796 q 168 965 168 890 l 201 965 q 244 859 201 897 q 358 821 288 821 q 470 859 428 821 q 513 965 513 897 m 663 667 l 356 -65 q 239 -247 303 -194 q 58 -286 160 -303 l 61 -267 q 225 -222 158 -272 q 326 -53 279 -174 l 347 0 l 333 0 q 315 11 322 0 l 42 667 l 78 667 l 313 103 l 343 31 l 361 31 l 392 106 l 626 667 l 663 667 z "},"џ":{"ha":785,"x_min":132,"x_max":653,"o":"m 653 667 l 653 0 l 411 0 l 406 -233 l 382 -233 l 374 0 l 132 0 l 132 667 l 167 667 l 167 29 l 618 29 l 618 667 l 653 667 z "},"Ґ":{"ha":713,"x_min":139,"x_max":675,"o":"m 675 1168 l 675 953 l 674 928 l 288 928 q 206 896 238 928 q 174 814 174 864 l 174 0 l 139 0 l 139 817 q 179 918 139 878 q 281 958 219 958 q 644 954 522 958 l 651 1168 l 675 1168 z "},"ґ":{"ha":608,"x_min":128,"x_max":567,"o":"m 567 871 l 567 636 l 263 636 q 161 532 161 636 l 161 0 l 128 0 l 128 536 q 162 632 128 597 q 256 667 196 667 q 536 664 433 667 l 543 871 l 567 871 z "},"Ұ":{"ha":772,"x_min":42,"x_max":731,"o":"m 408 365 l 629 365 l 629 338 l 404 338 l 404 0 l 369 0 l 369 338 l 143 338 l 143 365 l 365 365 l 42 958 l 81 958 l 331 496 q 383 401 367 429 l 390 401 q 415 444 396 411 q 442 494 433 478 l 692 958 l 731 958 l 408 365 z "},"ұ":{"ha":781,"x_min":46,"x_max":735,"o":"m 413 74 l 633 74 l 633 46 l 408 46 l 408 -292 l 374 -292 l 374 46 l 147 46 l 147 74 l 369 74 l 46 667 l 85 667 l 335 204 q 388 110 371 138 l 394 110 q 419 153 400 119 q 446 203 438 186 l 696 667 l 735 667 l 413 74 z "},"Ҷ":{"ha":860,"x_min":99,"x_max":804,"o":"m 804 31 l 804 -210 l 779 -210 l 771 0 l 663 0 l 663 486 q 299 372 490 372 q 99 574 99 372 l 99 958 l 133 958 l 133 578 q 175 447 133 489 q 306 404 217 404 q 481 429 401 404 q 663 518 561 454 l 663 958 l 697 958 l 697 31 l 804 31 z "},"ҷ":{"ha":718,"x_min":90,"x_max":644,"o":"m 644 29 l 644 -199 l 621 -199 l 613 0 l 538 0 l 538 328 q 231 253 388 253 q 90 394 90 253 l 90 667 l 124 667 l 124 400 q 239 286 124 286 q 538 358 386 286 l 538 667 l 571 667 l 571 29 l 644 29 z "},"Һ":{"ha":840,"x_min":143,"x_max":742,"o":"m 178 958 l 178 472 q 542 586 350 586 q 742 385 742 586 l 742 0 l 707 0 l 707 381 q 665 512 707 469 q 535 554 624 554 q 359 529 439 554 q 178 440 279 504 l 178 0 l 143 0 l 143 958 l 178 958 z "},"Ӏ":{"ha":321,"x_min":143,"x_max":178,"o":"m 178 0 l 143 0 l 143 958 l 178 958 l 178 0 z "},"Ẁ":{"ha":1292,"x_min":46,"x_max":1246,"o":"m 701 1040 l 682 1022 l 469 1218 l 494 1242 l 701 1040 m 1246 958 l 992 14 q 972 0 988 0 l 914 0 q 894 15 899 0 l 690 821 l 663 928 l 629 928 l 601 821 l 397 15 q 378 0 393 0 l 319 0 q 300 14 304 0 l 46 958 l 82 958 l 304 126 l 329 31 l 368 31 l 392 125 l 600 943 q 619 958 604 958 l 672 958 q 692 943 688 958 l 900 126 q 912 79 904 111 q 924 31 919 47 l 963 31 l 988 125 l 1210 958 l 1246 958 z "},"ẁ":{"ha":1128,"x_min":47,"x_max":1081,"o":"m 618 788 l 599 769 l 386 965 l 411 989 l 618 788 m 1081 667 l 849 13 q 831 0 844 0 l 794 0 q 776 13 782 0 l 603 536 q 587 586 597 553 q 571 636 576 619 l 557 636 l 524 536 l 351 13 q 333 0 346 0 l 297 0 q 279 13 283 0 l 47 667 l 83 667 l 275 119 q 290 74 281 104 q 306 31 300 44 l 325 31 l 354 121 l 529 654 q 547 667 535 667 l 581 667 q 599 654 593 667 l 774 121 l 803 31 l 822 31 q 838 76 828 46 q 853 121 847 106 l 1044 667 l 1081 667 z "},"Ẃ":{"ha":1292,"x_min":46,"x_max":1246,"o":"m 813 1218 l 600 1022 l 581 1040 l 788 1242 l 813 1218 m 1246 958 l 992 14 q 972 0 988 0 l 914 0 q 894 15 899 0 l 690 821 l 663 928 l 629 928 l 601 821 l 397 15 q 378 0 393 0 l 319 0 q 300 14 304 0 l 46 958 l 82 958 l 304 126 l 329 31 l 368 31 l 392 125 l 600 943 q 619 958 604 958 l 672 958 q 692 943 688 958 l 900 126 q 912 79 904 111 q 924 31 919 47 l 963 31 l 988 125 l 1210 958 l 1246 958 z "},"ẃ":{"ha":1128,"x_min":47,"x_max":1081,"o":"m 729 965 l 517 769 l 497 788 l 704 989 l 729 965 m 1081 667 l 849 13 q 831 0 844 0 l 794 0 q 776 13 782 0 l 603 536 q 587 586 597 553 q 571 636 576 619 l 557 636 l 524 536 l 351 13 q 333 0 346 0 l 297 0 q 279 13 283 0 l 47 667 l 83 667 l 275 119 q 290 74 281 104 q 306 31 300 44 l 325 31 l 354 121 l 529 654 q 547 667 535 667 l 581 667 q 599 654 593 667 l 774 121 l 803 31 l 822 31 q 838 76 828 46 q 853 121 847 106 l 1044 667 l 1081 667 z "},"Ẅ":{"ha":1292,"x_min":46,"x_max":1246,"o":"m 517 1189 l 531 1189 q 544 1174 544 1189 l 544 1096 q 531 1081 544 1081 l 517 1081 q 503 1096 503 1081 l 503 1174 q 517 1189 503 1189 m 763 1189 l 776 1189 q 790 1174 790 1189 l 790 1096 q 776 1081 790 1081 l 763 1081 q 749 1096 749 1081 l 749 1174 q 763 1189 749 1189 m 1246 958 l 992 14 q 972 0 988 0 l 914 0 q 894 15 899 0 l 690 821 l 663 928 l 629 928 l 601 821 l 397 15 q 378 0 393 0 l 319 0 q 300 14 304 0 l 46 958 l 82 958 l 304 126 l 329 31 l 368 31 l 392 125 l 600 943 q 619 958 604 958 l 672 958 q 692 943 688 958 l 900 126 q 912 79 904 111 q 924 31 919 47 l 963 31 l 988 125 l 1210 958 l 1246 958 z "},"ẅ":{"ha":1128,"x_min":47,"x_max":1081,"o":"m 433 936 l 447 936 q 461 921 461 936 l 461 843 q 447 828 461 828 l 433 828 q 419 843 419 828 l 419 921 q 433 936 419 936 m 679 936 l 693 936 q 707 921 707 936 l 707 843 q 693 828 707 828 l 679 828 q 665 843 665 828 l 665 921 q 679 936 665 936 m 1081 667 l 849 13 q 831 0 844 0 l 794 0 q 776 13 782 0 l 603 536 q 587 586 597 553 q 571 636 576 619 l 557 636 l 524 536 l 351 13 q 333 0 346 0 l 297 0 q 279 13 283 0 l 47 667 l 83 667 l 275 119 q 290 74 281 104 q 306 31 300 44 l 325 31 l 354 121 l 529 654 q 547 667 535 667 l 581 667 q 599 654 593 667 l 774 121 l 803 31 l 822 31 q 838 76 828 46 q 853 121 847 106 l 1044 667 l 1081 667 z "},"Ỳ":{"ha":751,"x_min":31,"x_max":719,"o":"m 411 1022 l 199 1218 l 224 1242 l 431 1040 l 411 1022 m 393 357 l 393 0 l 358 0 l 358 357 l 31 958 l 69 958 l 319 496 q 372 401 356 429 l 379 401 q 403 444 385 411 q 431 494 422 478 l 681 958 l 719 958 l 393 357 z "},"ỳ":{"ha":703,"x_min":42,"x_max":663,"o":"m 390 769 l 178 965 l 203 989 l 410 788 l 390 769 m 663 667 l 356 -65 q 269 -214 315 -160 q 140 -292 222 -268 l 132 -272 q 251 -190 208 -243 q 326 -53 294 -136 l 347 0 l 333 0 q 315 11 322 0 l 42 667 l 78 667 l 313 103 l 343 31 l 361 31 l 392 106 l 626 667 l 663 667 z "},"–":{"ha":865,"x_min":119,"x_max":746,"o":"m 746 333 l 119 333 l 119 364 l 746 364 l 746 333 z "},"—":{"ha":1296,"x_min":119,"x_max":1176,"o":"m 1176 333 l 119 333 l 119 364 l 1176 364 l 1176 333 z "},"‘":{"ha":274,"x_min":115,"x_max":157,"o":"m 143 733 l 131 733 q 115 750 115 733 l 115 839 q 139 1015 118 942 l 154 1008 q 150 853 150 953 q 157 839 161 853 l 157 750 q 143 733 158 733 z "},"’":{"ha":271,"x_min":117,"x_max":158,"o":"m 131 1001 l 143 1001 q 158 985 158 1001 l 158 896 q 135 719 156 793 l 119 726 q 124 882 124 782 q 117 896 113 882 l 117 985 q 131 1001 114 1001 z "},"‚":{"ha":289,"x_min":124,"x_max":168,"o":"m 139 119 l 151 119 q 168 103 168 119 l 168 14 q 143 -162 165 -83 l 126 -156 q 132 0 132 -82 q 124 14 119 0 l 124 103 q 139 119 122 119 z "},"“":{"ha":432,"x_min":115,"x_max":315,"o":"m 143 733 l 131 733 q 115 750 115 733 l 115 839 q 139 1015 118 942 l 154 1008 q 150 853 150 953 q 157 839 161 853 l 157 750 q 143 733 158 733 m 301 733 l 289 733 q 274 750 274 733 l 274 839 q 297 1015 276 942 l 313 1008 q 308 853 308 953 q 315 839 319 853 l 315 750 q 301 733 317 733 z "},"”":{"ha":429,"x_min":117,"x_max":317,"o":"m 131 1001 l 143 1001 q 158 985 158 1001 l 158 896 q 135 719 156 793 l 119 726 q 124 882 124 782 q 117 896 113 882 l 117 985 q 131 1001 114 1001 m 289 1001 l 301 1001 q 317 985 317 1001 l 317 896 q 293 719 314 793 l 278 726 q 282 882 282 782 q 275 896 271 882 l 275 985 q 289 1001 272 1001 z "},"„":{"ha":446,"x_min":124,"x_max":324,"o":"m 138 119 l 150 119 q 165 103 165 119 l 165 14 q 142 -162 163 -89 l 126 -156 q 131 0 131 -100 q 124 14 119 0 l 124 103 q 138 119 122 119 m 296 119 l 308 119 q 324 103 324 119 l 324 14 q 300 -162 321 -89 l 285 -156 q 289 0 289 -100 q 282 14 278 0 l 282 103 q 296 119 281 119 z "},"†":{"ha":600,"x_min":76,"x_max":524,"o":"m 317 -153 l 283 -153 l 283 644 l 282 660 l 282 960 l 317 960 l 317 -153 m 76 631 l 76 667 l 263 667 l 263 638 l 76 631 m 524 667 l 524 631 l 338 638 l 338 667 l 524 667 z "},"‡":{"ha":650,"x_min":101,"x_max":549,"o":"m 343 -153 l 307 -153 l 307 960 l 343 960 l 343 -153 m 288 638 l 101 631 l 101 667 l 288 667 l 288 638 m 549 631 l 363 638 l 363 667 l 549 667 l 549 631 m 288 169 l 288 140 l 101 140 l 101 176 l 288 169 m 549 140 l 363 140 l 363 169 l 549 176 l 549 140 z "},"•":{"ha":488,"x_min":147,"x_max":340,"o":"m 238 468 l 251 468 q 321 449 301 468 q 340 379 340 429 l 340 365 q 321 294 340 314 q 251 275 301 275 l 238 275 q 167 294 186 275 q 147 365 147 314 l 147 379 q 167 449 147 429 q 238 468 186 468 z "},"…":{"ha":1069,"x_min":119,"x_max":950,"o":"m 136 119 l 150 119 q 167 103 167 119 l 167 17 q 150 0 167 0 l 136 0 q 119 17 119 0 l 119 103 q 136 119 119 119 m 528 119 l 542 119 q 558 103 558 119 l 558 17 q 542 0 558 0 l 528 0 q 511 17 511 0 l 511 103 q 528 119 511 119 m 919 119 l 933 119 q 950 103 950 119 l 950 17 q 933 0 950 0 l 919 0 q 903 17 903 0 l 903 103 q 919 119 903 119 z "},"‰":{"ha":1725,"x_min":85,"x_max":1638,"o":"m 132 908 q 156 941 132 908 q 293 975 179 975 q 454 908 407 975 q 501 692 501 840 q 454 476 501 543 q 293 408 407 408 q 132 476 179 408 q 85 692 85 543 q 132 908 85 840 m 294 0 l 261 0 l 928 958 l 961 958 l 294 0 m 430 888 q 410 918 430 888 q 293 949 390 949 q 156 888 196 949 q 117 692 117 828 q 156 495 117 556 q 293 435 196 435 q 430 495 390 435 q 469 692 469 556 q 430 888 469 828 m 772 490 q 796 523 772 490 q 933 557 819 557 q 1094 490 1047 557 q 1142 274 1142 422 q 1094 58 1142 125 q 933 -10 1047 -10 q 772 58 819 -10 q 725 274 725 125 q 772 490 725 422 m 1268 490 q 1292 523 1268 490 q 1429 557 1315 557 q 1590 490 1543 557 q 1638 274 1638 422 q 1590 58 1638 125 q 1429 -10 1543 -10 q 1268 58 1315 -10 q 1221 274 1221 125 q 1268 490 1221 422 m 1070 470 q 1050 500 1070 470 q 933 531 1031 531 q 797 470 836 531 q 757 274 757 410 q 797 77 757 138 q 933 17 836 17 q 1070 77 1031 17 q 1110 274 1110 138 q 1070 470 1110 410 m 1566 470 q 1546 500 1566 470 q 1429 531 1526 531 q 1292 470 1332 531 q 1253 274 1253 410 q 1292 77 1253 138 q 1429 17 1332 17 q 1566 77 1526 17 q 1606 274 1606 138 q 1566 470 1606 410 z "},"‹":{"ha":313,"x_min":29,"x_max":274,"o":"m 272 617 l 67 349 l 274 78 l 257 64 l 29 343 l 29 354 l 256 631 l 272 617 z "},"›":{"ha":314,"x_min":39,"x_max":285,"o":"m 285 354 l 285 343 l 56 64 l 39 78 l 246 349 l 40 617 l 57 631 l 285 354 z "},"⁄":{"ha":222,"x_min":-240,"x_max":460,"o":"m -207 0 l -240 0 l 426 958 l 460 958 l -207 0 z "},"€":{"ha":900,"x_min":94,"x_max":814,"o":"m 806 33 l 814 8 q 581 -17 717 -17 q 326 83 408 -17 q 229 383 243 182 l 94 383 l 94 413 l 228 413 q 226 479 226 433 q 229 576 226 515 l 94 576 l 94 606 l 232 606 q 333 883 250 792 q 581 975 415 975 q 803 951 707 975 l 794 926 q 581 943 696 943 q 359 860 433 943 q 268 606 285 776 l 669 606 l 658 576 l 265 576 q 263 479 263 515 q 264 413 263 433 l 596 413 l 585 383 l 265 383 q 353 106 279 197 q 581 15 428 15 q 806 33 714 15 z "},"™":{"ha":1315,"x_min":108,"x_max":1194,"o":"m 538 967 l 538 940 l 338 940 l 338 439 l 307 439 l 307 940 l 108 940 l 108 967 l 538 967 m 1194 439 l 1164 439 l 1140 940 l 1121 940 l 942 499 q 926 488 939 488 l 889 488 q 874 499 876 488 l 694 940 l 675 940 l 651 439 l 621 439 l 644 950 q 661 967 647 967 l 704 967 q 718 956 715 967 l 869 585 q 884 548 875 572 q 897 513 893 524 l 918 513 l 947 586 l 1096 956 q 1111 967 1100 967 l 1154 967 q 1171 950 1171 967 l 1194 439 z "},"∂":{"ha":788,"x_min":96,"x_max":678,"o":"m 206 947 l 206 975 q 358 968 294 975 q 482 942 422 961 q 579 886 542 922 q 643 794 617 850 q 678 658 669 739 q 678 467 686 576 q 663 317 671 378 q 633 188 654 257 q 581 78 613 119 q 497 10 550 38 q 374 -17 444 -17 q 158 72 225 -17 q 96 300 90 161 q 176 531 101 450 q 379 613 251 613 q 642 458 556 613 l 643 471 q 639 673 651 590 q 597 810 626 756 q 510 894 567 864 q 382 936 453 925 q 206 947 311 947 m 374 14 q 477 37 432 14 q 550 96 522 60 q 597 188 578 132 q 625 298 615 243 q 640 424 635 353 q 376 582 543 582 q 201 506 267 582 q 129 303 135 431 q 184 96 125 178 q 374 14 243 14 z "},"∅":{"ha":951,"x_min":69,"x_max":882,"o":"m 189 760 q 249 820 189 760 q 476 879 308 879 q 763 760 644 879 q 882 474 882 642 q 763 186 882 306 q 476 67 644 67 q 189 186 308 67 q 69 474 69 306 q 189 760 69 642 m 433 335 l 508 335 q 528 424 508 383 q 574 489 549 465 q 619 549 599 513 q 639 628 639 586 q 476 757 639 757 q 307 742 406 757 l 311 679 q 476 692 394 692 q 568 628 568 692 q 547 566 568 599 q 501 507 526 533 q 454 435 475 481 q 433 335 433 389 m 499 238 l 444 238 q 435 226 435 238 l 435 175 q 444 165 435 165 l 499 165 q 510 175 510 165 l 510 226 q 499 238 510 238 z "},"∏":{"ha":1014,"x_min":64,"x_max":950,"o":"m 950 929 l 782 929 l 782 -153 l 749 -153 l 749 929 l 265 929 l 265 -153 l 232 -153 l 232 929 l 64 929 l 64 958 l 950 958 l 950 929 z "},"∑":{"ha":806,"x_min":78,"x_max":722,"o":"m 708 928 l 135 928 l 397 501 l 115 -85 l 722 -85 l 722 -115 l 78 -115 l 78 -85 l 358 501 l 94 928 l 94 958 l 708 958 l 708 928 z "},"−":{"ha":818,"x_min":119,"x_max":699,"o":"m 699 396 l 119 396 l 119 426 l 699 426 l 699 396 z "},"√":{"ha":765,"x_min":65,"x_max":715,"o":"m 715 1217 l 315 11 q 297 0 311 0 l 260 0 q 242 11 244 0 l 65 667 l 101 667 l 269 31 l 288 31 l 679 1217 l 715 1217 z "},"∞":{"ha":1100,"x_min":106,"x_max":994,"o":"m 819 608 q 946 565 897 608 q 994 435 994 521 q 941 297 994 346 q 804 249 888 249 q 719 263 758 249 q 648 303 681 276 q 597 351 615 331 q 553 404 579 371 q 432 290 492 331 q 294 249 372 249 q 159 297 213 249 q 106 435 106 346 q 156 565 106 521 q 288 608 206 608 q 553 449 431 608 q 819 608 681 608 m 300 278 q 426 315 374 278 q 535 426 478 353 q 422 540 478 500 q 288 579 365 579 q 138 435 138 579 q 181 318 138 358 q 300 278 225 278 m 801 278 q 919 318 875 278 q 963 436 963 358 q 924 544 963 508 q 819 579 885 579 q 715 552 767 579 q 634 497 663 525 q 569 425 606 468 q 622 358 599 385 q 695 305 646 332 q 801 278 744 278 z "},"∫":{"ha":539,"x_min":60,"x_max":479,"o":"m 281 -124 l 225 807 q 371 992 214 992 q 479 986 439 992 l 475 961 l 382 961 q 283 926 313 961 q 258 807 253 890 l 314 -124 q 168 -308 325 -308 q 60 -303 100 -308 l 64 -278 l 157 -278 q 256 -242 226 -278 q 281 -124 286 -207 z "},"≈":{"ha":824,"x_min":121,"x_max":704,"o":"m 149 478 l 121 478 q 147 574 119 546 q 228 601 175 601 q 411 556 288 601 q 600 508 535 510 q 658 525 639 508 q 676 594 676 542 l 704 594 q 679 504 704 532 q 593 476 654 476 q 403 523 525 476 q 225 569 281 569 q 167 551 186 569 q 149 478 149 532 m 149 214 l 121 214 q 147 310 119 282 q 228 338 175 338 q 411 292 288 338 q 600 244 535 246 q 658 261 639 244 q 676 331 676 278 l 704 331 q 679 240 704 268 q 593 213 654 213 q 403 259 525 213 q 225 306 281 306 q 167 287 186 306 q 149 214 149 268 z "},"≠":{"ha":854,"x_min":167,"x_max":746,"o":"m 532 535 l 372 271 l 746 271 l 746 240 l 353 240 l 249 68 l 222 81 l 319 240 l 167 240 l 167 271 l 338 271 l 499 535 l 167 535 l 167 565 l 517 565 l 607 714 l 633 701 l 550 565 l 746 565 l 746 535 l 532 535 z "},"≤":{"ha":818,"x_min":121,"x_max":700,"o":"m 681 675 l 169 479 l 681 306 l 681 274 l 135 464 l 135 494 l 681 707 l 681 675 m 700 146 l 121 146 l 121 175 l 700 175 l 700 146 z "},"≥":{"ha":818,"x_min":118,"x_max":697,"o":"m 683 494 l 683 464 l 138 274 l 138 304 l 649 479 l 138 676 l 138 707 l 683 494 m 697 146 l 118 146 l 118 175 l 697 175 l 697 146 z "},"◊":{"ha":824,"x_min":69,"x_max":754,"o":"m 422 963 l 754 490 q 754 471 760 481 l 422 -4 q 403 -4 413 -17 l 69 471 q 69 490 64 481 l 403 963 q 422 963 413 975 m 104 481 l 413 33 l 719 481 l 413 925 l 104 481 z "},"ﬁ":{"ha":763,"x_min":49,"x_max":632,"o":"m 625 667 l 625 0 l 592 0 l 592 635 l 203 635 l 203 0 l 169 0 l 169 635 l 49 635 l 49 660 l 169 667 l 169 807 q 210 947 169 901 q 343 992 250 992 q 479 986 428 992 l 479 961 l 354 961 q 237 926 271 961 q 203 807 203 892 l 203 667 l 625 667 m 601 943 l 615 943 q 632 926 632 943 l 632 840 q 615 824 632 824 l 601 824 q 585 840 585 824 l 585 926 q 601 943 585 943 z "},"ﬂ":{"ha":856,"x_min":50,"x_max":842,"o":"m 838 22 l 842 0 q 753 -8 814 -8 q 651 28 689 -8 q 613 132 613 65 l 613 961 l 356 961 q 238 928 272 963 q 204 807 204 893 l 204 667 l 439 667 l 439 635 l 204 635 l 204 0 l 171 0 l 171 635 l 50 635 l 50 660 l 171 667 l 171 807 q 211 947 171 901 q 344 992 251 992 q 646 983 551 992 l 646 133 q 675 51 646 79 q 757 22 704 22 l 838 22 z "}}}
